<ttFont>
<head>
    <!-- Most of this table will be recalculated by the compiler -->
    <tableVersion value="1.0"/>
    <fontRevision value="2.004"/>
    <checkSumAdjustment value="0x98a9bb8b"/>
    <magicNumber value="0x5f0f3cf5"/>
    <flags value="00000000 00000011"/>
    <unitsPerEm value="1000"/>
    <created value="Thu Oct  8 10:03:05 2009"/>
    <modified value="Thu Oct  8 10:03:05 2009"/>
    <xMin value="-452"/>
    <yMin value="-307"/>
    <xMax value="1470"/>
    <yMax value="1021"/>
    <macStyle value="00000000 00000001"/>
    <lowestRecPPEM value="3"/>
    <fontDirectionHint value="2"/>
    <indexToLocFormat value="0"/>
    <glyphDataFormat value="0"/>
  </head>
          <CharString index="0">
            rmoveto
            14 -8 14 -17 6 vhcurveto
            -114 42 -8 2 -9 0 -8 -2 rlinecurve
            -114 -42 rlineto
            -18 -7 -8 -14 -14 vvcurveto
            -18 15 -20 21 4 4 0 2 5 vhcurveto
            103 31 103 -31 rlineto
            -2 5 4 0 4 hhcurveto
            22 14 20 19 hvcurveto
            return
          </CharString>
          <CharString index="1">
            rmoveto
            24 -14 15 -25 -30 -5 -20 -15 -3 vhcurveto
            -12 -4 -62 0 -37 hhcurveto
            -38 -61 0 12 -4 hvcurveto
            15 -3 -5 20 -30 hhcurveto
            -24 -15 -15 -24 -84 112 -4 68 68 112 4 84 hvcurveto
            return
          </CharString>
          <CharString index="2">
            506 39 rmoveto
            36 -29 2 -18 -28 -11 2 3 -7 vhcurveto
            204 vlineto
            74 -55 85 -141 -44 -103 -3 -77 -35 25 -18 28 19 31 11 42 1 vhcurveto
            0 24 3 20 62 44 -24 -58 4 vhcurveto
            -176 -4 -106 -59 -90 vvcurveto
            return
          </CharString>
          <CharString index="3">
            rmoveto
            17 -7 5 -13 11 vhcurveto
            -68 54 rlineto
            11 -13 -5 3 -13 hhcurveto
            -24 -19 -18 -25 -19 10 -8 12 -10 hvcurveto
            68 -54 rlineto
            -11 13 4 -2 11 hhcurveto
            23 21 29 17 hvcurveto
            -205 hmoveto
            17 -7 5 -13 11 vhcurveto
            -68 54 rlineto
            11 -13 -5 3 -13 hhcurveto
            -24 -19 -18 -25 -19 10 -8 12 -10 hvcurveto
            68 -54 rlineto
            -11 13 4 -2 11 hhcurveto
            23 21 29 17 hvcurveto
            endchar
          </CharString>
          <CharString index="4">
            -60 callgsubr
            hintmask 00000100
            14 -14 -22 21 -36 hhcurveto
            -28 -29 -16 -18 -24 hvcurveto
            hintmask 00001000
            -36 callsubr
            hintmask 00100000
            -20 19 -20 20 vhcurveto
            hintmask 00010000
            13 8 6 7 8 hvcurveto
            hintmask 00000100
            25 27 23 16 12 hhcurveto
            5 9 -9 -9 10 hvcurveto
            hintmask 00100000
            -14 14 22 -22 36 hhcurveto
            28 29 16 18 24 hvcurveto
            hintmask 00010000
            21 16 30 25 19 vvcurveto
            endchar
          </CharString>
          <CharString index="5">
            rmoveto
            22 -13 7 -17 7 vhcurveto
            -129 58 rlineto
            -13 6 -9 0 0 vvcurveto
            -24 -19 -18 -25 -13 4 -16 29 -13 hvcurveto
            129 -57 rlineto
            -3 7 6 -3 8 hhcurveto
            31 10 38 10 hvcurveto
            endchar
          </CharString>
          <CharString index="6">
            771 241 rmoveto
            117 callgsubr
            vhcurveto
            -187 6 callgsubr
            75 hlineto
            -82 -22 -81 -55 -96 hhcurveto
            -147 -120 108 131 131 118 109 153 50 48 -12 -20 34 hvcurveto
            53 -31 10 -38 6 -25 rrcurveto
            -29 7 23 0 11 hhcurveto
            42 1 24 24 hvcurveto
            135 vlineto
            20 -2 29 -36 -23 -7 -11 -18 -8 vhcurveto
            -4 -8 -4 -6 -5 -13 rrcurveto
            30 -43 -71 26 -89 hhcurveto
            -200 -149 -148 -168 -175 156 -142 191 99 70 40 35 40 hvcurveto
            -15 115 callgsubr
            41 1 26 23 vhcurveto
            154 22 vlineto
            121 callgsubr
            return
          </CharString>
          <CharString index="7">
            rmoveto
            53 -27 20 -27 82 callsubr
            36 callsubr
            vhcurveto
            -1 -8 -3 -10 -8 -11 rrcurveto
            -23 -23 -6 -6 -13 vvcurveto
            -13 14 -18 18 18 55 46 72 vhcurveto
            endchar
          </CharString>
          <CharString index="8">
            313 38 rmoveto
            -65 callgsubr
            vhcurveto
            -48 457 48 -24 callgsubr
            -181 -101 callgsubr
            48 -457 -48 -94 callgsubr
            181 -69 callgsubr
            return
          </CharString>
          <CharString index="9">
            rmoveto
            11 -5 12 -13 8 vhcurveto
            -115 72 -11 7 -18 0 -11 -7 rlinecurve
            -115 -72 rlineto
            -13 -8 -5 -12 -11 vvcurveto
            -20 18 -19 21 6 6 2 4 6 vhcurveto
            96 58 96 -58 rlineto
            -4 6 6 -2 6 hhcurveto
            21 18 19 20 hvcurveto
            return
          </CharString>
          <CharString index="10">
            488 219 rmoveto
            123 -100 103 -126 -126 -100 -103 -123 -126 102 -99 124 124 102 99 126 vhcurveto
            -84 6 rmoveto
            -83 -63 -71 -79 -80 -62 71 83 83 66 60 76 76 66 -60 -83 vhcurveto
            return
          </CharString>
          <CharString index="11">
            -106 callsubr
            endchar
          </CharString>
          <CharString index="12">
            rmoveto
            54 -48 33 -65 -53 -51 -32 -55 -18 13 -19 24 18 19 13 28 vhcurveto
            6 3 10 5 14 hhcurveto
            23 16 -4 -9 5 hvcurveto
            return
          </CharString>
          <CharString index="13">
            755 305 rmoveto
            86 -38 81 -64 57 vhcurveto
            -5 5 -6 5 -6 5 rrcurveto
            25 20 13 35 34 vvcurveto
            34 -13 40 -44 1 vhcurveto
            -35 -1 -22 -28 -28 vvcurveto
            -20 9 -19 17 -10 vhcurveto
            -2 -3 -3 -2 -3 hhcurveto
            -8 -7 -2 -4 -6 hvcurveto
            19 -46 -51 11 -52 hhcurveto
            -91 -87 -32 -61 -68 hvcurveto
            -63 -57 -39 -81 -86 vvcurveto
            -85 39 -81 63 -57 vhcurveto
            -61 68 87 -32 91 hhcurveto
            91 88 32 61 67 hvcurveto
            64 57 38 81 85 vvcurveto
            -85 13 rmoveto
            -68 -28 -64 -49 -47 vhcurveto
            -47 -50 -66 -26 -70 hhcurveto
            -69 -66 26 47 -50 hvcurveto
            -49 47 -28 64 68 vvcurveto
            61 29 58 47 41 vhcurveto
            44 51 67 23 68 hhcurveto
            69 66 -23 -44 52 hvcurveto
            46 -41 30 -58 -61 vvcurveto
            return
          </CharString>
          <CharString index="14">
            rmoveto
            20 -19 20 -20 vhcurveto
            hintmask 00100000
            -13 -8 -5 -8 -8 hvcurveto
            4 callgsubr
            hintmask 00010000
            14 -14 -22 21 -36 hhcurveto
            -28 -29 -16 -18 -24 hvcurveto
            hintmask 00100000
            -36 callsubr
            hintmask 10000000
            -20 19 -20 20 vhcurveto
            hintmask 01000000
            13 8 6 7 8 hvcurveto
            hintmask 00010000
            25 27 23 16 12 hhcurveto
            5 9 -9 -9 10 hvcurveto
            hintmask 10000000
            -14 14 22 -22 36 hhcurveto
            28 29 16 18 24 hvcurveto
            hintmask 01000000
            21 16 30 25 19 vvcurveto
            endchar
          </CharString>
          <CharString index="15">
            -84 -88 -6 -30 -79 -1 29 26 vhcurveto
            262 vlineto
            36 -57 callgsubr
            -239 hlineto
            -115 102 -11 57 58 41 16 17 27 vhcurveto
            return
          </CharString>
          <CharString index="16">
            270 38 117 callsubr
            -19 vhcurveto
            -34 311 hlineto
            36 53 callgsubr
            -76 hlineto
            -18 -30 -1 -37 130 callsubr
            39 -282 -44 44 callgsubr
            -37 29 -1 18 hvcurveto
            164 23 callgsubr
            return
          </CharString>
          <CharString index="17">
            692 634 rmoveto
            34 -14 39 -43 1 vhcurveto
            -34 -1 -23 -28 -28 vvcurveto
            -17 7 -15 11 -11 vhcurveto
            2 -4 -5 1 -5 hhcurveto
            -104 hlineto
            -21 -15 -17 -19 hvcurveto
            -5 vlineto
            -20 15 -16 21 vhcurveto
            55 -327 hlineto
            -36 -15 -34 -26 -25 vhcurveto
            -31 -33 -40 -15 -41 hhcurveto
            -40 -38 13 26 -29 hvcurveto
            -32 29 -17 36 37 vvcurveto
            327 56 vlineto
            20 16 16 20 hvcurveto
            5 vlineto
            19 -16 17 -20 vhcurveto
            -196 hlineto
            -20 -15 -17 -19 hvcurveto
            -5 vlineto
            -20 15 -16 20 vhcurveto
            56 -327 hlineto
            -60 27 -56 45 -39 vhcurveto
            -41 45 60 -22 63 hhcurveto
            62 60 22 41 46 hvcurveto
            45 39 27 56 60 vvcurveto
            326 vlineto
            43 15 31 39 47 vvcurveto
            return
          </CharString>
          <CharString index="18">
            -84 callgsubr
            202 -107 callgsubr
          </CharString>
          <CharString index="19">
            rmoveto
            20 -19 20 -20 vhcurveto
            hintmask 0000010000000000
            -13 -8 -5 -8 -8 hvcurveto
            hintmask 0001000000000000
            -76 callgsubr
            hintmask 0000001000000000
            14 -14 -22 21 -36 hhcurveto
            -28 -29 -16 -18 -24 hvcurveto
            hintmask 0000010000000000
            -36 callsubr
            hintmask 0001000000000000
            -20 19 -20 20 vhcurveto
            hintmask 0000100000000000
            13 8 6 7 8 hvcurveto
            hintmask 0000001000000000
            25 27 23 16 12 hhcurveto
            5 9 -9 -9 10 hvcurveto
            hintmask 0001000000000000
            -14 14 22 -22 36 hhcurveto
            28 29 16 18 24 hvcurveto
            hintmask 0000100000000000
            21 16 30 25 19 vvcurveto
            endchar
          </CharString>
          <CharString index="20">
            hstemhm
            hintmask 11100000
            -103 callgsubr
            return
          </CharString>
          <CharString index="21">
            rmoveto
            -102 callgsubr
            197 -82 callsubr
            return
          </CharString>
          <CharString index="22">
            82 -65 72 -91 20 vhcurveto
            -144 30 rlineto
            -24 5 -65 23 56 vvcurveto
            45 51 42 76 96 41 -48 -62 12 vhcurveto
            -21 3 4 -18 35 hhcurveto
            42 1 25 24 hvcurveto
            128 vlineto
            20 -2 29 -36 -23 -5 -5 -39 -14 vhcurveto
            37 -51 -64 7 -38 hhcurveto
            -127 -82 -83 -85 -52 27 -37 23 -23 hvcurveto
            41 -38 35 -7 91 -19 41 -9 rcurveline
            return
          </CharString>
          <CharString index="23">
            88 callgsubr
            hintmask 01100110
            -105 callsubr
            hintmask 10000000
            -41 callgsubr
            hintmask 01000000
            -77 callsubr
            hintmask 10000110
            -69 callsubr
            return
          </CharString>
          <CharString index="24">
            -45 callsubr
            -13 -5 -3 -11 -13 vhcurveto
            -68 -54 rlineto
            -13 -11 -7 -5 -17 vvcurveto
            -17 21 -29 23 11 4 2 11 13 vhcurveto
            68 54 rlineto
            12 10 10 8 19 vvcurveto
            205 hmoveto
            25 -19 18 -24 -13 -5 -3 -11 -13 vhcurveto
            -68 -54 rlineto
            -13 -11 -7 -5 -17 vvcurveto
            -17 21 -29 23 11 4 2 11 13 vhcurveto
            68 54 rlineto
            12 10 10 8 19 vvcurveto
            endchar
          </CharString>
          <CharString index="25">
            hmoveto
            -102 callgsubr
            return
          </CharString>
          <CharString index="26">
            718 492 rmoveto
            70 vlineto
            122 callgsubr
            -582 hlineto
            -40 -9 -9 -40 hvcurveto
            -70 -34 callsubr
            42 212 -457 -81 vlineto
            -17 -32 -2 -36 -38 30 -1 19 hvcurveto
            247 hlineto
            17 32 71 callgsubr
            -5 callgsubr
            return
          </CharString>
          <CharString index="27">
            -17 callsubr
            165 vlineto
            37 -7 12 -41 vhcurveto
            -80 hlineto
            -20 -28 -1 -38 -36 29 -2 19 hvcurveto
            43 -457 -42 callsubr
            -66 callsubr
            return
          </CharString>
          <CharString index="28">
            733 397 rmoveto
            136 callgsubr
            vhcurveto
            63 callgsubr
            31 hlineto
            -70 -259 -81 296 rlineto
            20 -6 -6 20 -40 hhcurveto
            -35 -10 -12 -29 -8 hvcurveto
            -82 -302 -73 266 rlineto
            31 -24 callsubr
            136 callgsubr
            hvcurveto
            63 callgsubr
            25 hlineto
            88 -322 rlineto
            -40 11 20 -1 31 hhcurveto
            23 21 2 22 12 hvcurveto
            77 303 67 -273 rlineto
            -42 11 4 -12 48 hhcurveto
            28 21 1 39 10 hvcurveto
            89 323 rlineto
            25 39 callgsubr
            return
          </CharString>
          <CharString index="29">
            -84 callsubr
            hintmask 00011000
            return
          </CharString>
          <CharString index="30">
            -24 22 41 -4 41 hhcurveto
            32 24 2 37 hvcurveto
            -179 100 rmoveto
            -19 0 -19 -33 -15 vhcurveto
            return
          </CharString>
          <CharString index="31">
            9 callsubr
            hintmask 0000010000000000
            -14 14 22 -22 36 hhcurveto
            28 29 16 18 24 hvcurveto
            hintmask 0000001000000000
            21 16 30 25 19 vvcurveto
            endchar
          </CharString>
          <CharString index="32">
            -13 -5 0 10 -9 hvcurveto
            -8 11 -1 19 0 vvcurveto
            0 0 8 2 6 vhcurveto
            -8 15 30 -12 37 hhcurveto
            94 75 74 91 28 -7 27 -15 26 hvcurveto
            14 6 14 3 10 1 rrcurveto
            -25 9 24 -7 11 hhcurveto
            20 28 14 35 hvcurveto
            -193 -108 rmoveto
            -50 -39 -40 -46 return
          </CharString>
          <CharString index="33">
            -75 callgsubr
            44 return
          </CharString>
          <CharString index="34">
            0 28 -24 -38 vvcurveto
            -49 -47 -51 -83 -51 -48 11 15 -26 vhcurveto
            -33 20 -14 22 -3 41 rrcurveto
            17 -1 -1 23 -39 hhcurveto
            -42 -1 -25 -24 hvcurveto
            -128 vlineto
            -20 1 -29 37 22 7 8 34 13 vhcurveto
            -36 57 77 -6 44 hhcurveto
            135 77 93 88 hvcurveto
            return
          </CharString>
          <CharString index="35">
            279 38 rmoveto
            -65 callgsubr
            vhcurveto
            -43 485 hlineto
            37 -7 12 -41 vhcurveto
            -80 -95 callgsubr
            171 -69 callgsubr
            return
          </CharString>
          <CharString index="36">
            -50 callgsubr
            hintmask 1111000000010000
            -68 -46 0 -66 -11 vvcurveto
            -87 105 -64 130 130 105 65 86 vhcurveto
            hintmask 1110001000001000
            39 -18 52 -53 28 vhcurveto
            7 -13 -42 22 -90 hhcurveto
            -68 hlineto
            -8 -12 0 2 -7 hvcurveto
            hintmask 1110010010101000
            -67 callgsubr
            hintmask 1111000100110000
            -48 -37 42 47 50 39 39 46 48 37 -41 -47 hvcurveto
            105 -349 rmoveto
            -40 -70 -36 -91 -91 -70 36 40 16 8 27 28 18 vhcurveto
            14 22 9 0 68 hhcurveto
            82 105 0 -75 hvcurveto
            return
          </CharString>
          <CharString index="37">
            -66 callgsubr
            -172 -74 callsubr
            return
          </CharString>
          <CharString index="38">
            -15 -32 -39 0 -7 hhcurveto
            -52 -35 29 33 40 59 33 139 5 hvcurveto
            return
          </CharString>
          <CharString index="39">
            47 callsubr
            hintmask 1110011010000000
            -100 callgsubr
            hintmask 1010010100000000
            -97 callgsubr
            hintmask 0000000010000000
            -7 callsubr
            return
          </CharString>
          <CharString index="40">
            rmoveto
            67 -42 57 -60 32 vhcurveto
            49 37 24 54 51 vvcurveto
            76 -73 70 -118 -123 -70 -52 -71 -38 29 -16 23 25 27 20 32 11 -3 8 -3 6 vhcurveto
            23 30 58 0 8 hhcurveto
            60 46 -30 -40 -27 -14 -31 -24 -20 hvcurveto
            -29 -24 -23 -1 -33 -2 rrcurveto
            -64 -4 -14 -4 -33 vvcurveto
            -37 28 -2 19 vhcurveto
            45 hlineto
            hintmask 1000100010000000
            90 47 -60 -52 -56 -51 -56 -83 -35 -67 8 39 -26 hvcurveto
            5 5 4 9 17 vvcurveto
            28 -22 23 -29 -27 -26 -17 -37 -91 98 -61 125 133 86 94 95 vhcurveto
            endchar
          </CharString>
          <CharString index="41">
            95 78 31 50 61 9 -31 -48 vhcurveto
            -209 -44 vlineto
            -44 callgsubr
            return
          </CharString>
          <CharString index="42">
            137 callgsubr
            29 28 vhcurveto
            endchar
          </CharString>
          <CharString index="43">
            28 -2 170 callsubr
            -80 hlineto
            -20 -28 -1 -38 -36 29 -2 19 hvcurveto
            43 -282 -42 callsubr
            return
          </CharString>
          <CharString index="44">
            rmoveto
            84 -112 4 -68 -68 -112 -4 -84 -24 14 -15 25 30 5 20 15 3 vhcurveto
            12 4 62 0 37 hhcurveto
            38 61 0 -12 4 hvcurveto
            -15 3 5 -20 30 hhcurveto
            24 15 15 24 hvcurveto
            endchar
          </CharString>
          <CharString index="45">
            757 305 rmoveto
            77 -32 94 -94 73 vhcurveto
            56 76 rlineto
            13 18 -1 12 0 vvcurveto
            25 -22 14 -17 -8 -13 0 -23 -15 vhcurveto
            -59 -83 rlineto
            8 -22 -73 26 -62 hhcurveto
            -198 -151 -147 -169 -77 32 -94 94 -73 hvcurveto
            -52 -71 rlineto
            -16 -22 0 -4 -9 vvcurveto
            -25 22 -14 17 11 9 2 19 14 vhcurveto
            61 85 rlineto
            -13 27 57 -21 73 hhcurveto
            198 151 147 169 hvcurveto
            -241 220 rmoveto
            -290 -402 rlineto
            -52 39 -45 65 78 vvcurveto
            131 122 109 155 46 35 -10 -10 29 vhcurveto
            171 -219 rmoveto
            -131 -122 -109 -155 -46 -35 10 10 -29 vhcurveto
            289 402 rlineto
            52 -36 46 -66 -80 vvcurveto
            return
          </CharString>
          <CharString index="46">
            38 -28 1 return
          </CharString>
          <CharString index="47">
            611 306 rmoveto
            168 -137 137 -168 -169 -137 -137 -168 -169 137 -137 169 168 137 137 169 vhcurveto
            -45 hmoveto
            -144 -117 -117 -143 -144 -117 117 144 143 117 117 144 143 117 -117 -143 vhcurveto
            return
          </CharString>
          <CharString index="48">
            483 534 rmoveto
            25 -24 13 -15 -20 -8 -12 -11 -6 vhcurveto
            -69 -119 rlineto
            6 -18 -26 9 -35 hhcurveto
            -122 -98 -103 -123 -57 21 -64 56 -50 hvcurveto
            -61 -105 rlineto
            -7 -13 -10 -19 -9 vvcurveto
            -25 24 -13 15 20 9 13 10 5 vhcurveto
            71 121 rlineto
            -12 32 28 -2 17 hhcurveto
            119 101 99 126 65 -29 60 -47 45 hvcurveto
            69 120 rlineto
            8 14 0 8 3 vvcurveto
            -183 -171 rmoveto
            -144 -249 rlineto
            -34 36 -9 39 30 vvcurveto
            82 67 67 80 21 8 -1 -4 11 vhcurveto
            111 -144 rmoveto
            -83 -67 -65 -80 -19 -8 1 3 -11 vhcurveto
            143 248 rlineto
            32 -33 10 -41 -30 vvcurveto
            return
          </CharString>
          <CharString index="49">
            -80 hlineto
            194 callgsubr
            return
          </CharString>
          <CharString index="50">
            -106 callsubr
            -68 164 -107 callgsubr
          </CharString>
          <CharString index="51">
            -172 hlineto
            194 callgsubr
            return
          </CharString>
          <CharString index="52">
            566 36 rmoveto
            5 vlineto
            20 -17 16 -19 vhcurveto
            -55 280 hlineto
            45 15 34 37 50 vvcurveto
            33 -15 40 -42 -34 -23 -27 -30 -16 6 -15 12 -11 vhcurveto
            -3 -2 rlineto
            3 -5 -6 1 -6 hhcurveto
            -104 hlineto
            -20 -16 -15 -21 hvcurveto
            -5 vlineto
            return
          </CharString>
          <CharString index="53">
            21 24 23 -6 -13 vhcurveto
            75 hmoveto
            35 -53 32 -68 -73 -50 -33 -34 -35 53 -32 68 73 50 33 34 vhcurveto
            return
          </CharString>
          <CharString index="54">
            566 38 rmoveto
            -65 callgsubr
            vhcurveto
            -43 214 hlineto
            112 -64 39 -85 -52 -45 return
          </CharString>
          <CharString index="55">
            -29 -2 -36 -38 28 -1 return
          </CharString>
          <CharString index="56">
            537 38 rmoveto
            37 -30 2 -18 vhcurveto
            -30 hlineto
            -145 178 118 104 rlineto
            35 88 callsubr
            -30 1 -18 hvcurveto
            -160 -75 callgsubr
            16 hlineto
            -137 -121 rlineto
            324 vlineto
            122 callgsubr
            -68 -74 callsubr
            -457 -44 44 callgsubr
            -37 29 -1 18 hvcurveto
            159 -52 callgsubr
            65 hlineto
            74 66 107 -131 rlineto
            -1 6 callgsubr
            123 64 callsubr
            return
          </CharString>
          <CharString index="57">
            -1 -38 41 callgsubr
            hvcurveto
            return
          </CharString>
          <CharString index="58">
            18 -19 21 -21 -23 -75 -60 -93 -63 33 -34 39 33 24 27 31 6 0 43 -50 7 vhcurveto
            6 36 21 19 12 9 rrcurveto
            10 7 10 8 18 vvcurveto
            return
          </CharString>
          <CharString index="59">
            -36 callgsubr
            -65 callgsubr
            hvcurveto
            return
          </CharString>
          <CharString index="60">
            87 callgsubr
            -457 68 callgsubr
            457 166 hlineto
            148 106 -111 -122 hvcurveto
            return
          </CharString>
          <CharString index="61">
            382 130 rmoveto
            107 -121 24 -33 6 vhcurveto
            -70 13 -50 9 33 vvcurveto
            27 29 19 64 64 5 -31 -17 2 vhcurveto
            -17 1 3 -22 38 hhcurveto
            42 1 24 24 hvcurveto
            67 vlineto
            20 -2 29 -36 vhcurveto
            return
          </CharString>
          <CharString index="62">
            rmoveto
            25 -19 18 -24 return
          </CharString>
          <CharString index="63">
            hlineto
            -20 -28 -50 callsubr
            return
          </CharString>
          <CharString index="64">
            63 -33 34 -39 -33 -24 -27 -31 -6 0 -43 50 -7 vhcurveto
            -6 -36 -21 -19 -12 -9 rrcurveto
            -10 -7 -10 -8 -18 vvcurveto
            -18 19 -21 21 23 75 60 93 vhcurveto
            return
          </CharString>
          <CharString index="65">
            -45 callgsubr
            162 hlineto
            return
          </CharString>
          <CharString index="66">
            -27 5 21 0 20 hhcurveto
            80 -69 callgsubr
            return
          </CharString>
          <CharString index="67">
            rmoveto
            103 -79 99 -119 -32 -39 -5 -17 -37 vhcurveto
            161 224 vlineto
            18 30 143 callsubr
            -261 hlineto
            -39 -9 -11 -38 hvcurveto
            -258 vlineto
            -22 1 -27 39 22 4 6 12 10 vhcurveto
            30 25 37 16 54 hhcurveto
            74 40 -67 -59 -73 -65 -54 -77 -24 -55 6 45 -26 hvcurveto
            return
          </CharString>
          <CharString index="68">
            418 0 77 101 77 23 77 179 77 hstemhm
            251 85 124 85 125 85 32 84 -56 84 hintmask 1011011010000000
            899 146 callsubr
            23 0 155 callsubr
            -270 201 125 vlineto
            -41 1 4 -15 38 hhcurveto
            41 1 26 23 hvcurveto
            90 105 callsubr
            -38 -4 -15 -40 -1 vhcurveto
            -125 179 hlineto
            hintmask 1101110100000000
            242 143 callgsubr
            0 25 24 vhcurveto
            178 callsubr
            -491 hlineto
            -18 -30 -1 -38 -36 31 -2 17 hvcurveto
            3 hlineto
            -200 -457 rlineto
            -40 hlineto
            -18 -30 -2 -36 -38 29 -1 19 hvcurveto
            155 51 callgsubr
            -23 hlineto
            44 101 rlineto
            188 -101 -20 hlineto
            -19 -30 -2 -37 -36 57 callgsubr
            412 hlineto
            hintmask 0101000010000000
            39 8 11 38 hvcurveto
            -441 206 rmoveto
            -155 hlineto
            123 279 rlineto
            32 hlineto
            endchar
          </CharString>
          <CharString index="69">
            -107 callsubr
            27 103 callsubr
            return
          </CharString>
          <CharString index="70">
            -42 0 -24 -24 hvcurveto
            -28 -191 vlineto
            268 292 rlineto
            3 7 1 12 5 vvcurveto
            42 -24 1 -24 vhcurveto
            -285 hlineto
            -39 -10 -9 -39 hvcurveto
            -45 -34 callsubr
            16 vlineto
            return
          </CharString>
          <CharString index="71">
            -21 -16 -30 -25 -19 vvcurveto
            return
          </CharString>
          <CharString index="72">
            64 -33 33 -39 -33 -24 -26 -31 -7 0 -43 50 -7 vhcurveto
            -6 -35 -21 -19 -12 -10 rrcurveto
            -10 -7 -10 -8 -18 vvcurveto
            -17 19 -22 21 23 75 60 93 vhcurveto
            return
          </CharString>
          <CharString index="73">
            vlineto
            -68 callgsubr
            return
          </CharString>
          <CharString index="74">
            -38 callsubr
            hintmask 0000001000000000
            -13 -8 -5 -8 -8 hvcurveto
            hintmask 0000100000000000
            -76 callgsubr
            hintmask 0001000100000000
            -25 callsubr
            hintmask 0000100000000000
            -20 19 -20 20 vhcurveto
            hintmask 0000010000000000
            13 8 6 7 8 hvcurveto
            hintmask 0000000100000000
            25 27 23 16 12 hhcurveto
            5 9 -9 -9 10 hvcurveto
            hintmask 0000100000000000
            -14 14 22 -22 36 hhcurveto
            28 29 16 18 24 hvcurveto
            hintmask 0000010000000000
            21 16 30 25 19 vvcurveto
            endchar
          </CharString>
          <CharString index="75" raw="1">
            fc5d7e0a 0b  
          </CharString>
          <CharString index="76">
            232 -29 callsubr
            return
          </CharString>
          <CharString index="77">
            -38 callsubr
            hintmask 00001000
            -13 -8 -5 -8 -8 hvcurveto
            hintmask 00100000
            -25 -27 -23 -15 -12 hhcurveto
            -5 -9 8 10 -10 hvcurveto
            hintmask 01000100
            -25 callsubr
            hintmask 00100000
            -20 19 -20 20 vhcurveto
            hintmask 00010000
            13 8 6 7 8 hvcurveto
            hintmask 00000100
            25 27 23 16 12 hhcurveto
            5 9 -9 -9 10 hvcurveto
            hintmask 00100000
            -14 14 22 -22 36 hhcurveto
            28 29 16 18 24 hvcurveto
            hintmask 00010000
            21 16 30 25 19 vvcurveto
            endchar
          </CharString>
          <CharString index="78">
            537 rmoveto
            -102 callgsubr
            167 -82 callsubr
            return
          </CharString>
          <CharString index="79">
            18 callsubr
            204 hmoveto
            -49 callsubr
            endchar
          </CharString>
          <CharString index="80">
            42 callgsubr
            hintmask 00001000
            -13 -8 -5 -8 -8 hvcurveto
            hintmask 00100000
            -25 -27 -23 -15 -12 hhcurveto
            -5 -9 8 10 -10 hvcurveto
            hintmask 01000100
            -25 callsubr
            hintmask 00100000
            -20 19 -20 20 vhcurveto
            hintmask 00010000
            13 8 6 7 8 hvcurveto
            hintmask 00000100
            25 27 23 16 12 hhcurveto
            5 9 -9 -9 10 hvcurveto
            hintmask 00100000
            -14 14 22 -22 36 hhcurveto
            28 29 16 18 24 hvcurveto
            hintmask 00010000
            21 16 30 25 19 vvcurveto
            endchar
          </CharString>
          <CharString index="81">
            64 callgsubr
            712 38 rmoveto
            37 -30 2 -18 vhcurveto
            -45 hlineto
            -199 247 160 210 rlineto
            43 88 callsubr
            -30 1 -18 hvcurveto
            -152 186 callgsubr
            4 hlineto
            -104 -140 -112 140 rlineto
            19 135 callsubr
            -29 1 -20 hvcurveto
            -151 hlineto
            -18 -31 -2 -36 -37 30 -2 19 hvcurveto
            43 hlineto
            171 -211 -187 -246 rlineto
            -44 hlineto
            -18 -30 -2 -37 -36 31 -2 17 hvcurveto
            152 hlineto
            18 31 71 callgsubr
            -5 hlineto
            133 182 143 -182 rlineto
            -3 hlineto
            138 callsubr
            153 hlineto
            17 31 2 36 hvcurveto
            endchar
          </CharString>
          <CharString index="82">
            14 -14 -22 21 -36 hhcurveto
            -28 -29 -16 -18 -24 hvcurveto
            -36 callsubr
            return
          </CharString>
          <CharString index="83">
            hlineto
            -11 callgsubr
            return
          </CharString>
          <CharString index="84">
            0 79 callsubr
            hstem
            58 183 callsubr
            709 49 rmoveto
            25 vlineto
            17 -2 31 -34 -29 -6 -23 -22 vhcurveto
            -106 hlineto
            8 31 17 28 47 61 rrcurveto
            44 59 51 65 82 vvcurveto
            121 -141 98 -179 -184 -137 -99 -120 -82 51 -65 45 -60 vhcurveto
            45 -58 17 -30 9 -31 rrcurveto
            -106 hlineto
            22 -6 23 -29 -34 -2 -31 -17 vhcurveto
            -25 vlineto
            -40 9 -9 39 vhcurveto
            164 hlineto
            22 26 1 41 75 -52 73 -37 50 hvcurveto
            -38 52 -38 53 58 vvcurveto
            77 103 65 132 135 101 -66 -76 -40 -18 -37 -24 -37 vhcurveto
            -70 -98 -53 -74 -75 vvcurveto
            -41 26 -1 22 vhcurveto
            165 167 callsubr
          </CharString>
          <CharString index="85">
            302 17 callgsubr
            hstem
            40 80 vstem
            785 -25 callgsubr
            -67 -63 -36 -55 -38 hvcurveto
            59 -44 -65 32 -67 hhcurveto
            -121 -99 -100 -125 -126 99 -100 121 75 63 39 54 39 hvcurveto
            -39 29 62 -54 91 hhcurveto
            120 46 94 27 hvcurveto
            -81 146 rmoveto
            -215 hlineto
            65 17 52 42 52 hhcurveto
            61 26 -51 -56 7 hvcurveto
            -314 -36 rmoveto
            -84 -61 -70 -74 -74 -61 70 84 83 63 60 72 72 63 -60 -83 vhcurveto
            endchar
          </CharString>
          <CharString index="86">
            -194 40 callgsubr
            37 77 -10 77 hstemhm
            105 84 hintmask 11011000
            366 550 rmoveto
            65 -85 2 -16 -83 -77 -48 -90 vhcurveto
            -43 -33 67 callgsubr
            34 100 callgsubr
            195 1 callgsubr
            -67 return
          </CharString>
          <CharString index="87">
            323 268 rmoveto
            25 -21 2 -16 vhcurveto
            -54 295 hlineto
            12 0 20 -30 -12 -5 -4 -8 -9 vhcurveto
            -23 -24 -39 0 -15 hhcurveto
            -14 -2 -13 -7 -18 vvcurveto
            -25 25 -2 8 17 25 4 6 20 vhcurveto
            -248 -54 vlineto
            -16 -21 -2 -25 -24 22 -2 15 hvcurveto
            174 hlineto
            15 22 2 24 hvcurveto
            return
          </CharString>
          <CharString index="88">
            214 103 callgsubr
            hstemhm
            137 86 335 84 -55 83 hintmask 10111000
            670 171 rmoveto
            62 -52 62 -96 26 vhcurveto
            61 23 59 44 64 vvcurveto
            82 -99 77 -135 vhcurveto
            -314 27 callgsubr
            43 -457 -43 -44 callsubr
            341 hlineto
            hintmask 01110100
            138 97 84 87 hvcurveto
            -112 280 rmoveto
            -52 -74 -43 -109 vhcurveto
            -152 178 184 hlineto
            hintmask 11011000
            87 64 -38 -45 hvcurveto
            29 -278 rmoveto
            -57 -84 -39 -94 vhcurveto
            -186 202 201 hlineto
            hintmask 00000100
            91 72 -49 -57 hvcurveto
            endchar
          </CharString>
          <CharString index="89">
            rmoveto
            37 -28 1 -20 vhcurveto
            -193 hlineto
            -18 -30 -1 113 callsubr
            193 79 callgsubr
          </CharString>
          <CharString index="90">
            -53 callsubr
            -16 -29 -37 vhcurveto
            return
          </CharString>
          <CharString index="91">
            10 108 -21 437 -20 hstem
            221 82 vstem
            459 217 rmoveto
            18 -12 11 -5 4 vhcurveto
            -102 55 90 50 rlineto
            15 8 14 9 22 vvcurveto
            5 0 36 -50 vhcurveto
            -108 -63 2 102 rlineto
            11 -1 39 -40 -40 -1 -39 -11 vhcurveto
            2 -102 -90 53 rlineto
            10 -16 -3 0 -8 hhcurveto
            -25 -16 -22 -19 -22 12 -8 16 -8 hvcurveto
            91 -50 -90 -50 rlineto
            -15 -8 -14 -8 -23 vvcurveto
            -5 0 -36 50 vhcurveto
            108 63 -2 -102 rlineto
            -11 1 -39 40 40 1 39 11 vhcurveto
            -2 102 77 -46 rlineto
            -17 28 4 0 8 hhcurveto
            25 16 22 19 hvcurveto
            endchar
          </CharString>
          <CharString index="92">
            -305 -12 callgsubr
            return
          </CharString>
          <CharString index="93">
            11 12 0 18 -11 12 -47 51 -34 62 -22 66 rrcurveto
            13 -4 -11 9 -15 hhcurveto
            -15 hlineto
            -20 -15 -20 -20 5 hvcurveto
            20 -65 31 -63 42 -54 -42 -54 -31 -63 -20 -65 rrcurveto
            -20 -5 15 -20 20 hhcurveto
            15 hlineto
            15 11 9 13 4 hvcurveto
            22 66 34 61 47 52 rrcurveto
            return
          </CharString>
          <CharString index="94" raw="1">
            600677eb 1d0b  
          </CharString>
          <CharString index="95">
            116 -71 82 -80 -81 -70 -85 -112 -117 71 -82 80 81 70 85 113 vhcurveto
            return
          </CharString>
          <CharString index="96">
            312 rmoveto
            242 -114 68 -95 -113 -102 -85 -122 vhcurveto
            hintmask 1110001000000000
            -116 90 -90 111 46 47 13 31 41 vhcurveto
            -105 -16 -68 -82 -84 hhcurveto
            -7 -26 0 10 -18 hvcurveto
            hintmask 0100000100000000
            2 6 3 7 12 vvcurveto
            28 -21 24 -31 vhcurveto
            hintmask 1000010001000000
            -29 -23 -20 -35 -33 17 -76 133 132 125 125 198 hvcurveto
            -94 75 rmoveto
            hintmask 0010100100000000
            -50 -49 -50 -75 -73 -48 61 67 vhcurveto
            hintmask 0001000011000000
            79 64 51 66 38 25 -21 -17 14 vhcurveto
            29 -37 9 -13 -70 vvcurveto
            endchar
          </CharString>
          <CharString index="97">
            -1 18 hvcurveto
            195 -64 callgsubr
            -67 return
          </CharString>
          <CharString index="98">
            -61 callsubr
            -19 return
          </CharString>
          <CharString index="99">
            137 rmoveto
            242 -114 68 -95 -113 -102 -85 -122 vhcurveto
            hintmask 1110010000000000
            -116 90 -90 111 46 47 13 31 41 vhcurveto
            -105 -16 -68 -82 -84 hhcurveto
            -7 -26 0 10 -18 hvcurveto
            hintmask 1110101010000000
            2 6 3 7 12 vvcurveto
            28 -21 24 -31 -29 -23 -20 -35 -33 17 -76 133 132 125 125 198 vhcurveto
            -94 75 rmoveto
            -50 -49 -50 -75 -73 -48 61 67 vhcurveto
            hintmask 0001000110000000
            79 64 51 66 38 25 -21 -17 14 vhcurveto
            29 -37 9 -13 -70 vvcurveto
            endchar
          </CharString>
          <CharString index="100">
            39 9 11 38 hvcurveto
            return
          </CharString>
          <CharString index="101">
            17 rmoveto
            -43 callsubr
            return
          </CharString>
          <CharString index="102">
            rmoveto
            20 -19 20 -20 vhcurveto
            hintmask 00000100
            -13 -8 -5 -8 -8 hvcurveto
            hintmask 00010000
            -76 callgsubr
            hintmask 00000010
            14 -14 -22 21 -36 hhcurveto
            -28 -29 -16 -18 -24 hvcurveto
            hintmask 00000100
            -36 callsubr
            hintmask 00010000
            -20 19 -20 20 vhcurveto
            hintmask 00001000
            13 8 6 7 8 hvcurveto
            hintmask 00000010
            25 27 23 16 12 hhcurveto
            5 9 -9 -9 10 hvcurveto
            hintmask 00010000
            -14 14 22 -22 36 hhcurveto
            28 29 16 18 24 hvcurveto
            hintmask 00001000
            21 16 30 25 19 vvcurveto
            endchar
          </CharString>
          <CharString index="103">
            218 rmoveto
            62 -12 64 -42 45 vhcurveto
            44 -41 -60 14 -60 hhcurveto
            -60 -60 -14 -44 -41 hvcurveto
            -42 -45 -12 -64 -62 vvcurveto
            -62 12 -64 42 -45 vhcurveto
            -44 41 60 -14 60 hhcurveto
            60 60 14 44 41 hvcurveto
            42 45 12 64 62 vvcurveto
            -85 hmoveto
            -41 -6 -42 -27 -31 vhcurveto
            -27 -23 -37 -11 -37 hhcurveto
            -37 -37 11 27 -23 hvcurveto
            -27 31 -6 42 41 vvcurveto
            41 6 42 27 31 vhcurveto
            27 23 37 11 37 hhcurveto
            37 37 -11 -27 23 hvcurveto
            27 -31 6 -42 -41 vvcurveto
            endchar
          </CharString>
          <CharString index="104">
            49 rmoveto
            25 vlineto
            23 -1 25 -41 -38 -4 -17 -28 -1 vhcurveto
            -199 hlineto
            58 48 79 63 38 35 rrcurveto
            63 56 46 64 81 vvcurveto
            121 -102 77 -124 -120 -80 -85 -86 -43 33 -13 20 24 27 20 33 vhcurveto
            hintmask 01011000
            12 -4 13 -8 8 vhcurveto
            39 15 41 25 48 hhcurveto
            74 71 -41 -80 -66 -46 -54 -62 -52 hvcurveto
            -215 -180 rlineto
            hintmask 10101000
            -11 -10 -7 -6 -17 vvcurveto
            -38 29 -1 20 vhcurveto
            329 135 callgsubr
          </CharString>
          <CharString index="105">
            38 rmoveto
            -65 callgsubr
            vhcurveto
            -67 321 hlineto
            39 -8 10 -40 vhcurveto
            -27 hlineto
            -28 -6 -2 -23 -14 hvcurveto
            -222 -335 rlineto
            -10 -15 0 -2 -22 vvcurveto
            -40 11 -8 37 vhcurveto
            hintmask 11000100
            236 -99 -52 hlineto
            hintmask 10010000
            166 callgsubr
            hintmask 10000100
            -7 callgsubr
            hintmask 11001000
            -52 99 67 hlineto
            19 -8 callgsubr
            hvcurveto
            -188 39 rmoveto
            -191 hlineto
            191 288 rlineto
            endchar
          </CharString>
          <CharString index="106">
            -54 callsubr
            endchar
          </CharString>
          <CharString index="107">
            -43 166 hlineto
            214 291 rlineto
            42 39 callgsubr
            return
          </CharString>
          <CharString index="108">
            185 0 21 callsubr
            return
          </CharString>
          <CharString index="109">
            -159 hlineto
            194 callgsubr
            return
          </CharString>
          <CharString index="110">
            654 60 rmoveto
            30 28 -28 30 -10 10 -178 178 rcurveline
            178 178 10 10 28 30 -30 28 rlinecurve
            -28 30 -30 -28 -10 -10 -178 -178 rcurveline
            -178 178 -10 10 -30 28 -28 -30 rlinecurve
            -30 -28 28 -30 10 -10 178 -178 rcurveline
            -178 -178 -10 -10 -28 -30 30 -28 rlinecurve
            28 -30 30 28 10 10 178 178 rcurveline
            178 -178 10 -10 30 -28 28 30 rlinecurve
            return
          </CharString>
          <CharString index="111">
            202 rmoveto
            -65 callgsubr
            vhcurveto
            -67 333 hlineto
            39 -8 10 -40 vhcurveto
            -27 hlineto
            -28 -6 -2 -23 -14 hvcurveto
            -222 -347 rlineto
            -10 -15 0 -2 -22 vvcurveto
            -40 11 -8 37 vhcurveto
            236 -87 -52 hlineto
            166 callgsubr
            18 30 1 37 40 callsubr
            hvcurveto
            -52 87 67 hlineto
            19 -8 callgsubr
            hvcurveto
            -188 39 rmoveto
            -191 hlineto
            191 300 rlineto
            endchar
          </CharString>
          <CharString index="112">
            hlineto
            -18 -31 -1 -37 -37 57 callgsubr
            return
          </CharString>
          <CharString index="113">
            -24 callsubr
            37 return
          </CharString>
          <CharString index="114">
            61 38 13 44 29 vvcurveto
            67 -82 48 -99 -66 -116 -26 -96 vhcurveto
            -59 -43 vlineto
            98 callgsubr
            80 hlineto
            -7 callsubr
            440 vlineto
            16 0 10 28 12 vhcurveto
            9 21 23 4 24 hhcurveto
            54 43 -18 -21 -17 -21 -36 -68 -9 hvcurveto
            -45 -4 -20 -9 -29 vvcurveto
            -31 31 -7 0 vhcurveto
            return
          </CharString>
          <CharString index="115">
            194 vlineto
            17 -14 15 -17 vhcurveto
            -24 hlineto
            -16 -15 -15 -17 hvcurveto
            -194 vlineto
            -17 14 -55 17 vhcurveto
            24 hlineto
            16 15 55 17 hvcurveto
            return
          </CharString>
          <CharString index="116">
            rmoveto
            20 -19 20 -20 vhcurveto
            hintmask 0000000100000000
            -13 -8 -5 -8 -8 hvcurveto
            hintmask 0000010000000000
            -76 callgsubr
            hintmask 0000100010000000
            -25 callsubr
            hintmask 0000010000000000
            -20 19 -20 20 vhcurveto
            hintmask 0000001000000000
            13 8 6 7 8 hvcurveto
            hintmask 0000000010000000
            25 27 23 16 12 hhcurveto
            5 9 -9 -9 10 hvcurveto
            return
          </CharString>
          <CharString index="117">
            43 43 12 21 33 hvcurveto
            -15 4 15 -12 16 hhcurveto
            105 hlineto
            19 17 17 19 hvcurveto
            return
          </CharString>
          <CharString index="118">
            217 514 -86 callsubr
            return
          </CharString>
          <CharString index="119">
            39 rmoveto
            23 -16 15 -30 vhcurveto
            -81 328 hlineto
            hintmask 00100000
            25 -13 17 -26 -12 -14 -10 -9 -12 vhcurveto
            hintmask 01000000
            -26 -17 -33 -3 -31 -3 rrcurveto
            -11 hlineto
            hintmask 00100000
            -23 -17 -12 -23 -1 hvcurveto
            -3 vlineto
            hintmask 11010000
            -24 15 -15 30 27 30 7 7 31 vhcurveto
            -265 -82 vlineto
            -31 -14 -15 -23 -30 20 -9 25 hvcurveto
            253 hlineto
            27 15 15 24 hvcurveto
            endchar
          </CharString>
          <CharString index="120">
            173 hlineto
            -268 -292 rlineto
            -3 -7 -1 -12 -5 vvcurveto
            -42 24 -1 24 vhcurveto
            304 hlineto
            return
          </CharString>
          <CharString index="121">
            -5 -6 30 callsubr
            return
          </CharString>
          <CharString index="122">
            5 6 5 10 17 vvcurveto
            33 -27 19 -24 -18 -35 -10 -45 -85 85 -73 114 127 100 92 112 vhcurveto
            endchar
          </CharString>
          <CharString index="123">
            19 callsubr
            44 return
          </CharString>
          <CharString index="124">
            77 90 77 379 -20 return
          </CharString>
          <CharString index="125">
            572 rmoveto
            -49 callsubr
            return
          </CharString>
          <CharString index="126">
            hlineto
            -19 -29 -14 callgsubr
            return
          </CharString>
          <CharString index="127">
            163 vlineto
            21 1 22 -18 12 vhcurveto
            -17 12 -18 0 -17 -12 rrcurveto
            -18 -12 1 -22 -21 vvcurveto
            -163 vlineto
            -17 14 -15 17 vhcurveto
            24 hlineto
            16 15 15 17 hvcurveto
            return
          </CharString>
          <CharString index="128">
            77 201 77 179 77 return
          </CharString>
          <CharString index="129">
            -223 65 callsubr
            99 99 -95 41 callsubr
            return
          </CharString>
          <CharString index="130">
            96 80 30 48 60 11 -29 -50 vhcurveto
            -209 -43 vlineto
            58 callsubr
            162 hlineto
            96 80 30 48 60 11 -29 -50 vhcurveto
            -209 -44 vlineto
            -19 96 callgsubr
            29 -1 18 hvcurveto
            172 hlineto
            18 30 1 37 hvcurveto
            return
          </CharString>
          <CharString index="131">
            -48 17 callgsubr
            return
          </CharString>
          <CharString index="132">
            104 callgsubr
            75 85 -57 85 return
          </CharString>
          <CharString index="133">
            0 46 callgsubr
            return
          </CharString>
          <CharString index="134">
            -85 12 rmoveto
            -137 -116 -114 -148 -148 -116 115 136 124 117 104 147 147 117 -104 -124 vhcurveto
            return
          </CharString>
          <CharString index="135">
            41 -231 hlineto
            -106 71 -28 49 70 59 56 80 vhcurveto
            return
          </CharString>
          <CharString index="136">
            68 36 callgsubr
            return
          </CharString>
          <CharString index="137">
            77 -71 77 291 77 return
          </CharString>
          <CharString index="138">
            55 hhcurveto
            120 106 97 128 hvcurveto
            -83 hmoveto
            -86 -69 -62 -77 -76 -41 77 50 vhcurveto
            65 vlineto
            57 63 45 63 80 57 -70 -76 vhcurveto
            endchar
          </CharString>
          <CharString index="139">
            -5 -6 -7 -2 -7 hhcurveto
            -13 -21 11 18 36 17 32 26 21 hvcurveto
            181 17 133 139 158 vvcurveto
            27 callsubr
            return
          </CharString>
          <CharString index="140">
            rmoveto
            -198 36 hlineto
            18 1 16 45 19 vhcurveto
            15 35 39 0 21 hhcurveto
            16 11 0 -1 16 hvcurveto
            1 -9 4 -10 9 -8 rrcurveto
            endchar
          </CharString>
          <CharString index="141">
            -54 -50 -75 -77 -76 -60 67 80 83 68 64 79 63 53 -48 -53 vhcurveto
            return
          </CharString>
          <CharString index="142">
            -71 -39 -51 -40 -41 -38 52 69 70 39 51 40 41 38 -52 -68 vhcurveto
            return
          </CharString>
          <CharString index="143">
            -6 1 -31 34 -8 return
          </CharString>
          <CharString index="144">
            0 77 457 51 callsubr
            return
          </CharString>
          <CharString index="145">
            48 callsubr
            80 46 callgsubr
            return
          </CharString>
          <CharString index="146">
            302 22 callgsubr
            return
          </CharString>
          <CharString index="147">
            38 -29 1 -19 return
          </CharString>
          <CharString index="148">
            85 hintmask 01101000
            -72 callsubr
            return
          </CharString>
          <CharString index="149">
            488 219 rmoveto
            123 -100 103 -126 -126 -100 -103 -123 -108 75 -89 102 -23 vhcurveto
            -27 -26 -20 -35 -34 3 callgsubr
            -5 194 callsubr
            return
          </CharString>
          <CharString index="150">
            -7 -2 -6 hhcurveto
            -14 -20 11 18 return
          </CharString>
          <CharString index="151">
            30 -16 callgsubr
            return
          </CharString>
          <CharString index="152">
            -21 84 72 13 72 hstemhm
            return
          </CharString>
          <CharString index="153">
            rmoveto
            41 -42 2 -17 vhcurveto
            -580 hlineto
            -17 -42 -2 -41 -42 38 -1 15 hvcurveto
            592 hlineto
            15 38 1 42 hvcurveto
            return
          </CharString>
          <CharString index="154">
            -20 25 callsubr
            return
          </CharString>
          <CharString index="155">
            -194 114 return
          </CharString>
          <CharString index="156">
            23 -20 21 -23 vhcurveto
            0 -5 0 -4 -1 vhcurveto
            -10 -2 -13 -10 -10 -7 -46 -38 rcurveline
            -14 -10 -18 -14 -18 vvcurveto
            -20 25 -27 20 14 15 13 9 11 vhcurveto
            47 37 rlineto
            14 12 17 15 17 vvcurveto
            return
          </CharString>
          <CharString index="157">
            -44 -75 callgsubr
            172 hlineto
            18 30 143 callsubr
            -43 return
          </CharString>
          <CharString index="158">
            77 32 -40 callgsubr
            return
          </CharString>
          <CharString index="159">
            -5 -6 43 callsubr
            39 19 35 31 20 hvcurveto
            111 14 86 93 116 vvcurveto
            -84 6 rmoveto
            -83 -63 -71 -79 -80 -62 71 83 83 66 60 76 76 66 -60 -83 vhcurveto
            return
          </CharString>
          <CharString index="160">
            -223 40 callgsubr
            return
          </CharString>
          <CharString index="161">
            77 282 77 return
          </CharString>
          <CharString index="162">
            107 callgsubr
            -72 1 rmoveto
            35 callsubr
            return
          </CharString>
          <CharString index="163">
            10 59 callgsubr
            return
          </CharString>
          <CharString index="164">
            -5 -7 43 callsubr
            39 11 26 48 28 hvcurveto
            92 20 44 66 34 vvcurveto
            118 callgsubr
            return
          </CharString>
          <CharString index="165">
            -20 96 callgsubr
            29 -1 19 hvcurveto
            171 -52 callgsubr
            return
          </CharString>
          <CharString index="166">
            -11 79 callsubr
            return
          </CharString>
          <CharString index="167">
            -21 148 -20 return
          </CharString>
          <CharString index="168">
            hintmask 00010000
            62 49 5 28 vhcurveto
            -15 4 14 -27 31 hhcurveto
            hintmask 00100000
            24 27 19 33 hvcurveto
            endchar
          </CharString>
          <CharString index="169">
            514 rmoveto
            -35 callsubr
            return
          </CharString>
          <CharString index="170">
            -165 26 callsubr
            return
          </CharString>
          <CharString index="171">
            hlineto
            18 30 2 36 hvcurveto
            return
          </CharString>
          <CharString index="172">
            140 callsubr
            hstemhm
            return
          </CharString>
          <CharString index="173">
            302 -11 182 callgsubr
            return
          </CharString>
          <CharString index="174">
            214 -291 rlineto
            -166 vlineto
            return
          </CharString>
          <CharString index="175">
            77 hstem
            138 86 420 83 vstem
            87 callgsubr
            return
          </CharString>
          <CharString index="176">
            855 38 rmoveto
            -65 callgsubr
            vhcurveto
            -44 214 hlineto
            104 -55 47 -94 -53 -54 -17 -46 -47 vhcurveto
            49 -28 -51 14 -51 hhcurveto
            -49 -46 -15 -31 -39 hvcurveto
            return
          </CharString>
          <CharString index="177">
            0 65 callgsubr
            return
          </CharString>
          <CharString index="178">
            hstemhm
            52 callgsubr
            return
          </CharString>
          <CharString index="179">
            107 116 callgsubr
            return
          </CharString>
          <CharString index="180">
            -70 -39 -51 -40 -41 -38 52 68 71 39 51 40 41 38 -52 -69 vhcurveto
            endchar
          </CharString>
          <CharString index="181">
            vlineto
            23 -1 26 return
          </CharString>
          <CharString index="182">
            vlineto
            37 53 callgsubr
            -81 -74 callsubr
            return
          </CharString>
          <CharString index="183">
            hstemhm
            46 83 198 86 return
          </CharString>
          <CharString index="184">
            -197 70 -70 77 return
          </CharString>
          <CharString index="185">
            8 callsubr
            endchar
          </CharString>
          <CharString index="186">
            77 468 77 return
          </CharString>
          <CharString index="187">
            68 -6 78 -72 77 280 78 -77 77 return
          </CharString>
          <CharString index="188">
            18 -8 callgsubr
            return
          </CharString>
          <CharString index="189">
            -27 -18 -20 -24 return
          </CharString>
          <CharString index="190">
            1 callsubr
            53 -21 return
          </CharString>
          <CharString index="191">
            hstemhm
            86 callsubr
            return
          </CharString>
          <CharString index="192">
            -27 -26 -21 -35 -35 87 callsubr
            9 11 -4 27 -12 10 -12 7 -27 159 callgsubr
            return
          </CharString>
          <CharString index="193">
            59 85 528 85 return
          </CharString>
          <CharString index="194">
            156 callgsubr
            40 39 26 35 25 vhcurveto
            return
          </CharString>
          <CharString index="195">
            hlineto
            105 callgsubr
            return
          </CharString>
          <CharString index="196">
            -282 -45 callgsubr
            return
          </CharString>
          <CharString index="197">
            -42 hlineto
            -68 callgsubr
            70 vlineto
            37 return
          </CharString>
          <CharString index="198">
            -44 44 callgsubr
            -37 29 -1 18 hvcurveto
            172 -52 callgsubr
            return
          </CharString>
          <CharString index="199">
            vvcurveto
            46 -1 14 -47 -35 -12 -6 -43 vhcurveto
            -16 vlineto
            -28 -2 -63 -74 -53 vhcurveto
            -37 -26 -18 -33 -41 vvcurveto
            return
          </CharString>
          <CharString index="200">
            85 -71 85 244 85 -71 85 hintmask 00101100
            return
          </CharString>
          <CharString index="201">
            598 146 callsubr
            return
          </CharString>
          <CharString index="202">
            106 callsubr
            92 77 return
          </CharString>
          <CharString index="203">
            rmoveto
            -23 callgsubr
            vhcurveto
            hintmask 10001000
            -35 -23 -28 -29 -59 callgsubr
            28 29 hvcurveto
            hintmask 00010000
            return
          </CharString>
          <CharString index="204">
            vstem
            551 236 rmoveto
            80 -63 63 -80 -80 -63 -63 -80 -80 63 -63 80 80 63 63 80 vhcurveto
            return
          </CharString>
          <CharString index="205">
            vvcurveto
            107 callsubr
          </CharString>
          <CharString index="206">
            hstemhm
            137 85 70 115 -9 184 callsubr
            return
          </CharString>
          <CharString index="207">
            39 85 212 85 212 85 return
          </CharString>
          <CharString index="208">
            56 callsubr
            54 -21 return
          </CharString>
          <CharString index="209">
            282 198 126 callsubr
            return
          </CharString>
          <CharString index="210">
            211 rmoveto
            20 -19 20 -20 vhcurveto
            return
          </CharString>
          <CharString index="211">
            -20 69 callgsubr
            return
          </CharString>
          <CharString index="212">
            74 callsubr
            -41 return
          </CharString>
          <CharString index="213">
            77 288 77 return
          </CharString>
          <CharString index="214">
            -84 6 rmoveto
            -83 -63 -71 -79 -80 -62 71 83 83 66 60 76 76 66 -60 -83 vhcurveto
            endchar
          </CharString>
          <CharString index="215">
            -18 -52 callsubr
            19 hvcurveto
            172 hlineto
            return
          </CharString>
          <CharString index="216">
            39 -221 76 77 77 350 77 return
          </CharString>
          <CharString index="217">
            30 callgsubr
            61 -21 return
          </CharString>
          <CharString index="218">
            114 hstem
            88 115 vstem
            203 return
          </CharString>
          <CharString index="219">
            -11 77 258 78 143 77 hstemhm
            return
          </CharString>
          <CharString index="220">
            -36 -38 28 -1 20 hvcurveto
            return
          </CharString>
          <CharString index="221">
            -60 -21 773 -20 hstem
            return
          </CharString>
          <CharString index="222">
            46 callgsubr
            hstemhm
            return
          </CharString>
          <CharString index="223">
            67 71 -21 -58 -23 18 -20 24 24 19 20 23 102 -108 62 -115 -117 return
          </CharString>
          <CharString index="224">
            rmoveto
            37 -29 2 return
          </CharString>
          <CharString index="225">
            85 -42 84 hintmask 00000001
            425 49 rmoveto
            56 vlineto
            return
          </CharString>
          <CharString index="226">
            -20 77 callgsubr
            return
          </CharString>
          <CharString index="227" raw="1">
            f7120a78 0b  
          </CharString>
          <CharString index="228">
            185 callgsubr
            vhcurveto
            return
          </CharString>
          <CharString index="229">
            185 77 callsubr
            120 77 201 77 137 70 -28 77 return
          </CharString>
          <CharString index="230">
            85 -80 85 -85 94 115 94 return
          </CharString>
          <CharString index="231">
            159 callsubr
            30 -2 return
          </CharString>
          <CharString index="232">
            -29 -1 -38 -36 29 -2 return
          </CharString>
          <CharString index="233">
            -282 -44 hlineto
            return
          </CharString>
          <CharString index="234">
            -25 -17 -32 -39 3 callgsubr
            return
          </CharString>
          <CharString index="235">
            127 64 callgsubr
            168 callsubr
            vstem
            598 return
          </CharString>
          <CharString index="236">
            140 callsubr
            hstem
            return
          </CharString>
          <CharString index="237">
            -37 44 callsubr
            return
          </CharString>
          <CharString index="238">
            27 -11 10 -12 7 return
          </CharString>
          <CharString index="239">
            -21 147 -20 return
          </CharString>
          <CharString index="240">
            -11 77 468 51 callsubr
            138 return
          </CharString>
          <CharString index="241">
            21 -1 3 -8 10 vhcurveto
            11 -8 -14 8 -16 hhcurveto
            -25 -23 -17 -32 return
          </CharString>
          <CharString index="242">
            30 2 36 38 return
          </CharString>
          <CharString index="243">
            85 198 84 vstem
            854 38 rmoveto
            -65 callgsubr
            vhcurveto
            -44 return
          </CharString>
          <CharString index="244">
            22 callgsubr
            21 -40 callgsubr
            59 return
          </CharString>
          <CharString index="245">
            -19 -29 -50 callsubr
            return
          </CharString>
          <CharString index="246">
            26 callsubr
            149 -20 hstemhm
            return
          </CharString>
          <CharString index="247">
            -185 -21 206 46 callgsubr
            return
          </CharString>
          <CharString index="248">
            72 0 74 -9 72 0 74 -66 72 return
          </CharString>
          <CharString index="249">
            105 62 47 callgsubr
            return
          </CharString>
          <CharString index="250">
            2 36 -35 callgsubr
            return
          </CharString>
          <CharString index="251">
            vlineto
            37 -7 12 -40 vhcurveto
            return
          </CharString>
          <CharString index="252">
            10 -6 78 295 77 return
          </CharString>
          <CharString index="253">
            49 rmoveto
            86 vlineto
            return
          </CharString>
          <CharString index="254">
            46 hlineto
            15 22 2 24 hvcurveto
            -140 28 rmoveto
            -129 hlineto
            return
          </CharString>
          <CharString index="255">
            -251 vlineto
            -14 -41 -2 -41 -41 41 -2 14 hvcurveto
            251 return
          </CharString>
          <CharString index="256">
            77 178 77 return
          </CharString>
          <CharString index="257">
            535 76 -21 208 86 207 -20 hstem
            986 return
          </CharString>
          <CharString index="258">
            148 -20 129 callgsubr
            return
          </CharString>
          <CharString index="259">
            -282 -43 -94 callgsubr
            return
          </CharString>
          <CharString index="260">
            96 0 45 86 43 263 43 86 45 hstem
            0 45 return
          </CharString>
          <CharString index="261">
            166 hlineto
            148 106 -111 -122 hvcurveto
            endchar
          </CharString>
          <CharString index="262">
            26 -41 -42 -1 -25 -24 vhcurveto
            -58 return
          </CharString>
          <CharString index="263">
            77 -59 77 0 77 return
          </CharString>
          <CharString index="264">
            hstemhm
            19 102 -12 102 return
          </CharString>
          <CharString index="265">
            80 47 -20 hstemhm
            return
          </CharString>
          <CharString index="266">
            -30 -2 -36 -37 return
          </CharString>
          <CharString index="267">
            77 190 77 return
          </CharString>
          <CharString index="268">
            -147 -169 -173 153 -144 196 return
          </CharString>
          <CharString index="269">
            80 47 80 -40 -40 callgsubr
            return
          </CharString>
          <CharString index="270">
            48 38 48 hstem
            -377 75 94 75 vstem
            -208 return
          </CharString>
          <CharString index="271">
            -14 callgsubr
            44 126 callsubr
            return
          </CharString>
          <CharString index="272">
            rmoveto
            16 -7 26 -38 -21 -29 -8 -8 -27 vhcurveto
            -7 return
          </CharString>
          <CharString index="273">
            148 -20 140 callgsubr
            return
          </CharString>
          <CharString index="274">
            hlineto
            39 8 11 38 hvcurveto
            endchar
          </CharString>
          <CharString index="275">
            136 85 292 85 return
          </CharString>
          <CharString index="276">
            11 hvcurveto
            96 hlineto
            11 18 return
          </CharString>
          <CharString index="277">
            -7 11 -39 hhcurveto
            return
          </CharString>
          <CharString index="278">
            -42 -1 -24 -25 return
          </CharString>
          <CharString index="279">
            hstemhm
            59 85 181 75 43 85 144 85 return
          </CharString>
          <CharString index="280">
            -81 77 242 77 -19 77 242 77 hstemhm
            return
          </CharString>
          <CharString index="281">
            497 179 rmoveto
            47 -14 97 -88 68 vhcurveto
            return
          </CharString>
          <CharString index="282">
            -5 -7 -6 -2 -7 hhcurveto
            -14 -20 11 18 hvcurveto
            return
          </CharString>
          <CharString index="283">
            -6 189 callsubr
            return
          </CharString>
          <CharString index="284">
            99 98 -37 -58 hvcurveto
            hintmask 11101000
            return
          </CharString>
          <CharString index="285">
            70 144 callsubr
            return
          </CharString>
          <CharString index="286">
            -21 200 72 13 72 hstemhm
            return
          </CharString>
          <CharString index="287">
            hstemhm
            59 85 207 115 return
          </CharString>
          <CharString index="288">
            hstemhm
            68 183 callgsubr
            return
          </CharString>
          <CharString index="289">
            23 -1 25 -41 vhcurveto
            return
          </CharString>
          <CharString index="290">
            85 471 85 vstem
            return
          </CharString>
          <CharString index="291">
            84 75 85 -57 85 return
          </CharString>
          <CharString index="292">
            10 91 callgsubr
            74 callgsubr
            return
          </CharString>
          <CharString index="293">
            hlineto
            22 17 17 22 21 -17 17 -22 hvcurveto
            return
          </CharString>
          <CharString index="294">
            hlineto
            -22 -17 -17 -22 -21 17 -17 22 hvcurveto
            return
          </CharString>
          <CharString index="295">
            105 hstem
            -391 105 62 105 vstem
            -286 return
          </CharString>
          <CharString index="296">
            74 callgsubr
            53 47 callgsubr
            return
          </CharString>
          <CharString index="297">
            114 hstem
            -313 115 vstem
            -198 return
          </CharString>
          <CharString index="298">
            vlineto
            -20 96 callgsubr
            29 -1 19 hvcurveto
            return
          </CharString>
          <CharString index="299">
            vlineto
            -22 18 -17 21 21 18 17 22 vhcurveto
            return
          </CharString>
          <CharString index="300">
            vlineto
            -18 -52 callsubr
            19 hvcurveto
            return
          </CharString>
          <CharString index="301">
            131 callsubr
            -28 159 callgsubr
            return
          </CharString>
          <CharString index="302">
            vvcurveto
            -46 38 -55 return
          </CharString>
        <CharString name=".notdef">
          -235 endchar
        </CharString>
        <CharString name="A">
          30 callgsubr
          hstem
          -106 callgsubr
          endchar
        </CharString>
        <CharString name="AE">
          -39 callsubr
        </CharString>
        <CharString name="AE.dup">
          -39 callsubr
        </CharString>
        <CharString name="AEacute">
          418 0 77 101 77 23 77 179 120 callgsubr
          251 85 124 85 125 85 32 84 -56 84 hintmask 1011000110100000
          899 146 callsubr
          23 0 155 callsubr
          -270 201 125 vlineto
          -41 1 4 -15 38 hhcurveto
          41 1 26 23 hvcurveto
          90 105 callsubr
          -38 -4 -15 -40 -1 vhcurveto
          -125 179 hlineto
          hintmask 1101001101000000
          242 143 callgsubr
          0 25 24 vhcurveto
          178 callsubr
          -491 hlineto
          -18 -30 -1 -38 -36 31 -2 17 hvcurveto
          3 hlineto
          -200 -457 rlineto
          -40 hlineto
          -18 -30 -2 -36 -38 29 -1 19 hvcurveto
          155 51 callgsubr
          -23 hlineto
          44 101 rlineto
          188 -101 -20 hlineto
          -19 -30 -2 -37 -36 57 callgsubr
          412 hlineto
          hintmask 0101000000100000
          39 8 11 38 hvcurveto
          -441 206 rmoveto
          -155 hlineto
          123 279 rlineto
          32 hlineto
          hintmask 0000110000000000
          121 224 -107 callgsubr
        </CharString>
        <CharString name="Aacute">
          30 callgsubr
          71 47 callgsubr
          hintmask 11100000
          -106 callgsubr
          hintmask 00011000
          114 232 -107 callgsubr
        </CharString>
        <CharString name="Abreve">
          30 callgsubr
          50 158 callsubr
          hintmask 11100000
          -106 callgsubr
          hintmask 00011000
          182 215 -96 callsubr
        </CharString>
        <CharString name="Abreveacute">
          30 callgsubr
          50 80 215 -20 hstemhm
          hintmask 11100000
          -106 callgsubr
          hintmask 00011000
          182 215 -57 callsubr
        </CharString>
        <CharString name="Abrevedotbelow">
          48 callsubr
          80 17 callsubr
          50 158 callsubr
          321 115 hintmask 01111100
          -106 callgsubr
          182 215 -106 callsubr
          hintmask 10000010
          -124 -878 -89 callgsubr
        </CharString>
        <CharString name="Abrevegrave">
          30 callgsubr
          50 158 callsubr
          hintmask 11100000
          -106 callgsubr
          hintmask 00011000
          182 215 -56 callgsubr
        </CharString>
        <CharString name="Abrevehookabove">
          30 callgsubr
          50 178 callgsubr
          200 141 callsubr
          hintmask 1110000000000000
          -106 callgsubr
          hintmask 0001011001000000
          182 215 -106 callsubr
          -71 193 rmoveto
          54 -48 33 -65 -53 -51 -32 -55 -18 13 -19 24 vhcurveto
          hintmask 0000110100100000
          80 callgsubr
          hintmask 0000100010100000
          -99 callgsubr
        </CharString>
        <CharString name="Abrevetilde">
          30 callgsubr
          50 162 callsubr
          hintmask 1110000000000000
          -106 callgsubr
          hintmask 0001100010000000
          182 215 rmoveto
          24 -14 15 -25 -30 -5 -20 -15 -3 vhcurveto
          -12 -4 -62 0 -37 hhcurveto
          -38 -61 0 12 -4 hvcurveto
          15 -3 -5 20 -30 hhcurveto
          -24 -15 -15 -24 -84 112 -4 68 68 112 4 84 hvcurveto
          -1 173 -76 callsubr
        </CharString>
        <CharString name="Acaron">
          30 callgsubr
          157 -20 -43 callgsubr
          154 196 -98 callgsubr
        </CharString>
        <CharString name="Acircumflex">
          110 callsubr
          -43 callgsubr
          154 156 -107 callsubr
          endchar
        </CharString>
        <CharString name="Acircumflexacute">
          110 callsubr
          284 -20 hstemhm
          hintmask 11100000
          -106 callgsubr
          hintmask 00011000
          154 156 -89 callsubr
        </CharString>
        <CharString name="Acircumflexdotbelow">
          48 callsubr
          80 17 callsubr
          61 -21 hstemhm
          321 115 hintmask 01111000
          -106 callgsubr
          154 156 -107 callsubr
          hintmask 10000100
          -96 -819 -89 callgsubr
        </CharString>
        <CharString name="Acircumflexgrave">
          110 callsubr
          -43 callgsubr
          154 156 -88 callgsubr
        </CharString>
        <CharString name="Acircumflexhookabove">
          110 callsubr
          200 72 13 72 hstemhm
          380 60 callgsubr
          hintmask 1110000000000000
          -106 callgsubr
          hintmask 0001111010000000
          154 156 -107 callsubr
          65 231 -95 callsubr
          hintmask 0000100110000000
          -99 callgsubr
        </CharString>
        <CharString name="Acircumflextilde">
          0 77 90 77 379 -20 61 99 callgsubr
          hintmask 1110000000000000
          -106 callgsubr
          hintmask 0001100010000000
          154 156 rmoveto
          14 -8 14 -17 6 vhcurveto
          -114 42 -8 2 -9 0 -8 -2 rlinecurve
          -114 -42 rlineto
          -18 -7 -8 -14 -14 vvcurveto
          -18 15 -20 21 4 4 0 2 5 vhcurveto
          103 31 103 -31 rlineto
          -2 5 4 0 4 hhcurveto
          22 14 20 19 hvcurveto
          27 211 -76 callsubr
        </CharString>
        <CharString name="Adblgrave">
          30 callgsubr
          71 132 callsubr
          hstemhm
          hintmask 11100000
          -106 callgsubr
          hintmask 00011000
          143 173 -104 callsubr
        </CharString>
        <CharString name="Adieresis">
          30 callgsubr
          40 105 hstemhm
          229 105 92 105 hintmask 11100000
          -106 callgsubr
          hintmask 00011100
          -44 169 -62 callgsubr
        </CharString>
        <CharString name="Adotbelow">
          48 callsubr
          80 17 callsubr
          hstemhm
          321 115 hintmask 01110000
          -106 callgsubr
          hintmask 10001000
          58 -663 -89 callgsubr
        </CharString>
        <CharString name="Agrave">
          30 callgsubr
          71 47 callgsubr
          hintmask 11100000
          -106 callgsubr
          hintmask 00011000
          113 175 -102 callsubr
        </CharString>
        <CharString name="Ahookabove">
          30 callgsubr
          72 45 callsubr
          271 60 callgsubr
          hintmask 1110000000000000
          -106 callgsubr
          hintmask 0000111010000000
          110 282 -95 callsubr
          hintmask 0001100110000000
          -99 callgsubr
        </CharString>
        <CharString name="Alpha">
          30 callgsubr
          hstem
          -106 callgsubr
          endchar
        </CharString>
        <CharString name="Amacron">
          30 callgsubr
          60 79 -43 callgsubr
          194 176 -87 callgsubr
        </CharString>
        <CharString name="Aogonek">
          77 callsubr
          120 17 callsubr
          hstemhm
          218 75 171 75 -54 75 hintmask 00111110
          715 38 rmoveto
          -65 callgsubr
          vhcurveto
          -38 hlineto
          -182 507 rlineto
          38 -13 -23 1 -23 hhcurveto
          -19 hlineto
          -21 -25 -1 -37 -13 hvcurveto
          -182 -508 rlineto
          -38 hlineto
          -32 callgsubr
          154 6 callsubr
          -31 2 -18 hvcurveto
          -26 hlineto
          32 90 rlineto
          257 hlineto
          32 -90 rlineto
          -26 hlineto
          -18 -31 -2 -36 -38 31 -1 18 hvcurveto
          17 hlineto
          hintmask 01000001
          86 callgsubr
          hintmask 10110001
          -5 -6 43 callsubr
          38 11 32 47 28 hvcurveto
          49 -69 callgsubr
          -236 206 rmoveto
          -201 hlineto
          100 282 rlineto
          endchar
        </CharString>
        <CharString name="Aogonekacute">
          77 callsubr
          120 17 callsubr
          71 47 callgsubr
          218 75 171 75 -54 75 hintmask 0011100110000000
          715 38 rmoveto
          -65 callgsubr
          vhcurveto
          -38 hlineto
          -182 507 rlineto
          38 -13 -23 1 -23 hhcurveto
          -19 hlineto
          -21 -25 -1 -37 -13 hvcurveto
          -182 -508 rlineto
          -38 hlineto
          -32 callgsubr
          154 6 callsubr
          -31 2 -18 hvcurveto
          -26 hlineto
          32 90 rlineto
          257 hlineto
          32 -90 rlineto
          -26 hlineto
          -18 -31 -2 -36 -38 31 -1 18 hvcurveto
          17 hlineto
          hintmask 0100000001000000
          86 callgsubr
          hintmask 1011000001000000
          -5 -6 43 callsubr
          38 11 32 47 28 hvcurveto
          49 -69 callgsubr
          -236 206 rmoveto
          -201 hlineto
          100 282 rlineto
          hintmask 0000011000000000
          114 232 -107 callgsubr
        </CharString>
        <CharString name="Aring">
          0 77 90 77 379 48 38 48 hstemhm
          257 75 94 75 hintmask 11100000
          -106 callgsubr
          hintmask 00111100
          48 164 rmoveto
          -14 -26 -5 -21 -24 -23 6 13 13 26 6 -1 callsubr
        </CharString>
        <CharString name="Aringacute">
          0 77 90 77 379 48 38 48 20 48 100 -20 hstemhm
          257 75 94 75 hintmask 11100000
          -106 callgsubr
          hintmask 00111111
          48 164 rmoveto
          -14 -26 -5 -21 -24 -23 6 13 13 26 6 -54 callsubr
          -10 192 -107 callgsubr
        </CharString>
        <CharString name="Atilde">
          30 callgsubr
          40 -40 callgsubr
          hintmask 11100000
          -106 callgsubr
          hintmask 00000010
          181 211 -5 callsubr
        </CharString>
        <CharString name="B">
          -19 callsubr
        </CharString>
        <CharString name="Beta">
          -19 callsubr
        </CharString>
        <CharString name="C">
          168 callgsubr
          58 183 callsubr
          -79 callgsubr
          -167 146 -150 205 181 109 80 103 hvcurveto
          endchar
        </CharString>
        <CharString name="Cacute">
          22 callgsubr
          52 47 callgsubr
          58 85 471 85 hintmask 11001100
          -79 callgsubr
          -167 146 -150 205 181 109 80 103 hvcurveto
          hintmask 00110000
          -169 586 -107 callgsubr
        </CharString>
        <CharString name="Ccaron">
          22 callgsubr
          138 -20 hstemhm
          58 85 471 85 hintmask 11011000
          -79 callgsubr
          -167 146 -150 205 181 109 80 103 hvcurveto
          hintmask 00100000
          -129 550 -98 callgsubr
        </CharString>
        <CharString name="Ccedilla">
          -202 78 29 78 -77 77 6 61 callgsubr
          hstemhm
          402 85 0 84 0 85 cntrmask 00000111
          hintmask 10111111
          -79 callgsubr
          -165 142 -148 202 -4 hvcurveto
          -6 vlineto
          -21 1 -24 37 -2 vhcurveto
          2 callgsubr
          vhcurveto
          hintmask 01000111
          85 130 4 103 44 -27 31 -37 18 hvcurveto
          122 23 70 68 83 vvcurveto
          endchar
        </CharString>
        <CharString name="Ccircumflex">
          22 callgsubr
          42 -21 hstemhm
          58 85 471 85 hintmask 11011000
          -79 callgsubr
          -167 146 -150 205 181 109 80 103 hvcurveto
          hintmask 00100000
          -129 510 -107 callsubr
          endchar
        </CharString>
        <CharString name="Cdotaccent">
          22 callgsubr
          32 114 hstemhm
          58 85 216 115 140 85 hintmask 11010100
          -79 callgsubr
          -167 146 -150 205 181 109 80 103 hvcurveto
          hintmask 00101000
          -225 539 -65 callsubr
        </CharString>
        <CharString name="Chi">
          -26 callsubr
        </CharString>
        <CharString name="D">
          273 0 77 457 77 hstem
          138 86 420 83 vstem
          -47 callsubr
          endchar
        </CharString>
        <CharString name="Dcaron">
          273 139 callsubr
          138 86 420 83 hintmask 11011000
          -47 callsubr
          hintmask 00100000
          -192 421 -98 callgsubr
        </CharString>
        <CharString name="Dcroat">
          -18 callgsubr
        </CharString>
        <CharString name="Ddotbelow">
          273 38 callsubr
          hstemhm
          138 86 17 115 288 83 hintmask 01110100
          -47 callsubr
          hintmask 10001000
          -288 -438 -89 callgsubr
        </CharString>
        <CharString name="Delta">
          360 0 83 540 -20 hstem
          815 27 rmoveto
          4 0 5 -7 12 vhcurveto
          -293 536 rlineto
          29 -16 -12 10 -39 hhcurveto
          -22 hlineto
          -27 -19 -3 -33 -19 hvcurveto
          -294 -537 rlineto
          -8 -14 0 -5 -4 vvcurveto
          -24 21 -3 19 vhcurveto
          676 hlineto
          19 21 3 24 hvcurveto
          -123 56 rmoveto
          -510 hlineto
          255 467 rlineto
          endchar
        </CharString>
        <CharString name="Dlinebelow">
          273 -189 79 110 115 callsubr
          138 86 420 83 hintmask 01111000
          -47 callsubr
          hintmask 10000000
          -152 -451 -87 callgsubr
        </CharString>
        <CharString name="E">
          1 callsubr
          25 callsubr
          hintmask 11111010
          -100 callgsubr
          hintmask 10110100
          -97 callgsubr
          hintmask 00000010
          -7 callsubr
          endchar
        </CharString>
        <CharString name="Eacute">
          1 callsubr
          63 -21 148 -68 callsubr
          hintmask 0001101000000000
          -207 709 -107 callgsubr
        </CharString>
        <CharString name="Ebreve">
          1 callsubr
          42 80 47 -68 callsubr
          hintmask 0001100000000000
          -139 692 -96 callsubr
        </CharString>
        <CharString name="Ecaron">
          1 callsubr
          149 -20 -49 callgsubr
          -167 673 -98 callgsubr
        </CharString>
        <CharString name="Ecircumflex">
          83 callsubr
          -49 callgsubr
          -167 633 -107 callsubr
          endchar
        </CharString>
        <CharString name="Ecircumflexacute">
          83 callsubr
          284 -68 callsubr
          hintmask 0001101000000000
          -167 633 -89 callsubr
        </CharString>
        <CharString name="Ecircumflexdotbelow">
          185 48 callsubr
          80 21 callsubr
          53 -21 99 callsubr
          hintmask 0111010101000000
          -100 callgsubr
          hintmask 0101010010000000
          -97 callgsubr
          hintmask 0000100001000000
          -7 callsubr
          -167 633 -107 callsubr
          hintmask 1000001000000000
          -96 -819 -89 callgsubr
        </CharString>
        <CharString name="Ecircumflexgrave">
          83 callsubr
          -49 callgsubr
          -167 633 -88 callgsubr
        </CharString>
        <CharString name="Ecircumflexhookabove">
          83 callsubr
          200 72 13 72 hstemhm
          137 85 129 74 -27 84 -66 72 8 72 -11 85 -57 85 hintmask 1110001010001000
          -100 callgsubr
          hintmask 1010001000010000
          -97 callgsubr
          hintmask 0000000000001000
          -7 callsubr
          hintmask 0001110100100000
          -167 633 -107 callsubr
          65 231 -95 callsubr
          hintmask 0000100001100000
          -99 callgsubr
        </CharString>
        <CharString name="Ecircumflextilde">
          185 0 77 201 77 179 77 53 99 callgsubr
          137 85 176 84 75 85 -57 85 hintmask 1110000001101000
          -100 callgsubr
          hintmask 1010000001010000
          -97 callgsubr
          hintmask 0000000000001000
          -7 callsubr
          hintmask 0001100010000000
          -167 633 rmoveto
          14 -8 14 -17 6 vhcurveto
          -114 42 -8 2 -9 0 -8 -2 rlinecurve
          -114 -42 rlineto
          -18 -7 -8 -14 -14 vvcurveto
          -18 15 -20 21 4 4 0 2 5 vhcurveto
          103 31 103 -31 rlineto
          -2 5 4 0 4 hhcurveto
          22 14 20 19 hvcurveto
          27 211 9 callsubr
          hintmask 0000010000100000
          -14 14 22 -22 36 hhcurveto
          28 29 16 18 24 hvcurveto
          hintmask 0000001000000000
          21 16 30 25 19 vvcurveto
          endchar
        </CharString>
        <CharString name="Edblgrave">
          1 callsubr
          63 -21 147 -68 callsubr
          hintmask 0001100000000000
          -149 650 -104 callsubr
        </CharString>
        <CharString name="Edieresis">
          1 callsubr
          32 105 hstemhm
          137 85 -22 105 92 105 -104 184 callsubr
          hintmask 1110100101000000
          -100 callgsubr
          hintmask 1010100010000000
          -97 callgsubr
          hintmask 0000000001000000
          -7 callsubr
          hintmask 0001011000000000
          -365 646 -62 callgsubr
        </CharString>
        <CharString name="Edotaccent">
          1 callsubr
          43 114 99 callsubr
          hintmask 1110101010000000
          -100 callgsubr
          hintmask 1010100100000000
          -97 callgsubr
          hintmask 0000000010000000
          -7 callsubr
          hintmask 0001010000000000
          -263 662 -65 callsubr
        </CharString>
        <CharString name="Edotbelow">
          185 48 callsubr
          80 21 callsubr
          99 callsubr
          hintmask 0111101010000000
          -100 callgsubr
          hintmask 0101100100000000
          -97 callgsubr
          hintmask 0000000010000000
          -7 callsubr
          hintmask 1000010000000000
          -263 -186 -89 callgsubr
        </CharString>
        <CharString name="Egrave">
          1 callsubr
          63 -21 148 -68 callsubr
          hintmask 0001100000000000
          -208 652 -102 callsubr
        </CharString>
        <CharString name="Ehookabove">
          1 callsubr
          64 45 callsubr
          137 85 20 60 callgsubr
          -61 184 callsubr
          hintmask 1110001000101000
          -100 callgsubr
          hintmask 1010001000010000
          -97 callgsubr
          hintmask 0000000000001000
          -7 callsubr
          hintmask 0000110101000000
          -211 759 -95 callsubr
          hintmask 0001100011000000
          -99 callgsubr
        </CharString>
        <CharString name="Emacron">
          1 callsubr
          52 79 -49 callgsubr
          -127 653 -87 callgsubr
        </CharString>
        <CharString name="Eng">
          -11 103 -92 77 459 86 hstemhm
          110 84 222 86 134 86 hintmask 01111100
          722 306 rmoveto
          173 -135 143 -171 -83 -81 -22 -42 -58 vhcurveto
          4 144 callsubr
          9 callgsubr
          -457 -44 hlineto
          -19 -29 21 callgsubr
          344 hlineto
          83 13 107 32 102 hhcurveto
          123 97 -105 -125 -100 -27 -102 -73 -24 hvcurveto
          hintmask 10001100
          8 -10 -12 4 -12 hhcurveto
          -29 -22 -23 -28 -28 22 -24 29 143 77 157 160 hvcurveto
          endchar
        </CharString>
        <CharString name="Eogonek">
          122 callsubr
          104 callgsubr
          -56 75 -29 85 -56 84 -28 85 -57 85 hintmask 0011011100001000
          -100 callgsubr
          hintmask 0000010000010000
          335 hlineto
          hintmask 0000100000010000
          -42 -34 callsubr
          70 vlineto
          hintmask 0010011001000000
          37 53 callgsubr
          -500 27 callgsubr
          43 -457 -43 -44 callsubr
          378 hlineto
          hintmask 0100000010000000
          -29 127 callsubr
          -2 23 -14 14 -21 22 -18 -20 -34 -34 rrcurveto
          hintmask 1010000000100000
          -5 -7 43 callsubr
          38 11 32 47 28 hvcurveto
          63 hlineto
          hintmask 0000000000001000
          -7 callsubr
          endchar
        </CharString>
        <CharString name="Eogonekacute">
          122 callsubr
          63 60 callsubr
          104 callgsubr
          -56 75 -29 85 -56 84 -28 85 -57 85 hintmask 0011010011000010
          -100 callgsubr
          hintmask 0000010000000100
          335 hlineto
          hintmask 0000100000000100
          -42 -34 callsubr
          70 vlineto
          hintmask 0010010010010000
          37 53 callgsubr
          -500 27 callgsubr
          43 -457 -43 -44 callsubr
          378 hlineto
          hintmask 0100000000100000
          -29 127 callsubr
          -2 23 -14 14 -21 22 -18 -20 -34 -34 rrcurveto
          hintmask 1010000000001000
          -5 -7 43 callsubr
          38 11 32 47 28 hvcurveto
          63 hlineto
          hintmask 0000000000000010
          -7 callsubr
          hintmask 0000001101000000
          -207 709 -107 callgsubr
        </CharString>
        <CharString name="Epsilon">
          1 callsubr
          25 callsubr
          hintmask 11111010
          -100 callgsubr
          hintmask 10110100
          -97 callgsubr
          hintmask 00000010
          -7 callsubr
          endchar
        </CharString>
        <CharString name="Ereversed">
          1 callsubr
          hstemhm
          46 85 -57 85 75 84 176 85 hintmask 11101110
          670 38 rmoveto
          -65 callgsubr
          vhcurveto
          -43 457 43 hlineto
          18 30 143 callsubr
          -500 hlineto
          -40 -8 -12 -37 hvcurveto
          -70 115 callgsubr
          41 1 26 23 vhcurveto
          42 335 -179 -176 vlineto
          40 -5 15 -38 -40 -1 -26 -23 vhcurveto
          -90 vlineto
          -23 1 -26 40 38 5 15 41 vhcurveto
          176 -201 hlineto
          hintmask 10010000
          -363 58 hlineto
          24 -1 25 -42 -41 -1 -26 -23 vhcurveto
          -86 vlineto
          -38 9 -11 39 vhcurveto
          528 79 callgsubr
        </CharString>
        <CharString name="Eta">
          103 callgsubr
          hstem
          52 callgsubr
          vstem
          -91 callgsubr
          endchar
        </CharString>
        <CharString name="Eth">
          -18 callgsubr
        </CharString>
        <CharString name="Etilde">
          185 0 77 201 77 179 77 32 81 -68 81 -54 81 -67 80 25 callsubr
          hintmask 1110000110100000
          -100 callgsubr
          hintmask 1010000101000000
          -97 callgsubr
          hintmask 0000000000100000
          -7 callsubr
          hintmask 0000001000000000
          -140 688 rmoveto
          20 -19 20 -20 vhcurveto
          hintmask 0000010000000000
          -13 -8 -5 -8 -8 hvcurveto
          hintmask 0001000000000000
          -76 callgsubr
          hintmask 0000001000000000
          14 -14 -22 21 -36 hhcurveto
          -28 -29 -16 -18 -24 hvcurveto
          hintmask 0000010000000000
          -36 callsubr
          hintmask 0001000000000000
          -20 19 -20 20 vhcurveto
          hintmask 0000100000000000
          13 8 6 7 8 hvcurveto
          hintmask 0000001000000000
          25 27 23 16 12 hhcurveto
          5 9 -9 -9 10 hvcurveto
          hintmask 0001000010000000
          -14 14 22 -22 36 hhcurveto
          28 29 16 18 24 hvcurveto
          hintmask 0000100000000000
          21 16 30 25 19 vvcurveto
          endchar
        </CharString>
        <CharString name="Euro">
          142 -11 78 -61 78 121 78 46 78 120 78 -61 78 hstemhm
          114 85 -84 116 callgsubr
          hintmask 1010000100000000
          600 26 rmoveto
          88 vlineto
          20 -17 17 -20 vhcurveto
          -12 hlineto
          -17 -15 -13 -21 -5 hvcurveto
          -41 -10 -52 -9 -47 hhcurveto
          -56 -52 26 42 -36 hvcurveto
          -18 21 -15 23 -10 26 rrcurveto
          222 hlineto
          15 10 8 12 4 hvcurveto
          6 16 rlineto
          20 7 -15 22 -21 hhcurveto
          -246 hlineto
          hintmask 0000001000000000
          -1 7 0 8 8 vvcurveto
          hintmask 0001010110000000
          8 0 7 1 8 vhcurveto
          283 hlineto
          13 12 9 12 4 hvcurveto
          5 15 rlineto
          21 7 -15 21 -22 hhcurveto
          -269 hlineto
          11 25 14 23 18 21 rrcurveto
          42 36 52 26 56 hhcurveto
          47 52 -9 -41 10 hvcurveto
          -21 5 15 -13 17 hhcurveto
          12 hlineto
          20 17 17 20 hvcurveto
          88 vlineto
          20 -17 17 -20 vhcurveto
          -4 hlineto
          hintmask 0000100000000000
          -12 -11 -6 -11 -7 hvcurveto
          -6 -8 rlineto
          hintmask 0000010010000000
          17 -36 -45 8 -44 hhcurveto
          hintmask 0001100100000000
          -78 -74 -36 -59 -51 hvcurveto
          -31 -35 -23 -41 -13 -44 rrcurveto
          -31 hlineto
          -14 -12 -9 -12 -4 hvcurveto
          -6 -16 rlineto
          -20 -6 16 -21 20 hhcurveto
          24 hlineto
          -1 -7 -1 -8 -8 vvcurveto
          hintmask 0110001000000000
          -8 1 -8 -7 vvcurveto
          -17 hlineto
          -14 -12 -10 -12 -4 hvcurveto
          -6 -15 rlineto
          -21 -6 16 -20 20 hhcurveto
          37 hlineto
          13 -45 23 -41 31 -35 rrcurveto
          hintmask 1000000010000000
          -59 51 74 -36 78 hhcurveto
          44 45 8 17 36 hvcurveto
          hintmask 0100000000000000
          6 -8 rlineto
          hintmask 1000000000000000
          -11 7 11 -6 12 hhcurveto
          4 hlineto
          20 17 17 20 hvcurveto
          endchar
        </CharString>
        <CharString name="F">
          156 0 77 190 160 callsubr
          hstem
          137 84 170 85 66 84 cntrmask 11100000
          626 492 rmoveto
          178 callsubr
          -486 -74 callsubr
          -457 -44 44 callgsubr
          -37 29 -10 callsubr
          190 170 hlineto
          -40 1 4 -15 38 hhcurveto
          41 1 25 23 hvcurveto
          91 vlineto
          23 -1 25 -41 -38 -4 -15 -40 -1 vhcurveto
          -170 190 321 143 callgsubr
          0 25 24 vhcurveto
          endchar
        </CharString>
        <CharString name="G">
          66 callsubr
          hstem
          59 183 callsubr
          -101 callsubr
          endchar
        </CharString>
        <CharString name="Gacute">
          66 callsubr
          52 47 callgsubr
          59 85 471 85 hintmask 11100110
          -101 callsubr
          hintmask 00011000
          -250 517 -107 callgsubr
        </CharString>
        <CharString name="Gamma">
          128 callsubr
          492 rmoveto
          70 vlineto
          122 callgsubr
          -457 -95 callgsubr
          195 1 callgsubr
          -67 457 292 -42 hlineto
          -68 callgsubr
          endchar
        </CharString>
        <CharString name="Gbreve">
          66 callsubr
          31 158 callsubr
          59 85 471 85 hintmask 11100110
          -101 callsubr
          hintmask 00011000
          -182 500 -96 callsubr
        </CharString>
        <CharString name="Gcaron">
          66 callsubr
          138 -20 hstemhm
          59 85 471 85 hintmask 11101100
          -101 callsubr
          hintmask 00010000
          -210 481 -98 callgsubr
        </CharString>
        <CharString name="Gcedilla">
          147 callgsubr
          hstem
          59 85 218 99 154 85 vstem
          -101 callsubr
          -310 -329 -100 callsubr
        </CharString>
        <CharString name="Gcircumflex">
          66 callsubr
          42 -21 hstemhm
          59 85 471 85 hintmask 11101100
          -101 callsubr
          hintmask 00010000
          -210 441 -107 callsubr
          endchar
        </CharString>
        <CharString name="Gcommaaccent">
          147 callgsubr
          hstemhm
          59 85 218 99 154 85 hintmask 01111010
          -101 callsubr
          hintmask 10000100
          -310 -329 -100 callsubr
        </CharString>
        <CharString name="Gdotaccent">
          66 callsubr
          32 114 180 callsubr
          149 85 hintmask 11101010
          -101 callsubr
          hintmask 00010100
          -305 470 -65 callsubr
        </CharString>
        <CharString name="H">
          103 callgsubr
          hstem
          52 callgsubr
          vstem
          -91 callgsubr
          endchar
        </CharString>
        <CharString name="H_uni0303">
          0 77 202 77 178 51 callsubr
          138 85 311 85 hintmask 1110000110000000
          -91 callgsubr
          hintmask 0000001000000000
          -151 699 -88 callsubr
        </CharString>
        <CharString name="Hbar">
          0 77 202 77 59 77 42 77 hstem
          52 callgsubr
          vstem
          710 24 callgsubr
          338 48 186 callsubr
          -48 42 26 callgsubr
          -56 callsubr
          -42 -311 42 43 hlineto
          -70 callsubr
          -42 -48 193 callgsubr
          48 -338 91 callsubr
          202 311 -202 -39 callgsubr
          hvcurveto
          -176 318 rmoveto
          -311 59 311 hlineto
          endchar
        </CharString>
        <CharString name="Hbrevebelow">
          -213 80 47 -20 106 172 callgsubr
          311 85 hintmask 00111110
          -91 callgsubr
          hintmask 11000000
          -150 -163 -96 callsubr
        </CharString>
        <CharString name="Hcircumflex">
          103 callgsubr
          53 -21 71 callsubr
          hintmask 11101100
          -91 callgsubr
          hintmask 00010000
          -178 644 -107 callsubr
          endchar
        </CharString>
        <CharString name="Hdieresis">
          103 callgsubr
          32 105 hstemhm
          138 85 6 105 92 105 3 85 hintmask 11101001
          -91 callgsubr
          hintmask 00010110
          -376 657 -62 callgsubr
        </CharString>
        <CharString name="Hdotbelow">
          48 callsubr
          80 172 callgsubr
          98 115 98 85 hintmask 01111010
          -91 callgsubr
          hintmask 10000100
          -274 -175 -89 callgsubr
        </CharString>
        <CharString name="I">
          63 callsubr
          hstem
          132 85 vstem
          -99 callsubr
          endchar
        </CharString>
        <CharString name="I_J">
          325 -11 77 -66 115 callsubr
          132 85 166 183 callgsubr
          hintmask 01110110
          -99 callsubr
          483 535 rmoveto
          36 -30 2 -19 vhcurveto
          -175 hlineto
          -19 124 callsubr
          19 hvcurveto
          70 -389 hlineto
          hintmask 10000100
          -75 -72 -4 -17 -7 -38 0 18 -26 vhcurveto
          3 5 2 7 12 vvcurveto
          28 -22 23 -29 vhcurveto
          hintmask 10101010
          13 callgsubr
          endchar
        </CharString>
        <CharString name="Iacute">
          -165 70 callsubr
          132 85 hintmask 11001000
          -99 callsubr
          hintmask 00110000
          -25 720 -107 callgsubr
        </CharString>
        <CharString name="Ibreve">
          63 callsubr
          42 158 callsubr
          132 85 hintmask 11001000
          -99 callsubr
          hintmask 00110000
          43 703 -96 callsubr
        </CharString>
        <CharString name="Icaron">
          -165 139 callsubr
          132 85 hintmask 11010000
          -99 callsubr
          hintmask 00100000
          15 684 -98 callgsubr
        </CharString>
        <CharString name="Icircumflex">
          63 callsubr
          53 -21 hstemhm
          132 85 hintmask 11010000
          -99 callsubr
          hintmask 00100000
          15 644 -107 callsubr
          endchar
        </CharString>
        <CharString name="Idblgrave">
          63 callsubr
          63 132 callsubr
          hstemhm
          132 85 hintmask 11001000
          -99 callsubr
          hintmask 00110000
          33 661 -104 callsubr
        </CharString>
        <CharString name="Idieresis">
          -165 142 callgsubr
          hstemhm
          25 105 2 85 5 105 hintmask 11001000
          -99 callsubr
          hintmask 00110100
          -183 657 -62 callgsubr
        </CharString>
        <CharString name="Idieresisacute">
          -165 0 77 457 77 32 142 callsubr
          25 105 2 85 5 105 hintmask 11000010
          -99 callsubr
          hintmask 00111101
          -183 657 -86 callsubr
          -39 199 -107 callgsubr
        </CharString>
        <CharString name="Idotaccent">
          63 callsubr
          43 114 hstemhm
          117 115 -100 85 hintmask 11001000
          -99 callsubr
          hintmask 00110000
          -81 673 -65 callsubr
        </CharString>
        <CharString name="Idotbelow">
          -165 38 callsubr
          hstemhm
          117 115 -100 85 hintmask 01101000
          -99 callsubr
          hintmask 10010000
          -81 -175 -89 callgsubr
        </CharString>
        <CharString name="Igrave">
          -165 70 callsubr
          132 85 hintmask 11001000
          -99 callsubr
          hintmask 00110000
          -26 663 -102 callsubr
        </CharString>
        <CharString name="Ihookabove">
          63 callsubr
          64 45 callsubr
          67 74 -9 72 -72 85 -5 72 hintmask 1100000100000000
          -99 callsubr
          hintmask 0001110010000000
          -29 770 -95 callsubr
          hintmask 0010000100000000
          -45 -24 -35 -32 -47 vvcurveto
          -17 vlineto
          -20 17 -16 19 vhcurveto
          hintmask 0001001010000000
          21 15 16 20 hvcurveto
          17 vlineto
          11 10 10 18 10 vhcurveto
          34 19 17 23 1 28 rrcurveto
          endchar
        </CharString>
        <CharString name="Imacron">
          63 callsubr
          52 79 hstemhm
          132 85 hintmask 11010000
          -99 callsubr
          hintmask 00100000
          55 664 -87 callgsubr
        </CharString>
        <CharString name="Imacron.alt">
          63 callsubr
          52 79 hstemhm
          132 85 hintmask 11010000
          -99 callsubr
          hintmask 00100000
          -33 664 16 callgsubr
        </CharString>
        <CharString name="Iogonek">
          -165 77 callsubr
          120 115 callsubr
          98 75 -41 85 -71 85 hintmask 00110100
          313 38 rmoveto
          -65 callgsubr
          vhcurveto
          -48 457 48 -24 callgsubr
          -181 -101 callgsubr
          48 -457 -48 -94 callgsubr
          hintmask 00100010
          62 hlineto
          hintmask 01001000
          85 callsubr
          hintmask 10001000
          175 callsubr
          hintmask 00100010
          41 23 38 35 19 vhcurveto
          34 -69 callgsubr
          endchar
        </CharString>
        <CharString name="Iogonekacute">
          -165 77 callsubr
          120 65 callgsubr
          98 75 -41 85 -71 85 hintmask 0011000100000000
          313 38 rmoveto
          -65 callgsubr
          vhcurveto
          -48 457 48 -24 callgsubr
          -181 -101 callgsubr
          48 -457 -48 -94 callgsubr
          hintmask 0010000010000000
          62 hlineto
          hintmask 0100001000000000
          85 callsubr
          hintmask 1000001000000000
          175 callsubr
          hintmask 0010000010000000
          41 23 38 35 19 vhcurveto
          34 -69 callgsubr
          hintmask 0000110000000000
          -25 720 -107 callgsubr
        </CharString>
        <CharString name="Iota">
          63 callsubr
          hstem
          132 85 vstem
          -99 callsubr
          endchar
        </CharString>
        <CharString name="Itilde">
          -165 37 callsubr
          132 85 hintmask 11000010
          -99 callsubr
          hintmask 00000100
          42 699 -103 callsubr
        </CharString>
        <CharString name="J">
          10 59 callsubr
          181 callsubr
          hintmask 11011000
          -21 callgsubr
          hintmask 11101000
          13 callgsubr
          endchar
        </CharString>
        <CharString name="J_uni030C.cap">
          10 -11 77 375 -21 114 77 181 callsubr
          114 99 hintmask 10101100
          -21 callgsubr
          hintmask 11110110
          13 callgsubr
          144 -35 -100 callsubr
        </CharString>
        <CharString name="Jacute">
          10 -11 77 468 77 63 -21 148 -20 181 callsubr
          hintmask 11000110
          -21 callgsubr
          hintmask 11001010
          13 callgsubr
          hintmask 00110000
          -21 185 -107 callgsubr
        </CharString>
        <CharString name="Jcircumflex">
          10 59 callsubr
          53 -21 181 callsubr
          hintmask 11001100
          -21 callgsubr
          hintmask 11010100
          13 callgsubr
          hintmask 00100000
          19 109 -107 callsubr
          endchar
        </CharString>
        <CharString name="K">
          273 64 callgsubr
          145 72 354 72 vstem
          -71 callgsubr
          endchar
        </CharString>
        <CharString name="Kappa">
          273 64 callgsubr
          145 72 354 72 vstem
          -71 callgsubr
          endchar
        </CharString>
        <CharString name="Kcedilla">
          273 129 callsubr
          145 72 130 99 125 72 vstem
          -71 callgsubr
          -296 -126 -100 callsubr
        </CharString>
        <CharString name="Kcommaaccent">
          273 65 callsubr
          145 72 130 99 125 72 hintmask 01110100
          -71 callgsubr
          hintmask 10001000
          -296 -126 -100 callsubr
        </CharString>
        <CharString name="L">
          127 0 77 457 77 hstem
          136 85 292 85 vstem
          -77 callgsubr
          endchar
        </CharString>
        <CharString name="L_uni0303">
          127 37 callsubr
          168 callsubr
          hintmask 11000011
          -77 callgsubr
          hintmask 00000100
          -98 688 -103 callsubr
        </CharString>
        <CharString name="Lacute">
          127 70 callsubr
          168 callsubr
          hintmask 11001100
          -77 callgsubr
          hintmask 00110000
          -165 709 -107 callgsubr
        </CharString>
        <CharString name="Lambda">
          185 0 77 546 -20 hstem
          659 38 rmoveto
          -65 callgsubr
          vhcurveto
          -27 hlineto
          -166 508 rlineto
          37 -13 -26 1 -20 hhcurveto
          -19 hlineto
          -20 -26 -1 -37 -13 hvcurveto
          -166 -508 rlineto
          -27 -94 callgsubr
          145 -64 callgsubr
          -28 hlineto
          144 443 145 -443 rlineto
          -28 -94 callgsubr
          145 -69 callgsubr
          endchar
        </CharString>
        <CharString name="Lcaron">
          127 0 77 364 -21 114 77 hstem
          136 85 179 99 14 85 vstem
          -77 callgsubr
          -99 489 -100 callsubr
        </CharString>
        <CharString name="Lcedilla">
          127 129 callsubr
          136 85 53 99 140 85 vstem
          -77 callgsubr
          -225 -137 -100 callsubr
        </CharString>
        <CharString name="Lcommaaccent">
          127 65 callsubr
          136 85 53 99 140 85 hintmask 01110100
          -77 callgsubr
          hintmask 10001000
          -225 -137 -100 callsubr
        </CharString>
        <CharString name="Ldot">
          127 0 77 183 114 160 77 hstemhm
          136 85 220 115 -43 85 hintmask 00000100
          94 callsubr
          hintmask 00001000
          171 callgsubr
          vhcurveto
          hintmask 11110100
          171 callsubr
          hvcurveto
          -58 -292 457 67 -34 callgsubr
          -195 -95 callgsubr
          457 hlineto
          -7 callsubr
          -42 268 rmoveto
          -23 callgsubr
          vhcurveto
          hintmask 01001000
          150 callgsubr
          endchar
        </CharString>
        <CharString name="Ldotbelow">
          127 38 callsubr
          hstemhm
          136 85 42 115 135 85 hintmask 01110100
          -77 callgsubr
          hintmask 10001000
          -220 -186 -89 callgsubr
        </CharString>
        <CharString name="Ldotbelowmacron">
          127 38 callsubr
          52 79 hstemhm
          136 85 42 115 135 85 hintmask 11101110
          -77 callgsubr
          -220 -186 137 callgsubr
          28 29 vhcurveto
          hintmask 00010000
          5 839 -87 callgsubr
        </CharString>
        <CharString name="Lslash">
          128 callsubr
          49 rmoveto
          86 vlineto
          171 callgsubr
          171 callsubr
          vhcurveto
          -58 -292 224 vlineto
          191 133 17 12 3 22 -10 17 rlinecurve
          -11 20 -23 5 -18 -13 -149 -105 rcurveline
          142 67 -34 callgsubr
          -195 hlineto
          194 callgsubr
          -194 hlineto
          -63 -46 -16 -12 -11 -18 17 -22 rlinecurve
          16 -20 19 -4 18 15 20 16 rcurveline
          -172 -43 191 callsubr
          457 135 callgsubr
        </CharString>
        <CharString name="M">
          418 64 callgsubr
          147 72 494 72 vstem
          -55 callgsubr
          endchar
        </CharString>
        <CharString name="Mdotbelow">
          418 38 callsubr
          hstemhm
          147 72 190 115 189 72 hintmask 01110100
          -55 callgsubr
          hintmask 10001000
          -352 -175 -89 callgsubr
        </CharString>
        <CharString name="Mu">
          418 64 callgsubr
          147 72 494 72 vstem
          -55 callgsubr
          endchar
        </CharString>
        <CharString name="N">
          64 callgsubr
          169 callgsubr
          vstem
          -96 callgsubr
          endchar
        </CharString>
        <CharString name="Nacute">
          70 callsubr
          169 callgsubr
          hintmask 11001100
          -96 callgsubr
          hintmask 00110000
          -211 186 -107 callgsubr
        </CharString>
        <CharString name="Ncaron">
          139 callsubr
          169 callgsubr
          hintmask 11011000
          -96 callgsubr
          hintmask 00100000
          -171 150 -98 callgsubr
        </CharString>
        <CharString name="Ncedilla">
          129 callsubr
          145 72 116 99 108 72 vstem
          -96 callgsubr
          -271 -660 -100 callsubr
        </CharString>
        <CharString name="Ncommaaccent">
          65 callsubr
          145 72 116 99 108 72 hintmask 01110100
          -96 callgsubr
          hintmask 10001000
          -271 -660 -100 callsubr
        </CharString>
        <CharString name="Ndotaccent">
          26 callsubr
          32 114 hstemhm
          145 72 104 115 104 72 hintmask 11010100
          -96 callgsubr
          hintmask 00101000
          -267 128 -65 callsubr
        </CharString>
        <CharString name="Ndotbelow">
          38 callsubr
          hstemhm
          145 72 104 115 104 72 hintmask 01110100
          -96 callgsubr
          hintmask 10001000
          -267 -709 -89 callgsubr
        </CharString>
        <CharString name="Ntilde">
          37 callsubr
          169 callgsubr
          hintmask 11000011
          -96 callgsubr
          hintmask 00000100
          -144 165 -103 callsubr
        </CharString>
        <CharString name="Nu">
          64 callgsubr
          169 callgsubr
          vstem
          -96 callgsubr
          endchar
        </CharString>
        <CharString name="O">
          39 callsubr
          hstem
          86 callsubr
          vstem
          -104 callgsubr
          endchar
        </CharString>
        <CharString name="OE">
          -42 callgsubr
        </CharString>
        <CharString name="OE.dup">
          -42 callgsubr
        </CharString>
        <CharString name="Oacute">
          39 callsubr
          52 -21 148 -20 84 callsubr
          hintmask 11001100
          -104 callgsubr
          hintmask 00110000
          -151 441 -107 callgsubr
        </CharString>
        <CharString name="Obreve">
          39 callsubr
          31 80 47 -20 84 callsubr
          hintmask 11001100
          -104 callgsubr
          hintmask 00110000
          -83 424 -96 callsubr
        </CharString>
        <CharString name="Ocaron">
          39 callsubr
          138 -20 -31 callgsubr
          -111 405 -98 callgsubr
        </CharString>
        <CharString name="Ocircumflex">
          111 callgsubr
          -31 callgsubr
          -111 365 -107 callsubr
          endchar
        </CharString>
        <CharString name="Ocircumflexacute">
          111 callgsubr
          284 -20 84 callsubr
          hintmask 11001100
          -104 callgsubr
          hintmask 00110000
          -111 365 -89 callsubr
        </CharString>
        <CharString name="Ocircumflexdotbelow">
          302 139 callgsubr
          42 -21 180 callsubr
          206 85 hintmask 01111010
          -104 callgsubr
          -111 365 -107 callsubr
          hintmask 10000100
          -95 -819 -89 callgsubr
        </CharString>
        <CharString name="Ocircumflexgrave">
          111 callgsubr
          -31 callgsubr
          -111 365 -88 callgsubr
        </CharString>
        <CharString name="Ocircumflexhookabove">
          111 callgsubr
          200 72 13 72 hstemhm
          59 85 265 60 callgsubr
          46 85 hintmask 1100010001000000
          -104 callgsubr
          hintmask 0011101010000000
          -111 365 -107 callsubr
          65 231 -95 callsubr
          hintmask 0001000110000000
          -99 callgsubr
        </CharString>
        <CharString name="Ocircumflextilde">
          302 -11 77 479 77 42 99 callgsubr
          59 85 528 85 hintmask 1100000011000000
          -104 callgsubr
          hintmask 0011000100000000
          -111 365 -33 callsubr
        </CharString>
        <CharString name="Odblgrave">
          39 callsubr
          52 132 callsubr
          84 callsubr
          hintmask 11001100
          -104 callgsubr
          hintmask 00110000
          -93 382 -104 callsubr
        </CharString>
        <CharString name="Odieresis">
          39 callsubr
          21 105 hstemhm
          59 85 114 105 92 105 112 85 hintmask 11010010
          -104 callgsubr
          hintmask 00101100
          -309 378 -62 callgsubr
        </CharString>
        <CharString name="Odotbelow">
          302 139 callgsubr
          180 callsubr
          206 85 hintmask 01110100
          -104 callgsubr
          hintmask 10001000
          -206 -454 -89 callgsubr
        </CharString>
        <CharString name="Ograve">
          39 callsubr
          52 -21 148 -20 84 callsubr
          hintmask 11001100
          -104 callgsubr
          hintmask 00110000
          -152 384 -102 callsubr
        </CharString>
        <CharString name="Ohookabove">
          39 callsubr
          53 45 callsubr
          59 85 156 60 callgsubr
          155 85 hintmask 1100010001000000
          -104 callgsubr
          hintmask 0001101010000000
          -155 491 -95 callsubr
          hintmask 0011000110000000
          -99 callgsubr
        </CharString>
        <CharString name="Ohorn">
          301 22 callgsubr
          86 -20 hstem
          59 86 525 85 vstem
          -94 callsubr
          endchar
        </CharString>
        <CharString name="Ohornacute">
          301 22 callgsubr
          52 -21 55 -20 113 -20 hstemhm
          59 86 525 85 hintmask 11010110
          -94 callsubr
          hintmask 00101000
          -178 440 -107 callgsubr
        </CharString>
        <CharString name="Ohorndotbelow">
          301 139 callgsubr
          86 -20 hstemhm
          59 86 205 115 205 85 hintmask 01111010
          -94 callsubr
          hintmask 10000100
          -205 -455 -89 callgsubr
        </CharString>
        <CharString name="Ohorngrave">
          301 22 callgsubr
          52 -21 55 -20 113 -20 hstemhm
          59 86 525 85 hintmask 11010110
          -94 callsubr
          hintmask 00101000
          -150 383 -102 callsubr
        </CharString>
        <CharString name="Ohornhookabove">
          301 22 callgsubr
          53 -21 54 -20 50 72 13 72 hstemhm
          59 86 155 60 callgsubr
          153 85 hintmask 1101001000100000
          -94 callsubr
          hintmask 0000110101000000
          -153 490 -95 callsubr
          hintmask 0010100011000000
          -99 callgsubr
        </CharString>
        <CharString name="Ohorntilde">
          301 137 callsubr
          86 525 85 hintmask 11000011
          -94 callsubr
          hintmask 00000100
          -111 419 -103 callsubr
        </CharString>
        <CharString name="Ohungarumlaut">
          39 callsubr
          52 132 callsubr
          84 callsubr
          hintmask 11001100
          -104 callgsubr
          hintmask 00110000
          -272 440 -83 callsubr
        </CharString>
        <CharString name="Omacron">
          39 callsubr
          41 79 -31 callgsubr
          -71 385 -87 callgsubr
        </CharString>
        <CharString name="Omega">
          -23 callsubr
        </CharString>
        <CharString name="Omicron">
          39 callsubr
          hstem
          86 callsubr
          vstem
          -104 callgsubr
          endchar
        </CharString>
        <CharString name="Oogonek">
          302 77 callsubr
          109 61 callgsubr
          172 callsubr
          hintmask 01011110
          33 callgsubr
          hintmask 10111111
          32 callsubr
          endchar
        </CharString>
        <CharString name="Oogonekacute">
          302 77 callsubr
          109 61 callgsubr
          52 -21 148 -20 172 callsubr
          hintmask 0101001110000000
          33 callgsubr
          hintmask 1011001111000000
          32 callsubr
          hintmask 0000110000000000
          -151 441 -107 callgsubr
        </CharString>
        <CharString name="Orogate">
          302 86 callsubr
          vstem
          757 305 rmoveto
          162 -134 136 -177 17 vhcurveto
          113 189 callgsubr
          -113 vlineto
          -179 -17 -132 -139 -158 vvcurveto
          -162 134 -136 177 -17 vhcurveto
          -113 190 callgsubr
          113 vlineto
          179 17 132 139 158 vvcurveto
          27 callsubr
          endchar
        </CharString>
        <CharString name="Oslash">
          302 -62 -21 72 61 callgsubr
          72 -20 hstem
          59 70 558 70 vstem
          -62 callsubr
          endchar
        </CharString>
        <CharString name="Oslash.dup">
          302 -62 -21 72 61 callgsubr
          72 -20 hstem
          59 70 558 70 vstem
          -62 callsubr
          endchar
        </CharString>
        <CharString name="Oslashacute">
          302 -62 -21 72 61 callgsubr
          52 -21 41 -20 127 -20 hstemhm
          59 70 558 70 hintmask 11101011
          -62 callsubr
          hintmask 00010100
          -166 452 -107 callgsubr
        </CharString>
        <CharString name="Otilde">
          302 137 callsubr
          85 528 85 hintmask 11000011
          -104 callgsubr
          hintmask 00000100
          -84 420 -103 callsubr
        </CharString>
        <CharString name="P">
          -2 callgsubr
        </CharString>
        <CharString name="Phi">
          0 77 73 77 157 77 73 77 hstem
          58 81 197 85 197 81 cntrmask 00001110
          699 305 rmoveto
          89 -144 60 -134 7 vhcurveto
          73 67 vlineto
          81 callsubr
          -9 callsubr
          hvcurveto
          -219 -75 callgsubr
          67 -73 hlineto
          -138 -7 -140 -63 -85 vvcurveto
          -89 144 -60 134 -7 vhcurveto
          -73 -67 vlineto
          -19 96 callgsubr
          29 -1 18 hvcurveto
          219 51 callgsubr
          -67 73 hlineto
          138 7 140 63 85 vvcurveto
          -367 -78 rmoveto
          -65 3 -128 19 57 vvcurveto
          54 122 21 71 3 vhcurveto
          286 -78 rmoveto
          -57 -128 -19 -65 -3 vhcurveto
          157 vlineto
          70 -3 123 -21 -54 vvcurveto
          endchar
        </CharString>
        <CharString name="Pi">
          64 callgsubr
          52 callgsubr
          vstem
          710 24 callgsubr
          457 26 callgsubr
          -569 -74 callsubr
          -457 91 callsubr
          457 311 -457 -39 callgsubr
          hvcurveto
          endchar
        </CharString>
        <CharString name="Psi">
          302 0 77 73 77 307 77 hstem
          366 85 vstem
          757 448 rmoveto
          38 -30 1 -15 -49 -23 -22 -16 -15 vhcurveto
          -30 -29 -1 -38 -1 -26 -4 -84 -65 -36 -73 -9 rrcurveto
          307 67 vlineto
          81 callsubr
          -9 callsubr
          hvcurveto
          -219 hlineto
          -18 -29 -1 -37 -38 28 -1 19 hvcurveto
          67 -307 hlineto
          -81 10 -58 40 -4 82 rrcurveto
          105 -4 -71 23 -44 hhcurveto
          -14 -31 -1 -38 -30 25 -7 31 -7 hvcurveto
          23 -11 0 -23 1 -20 2 -42 24 -65 42 -34 53 -41 50 -12 56 -6 rrcurveto
          -73 92 callgsubr
          73 hlineto
          126 12 95 66 5 124 1 20 1 31 38 6 rrcurveto
          25 4 15 11 24 vvcurveto
          endchar
        </CharString>
        <CharString name="Q">
          302 -114 -21 61 77 -14 77 28 77 374 77 hstemhm
          59 85 443 85 0 85 hintmask 00101100
          757 305 rmoveto
          173 -153 144 -196 -198 -151 161 callsubr
          29 33 3 10 40 vhcurveto
          hintmask 11000010
          1 1 11 -12 96 -106 rlineto
          -20 18 10 0 23 hhcurveto
          20 19 3 22 8 -13 17 -10 11 hvcurveto
          -98 108 rlineto
          hintmask 00111101
          153 88 17 128 55 vvcurveto
          -85 1 rmoveto
          -91 -56 -81 -84 -40 vhcurveto
          -44 46 -16 20 -10 11 rrcurveto
          11 -13 -2 2 -25 hhcurveto
          -29 -11 -2 -32 hvcurveto
          70 -81 rlineto
          -23 -3 -21 0 0 vvcurveto
          93 callgsubr
          hvcurveto
          endchar
        </CharString>
        <CharString name="R">
          -81 callgsubr
          endchar
        </CharString>
        <CharString name="Racute">
          -81 callgsubr
          hintmask 11100000
          -51 319 -107 callgsubr
        </CharString>
        <CharString name="Rcaron">
          -81 callgsubr
          hintmask 11101000
          -11 283 -98 callgsubr
        </CharString>
        <CharString name="Rcedilla">
          0 77 190 160 callsubr
          hstemhm
          139 84 110 99 74 -85 callgsubr
          hintmask 11101010
          99 98 -37 -58 hvcurveto
          -111 -527 -100 callsubr
        </CharString>
        <CharString name="Rcommaaccent">
          0 77 190 160 callsubr
          hstemhm
          139 84 110 99 74 -85 callgsubr
          hintmask 11100010
          177 callsubr
          -111 -527 -100 callsubr
        </CharString>
        <CharString name="Rdblgrave">
          -81 callgsubr
          hintmask 11100000
          -22 260 -104 callsubr
        </CharString>
        <CharString name="Rdotaccent">
          0 77 190 160 callsubr
          hstemhm
          139 84 98 115 70 -85 callgsubr
          hintmask 11100010
          177 callsubr
          -107 272 -65 callsubr
        </CharString>
        <CharString name="Rdotbelow">
          0 77 190 160 callsubr
          hstemhm
          139 84 98 115 70 -85 callgsubr
          hintmask 11100010
          177 callsubr
          -107 -576 -89 callgsubr
        </CharString>
        <CharString name="Rdotbelowmacron">
          0 77 190 160 callsubr
          hstemhm
          139 84 98 115 70 -85 callgsubr
          hintmask 11101010
          99 98 -37 -58 hvcurveto
          -107 -576 137 callgsubr
          28 29 vhcurveto
          hintmask 11100000
          136 839 -87 callgsubr
        </CharString>
        <CharString name="Rho">
          -2 callgsubr
        </CharString>
        <CharString name="S">
          68 22 callgsubr
          102 callgsubr
          hintmask 01110000
          526 170 rmoveto
          -85 callsubr
          58 -12 15 -3 30 -26 rrcurveto
          hintmask 10101000
          -73 callsubr
          endchar
        </CharString>
        <CharString name="S_S">
          652 22 callgsubr
          102 callgsubr
          113 81 280 81 -53 81 hintmask 01110000
          526 170 rmoveto
          -85 callsubr
          58 -12 15 -3 30 -26 rrcurveto
          hintmask 11101110
          -73 callsubr
          583 hmoveto
          -85 callsubr
          58 -12 15 -3 30 -26 rrcurveto
          hintmask 10000101
          -73 callsubr
          endchar
        </CharString>
        <CharString name="Sacute">
          68 22 callgsubr
          52 -21 148 -20 102 callgsubr
          hintmask 01001100
          526 170 rmoveto
          -85 callsubr
          58 -12 15 -3 30 -26 rrcurveto
          hintmask 10001010
          -73 callsubr
          hintmask 00110000
          -122 588 -107 callgsubr
        </CharString>
        <CharString name="Scaron">
          68 22 callgsubr
          138 -20 102 callgsubr
          hintmask 01011000
          526 170 rmoveto
          -85 callsubr
          58 -12 15 -3 30 -26 rrcurveto
          hintmask 10010100
          -73 callsubr
          hintmask 00100000
          -82 552 -98 callgsubr
        </CharString>
        <CharString name="Scedilla">
          68 -202 78 30 77 6 61 callgsubr
          hstemhm
          56 80 -80 81 55 81 89 84 -29 81 -80 80 -53 81 -80 80 hintmask 0001011001000000
          526 170 rmoveto
          -85 callsubr
          hintmask 0000000010000000
          58 -12 15 -3 30 -26 rrcurveto
          hintmask 0110100000100000
          0 28 -24 -38 vvcurveto
          -49 -47 -51 -83 -51 -48 11 15 -26 vhcurveto
          -33 20 -14 22 -3 41 rrcurveto
          17 -1 -1 23 -39 hhcurveto
          -42 -1 -25 -24 hvcurveto
          -128 vlineto
          -20 1 -29 37 22 7 8 34 13 vhcurveto
          44 -27 54 -11 43 -2 rrcurveto
          -8 vlineto
          -21 1 -24 37 -2 vhcurveto
          hintmask 1100001100000000
          2 callgsubr
          86 129 4 103 45 -27 31 -37 17 vhcurveto
          hintmask 0000000000010000
          93 25 51 74 73 vvcurveto
          endchar
        </CharString>
        <CharString name="Scircumflex">
          68 22 callgsubr
          42 -21 102 callgsubr
          hintmask 01011000
          526 170 rmoveto
          -85 callsubr
          58 -12 15 -3 30 -26 rrcurveto
          hintmask 10010100
          -73 callsubr
          hintmask 00100000
          -82 512 -107 callsubr
          endchar
        </CharString>
        <CharString name="Sdotbelow">
          68 139 callgsubr
          hstemhm
          56 81 97 115 68 81 -53 81 hintmask 00110100
          526 170 rmoveto
          -85 callsubr
          58 -12 15 -3 30 -26 rrcurveto
          hintmask 01010010
          -73 callsubr
          hintmask 10001000
          -177 -307 -89 callgsubr
        </CharString>
        <CharString name="Sigma">
          0 79 455 77 hstem
          614 85 vstem
          699 49 rmoveto
          72 125 callgsubr
          -1 -25 -24 vhcurveto
          -42 -420 vlineto
          165 196 rlineto
          15 17 -1 13 0 vvcurveto
          13 -5 8 -9 9 vhcurveto
          -170 199 rlineto
          425 90 callsubr
          53 callgsubr
          -544 hlineto
          -19 -30 -1 -38 -13 5 -6 8 -11 hvcurveto
          202 -237 -201 -240 rlineto
          -9 -11 -5 -6 -12 vvcurveto
          -34 33 -2 16 vhcurveto
          544 135 callgsubr
        </CharString>
        <CharString name="T">
          64 callgsubr
          100 callsubr
          cntrmask 00111000
          -81 callsubr
          endchar
        </CharString>
        <CharString name="T_uni0303">
          37 callsubr
          100 callsubr
          hintmask 1100001110000000
          -81 callsubr
          hintmask 0000010000000000
          -159 245 rmoveto
          20 -19 20 -20 vhcurveto
          hintmask 0000100000000000
          -13 -8 -5 -8 -8 hvcurveto
          hintmask 0010000000000000
          -76 callgsubr
          hintmask 0000010000000000
          14 -14 -22 21 -36 hhcurveto
          -28 -29 -16 -18 -24 hvcurveto
          hintmask 0000100000000000
          -36 callsubr
          hintmask 0010000000000000
          -20 19 -20 20 vhcurveto
          hintmask 0001000000000000
          13 8 6 7 8 hvcurveto
          hintmask 0000010000000000
          25 27 23 16 12 hhcurveto
          5 9 -9 -9 10 hvcurveto
          hintmask 0010000000000000
          -14 14 22 -22 36 hhcurveto
          28 29 16 18 24 hvcurveto
          hintmask 0001000000000000
          21 16 30 25 19 vvcurveto
          endchar
        </CharString>
        <CharString name="T_uni0308">
          142 callgsubr
          hstemhm
          39 85 105 105 2 85 5 105 102 85 hintmask 11010101
          -81 callsubr
          hintmask 00101010
          -384 203 -62 callgsubr
        </CharString>
        <CharString name="Tau">
          64 callgsubr
          100 callsubr
          vstem
          -81 callsubr
          endchar
        </CharString>
        <CharString name="Tcaron">
          139 callsubr
          100 callsubr
          hintmask 11011100
          -81 callsubr
          hintmask 00100000
          -186 230 -98 callgsubr
        </CharString>
        <CharString name="Tcedilla">
          -205 78 29 78 20 115 callsubr
          39 85 167 84 -39 85 1 84 127 85 hintmask 0111101010000000
          718 492 rmoveto
          70 vlineto
          122 callgsubr
          -582 hlineto
          -40 -9 -9 -40 hvcurveto
          -70 -34 callsubr
          42 212 -457 -81 vlineto
          -17 -32 -2 -36 -38 30 -1 19 hvcurveto
          82 -20 hlineto
          hintmask 1110010100000000
          -21 1 -24 37 -2 vhcurveto
          2 callgsubr
          85 130 4 103 49 -33 33 -43 16 vhcurveto
          72 hlineto
          17 32 71 callgsubr
          hintmask 0011001010000000
          -5 callgsubr
          endchar
        </CharString>
        <CharString name="Tdotbelow">
          38 callsubr
          hstemhm
          39 85 197 115 -100 85 212 85 hintmask 01110110
          -81 callsubr
          hintmask 10001000
          -282 -629 -89 callgsubr
        </CharString>
        <CharString name="Theta">
          302 -11 77 198 83 198 77 hstem
          59 85 40 82 284 82 40 85 cntrmask 11100000
          757 305 rmoveto
          173 -153 144 -196 -198 -151 161 callsubr
          198 151 147 169 vhcurveto
          -85 1 rmoveto
          -132 -118 -108 -146 93 callgsubr
          vhcurveto
          -40 -23 rmoveto
          45 vlineto
          24 0 25 -42 -13 -23 0 -30 -5 vhcurveto
          -282 hlineto
          29 -5 -22 1 -14 hhcurveto
          -42 0 -25 -24 hvcurveto
          -45 vlineto
          -24 0 -25 42 13 23 0 30 5 vhcurveto
          282 hlineto
          -29 5 22 -1 14 hhcurveto
          42 0 25 24 hvcurveto
          endchar
        </CharString>
        <CharString name="Thorn">
          127 0 77 52 77 220 76 32 77 hstem
          137 85 256 83 vstem
          561 316 rmoveto
          98 -105 88 -143 vhcurveto
          -91 32 43 hlineto
          -70 callsubr
          -457 91 callsubr
          52 91 hlineto
          143 105 89 98 hvcurveto
          -83 hmoveto
          -60 -80 -50 -101 vhcurveto
          -74 220 74 hlineto
          102 79 -50 -60 hvcurveto
          endchar
        </CharString>
        <CharString name="Tlinebelow">
          -189 79 110 115 callsubr
          100 callsubr
          hintmask 01111100
          -81 callsubr
          hintmask 10000000
          -146 -642 -87 callgsubr
        </CharString>
        <CharString name="U">
          59 callsubr
          hstem
          52 callgsubr
          vstem
          -105 callgsubr
          endchar
        </CharString>
        <CharString name="U_uni032F">
          -192 -21 47 80 75 79 callsubr
          71 callsubr
          hintmask 00111100
          -105 callgsubr
          hintmask 11001000
          -127 -746 -63 callsubr
        </CharString>
        <CharString name="Uacute">
          -11 77 468 77 63 -21 148 101 callgsubr
          hintmask 11001100
          -105 callgsubr
          hintmask 00110000
          -195 186 -107 callgsubr
        </CharString>
        <CharString name="Ubreve">
          59 callsubr
          42 80 47 101 callgsubr
          hintmask 11001100
          -105 callgsubr
          hintmask 00111000
          -127 169 -96 callsubr
        </CharString>
        <CharString name="Ucaron">
          59 callsubr
          149 101 callgsubr
          hintmask 11011000
          -105 callgsubr
          hintmask 00100000
          -155 150 -98 callgsubr
        </CharString>
        <CharString name="Ucircumflex">
          59 callsubr
          53 -21 71 callsubr
          hintmask 11011000
          -105 callgsubr
          hintmask 00100000
          -155 110 -107 callsubr
          endchar
        </CharString>
        <CharString name="Udblgrave">
          179 callgsubr
          147 101 callgsubr
          hintmask 11001100
          -105 callgsubr
          hintmask 00110000
          -137 127 -104 callsubr
        </CharString>
        <CharString name="Udieresis">
          59 callsubr
          32 105 129 callgsubr
          hintmask 11010010
          -105 callgsubr
          hintmask 00101100
          -15 callgsubr
          endchar
        </CharString>
        <CharString name="Udieresisacute">
          59 callsubr
          32 105 62 -21 151 callsubr
          hintmask 1100010010000000
          -105 callgsubr
          hintmask 0011101100000000
          -15 callgsubr
          -39 199 -107 callgsubr
        </CharString>
        <CharString name="Udieresiscaron">
          59 callsubr
          32 105 151 callsubr
          hintmask 11001001
          -105 callgsubr
          hintmask 00110110
          -15 callgsubr
          1 163 -98 callgsubr
        </CharString>
        <CharString name="Udieresisgrave">
          59 callsubr
          32 105 62 -21 151 callsubr
          hintmask 1100010010000000
          -105 callgsubr
          hintmask 0011101100000000
          -15 callgsubr
          -40 142 -102 callsubr
        </CharString>
        <CharString name="Udotbelow">
          48 callsubr
          69 79 callsubr
          hstemhm
          138 85 121 115 75 85 hintmask 01110100
          -105 callgsubr
          hintmask 10001000
          -251 -709 -89 callgsubr
        </CharString>
        <CharString name="Ugrave">
          -11 77 468 77 63 -21 148 101 callgsubr
          hintmask 11001100
          -105 callgsubr
          hintmask 00110000
          -196 129 -102 callsubr
        </CharString>
        <CharString name="Uhookabove">
          59 callsubr
          64 45 callsubr
          138 85 71 60 callgsubr
          23 85 hintmask 1100010001000000
          -105 callgsubr
          hintmask 0001101010000000
          -199 236 -95 callsubr
          hintmask 0011000110000000
          -99 callgsubr
        </CharString>
        <CharString name="Uhorn">
          59 callsubr
          97 -20 hstem
          138 84 311 85 vstem
          -90 callsubr
          endchar
        </CharString>
        <CharString name="Uhornacute">
          179 callgsubr
          55 -20 113 -20 hstemhm
          138 84 311 85 hintmask 11010110
          -90 callsubr
          hintmask 00101000
          -207 124 -107 callgsubr
        </CharString>
        <CharString name="Uhorndotbelow">
          48 callsubr
          69 79 callsubr
          97 -20 hstemhm
          138 84 99 115 97 85 hintmask 01111010
          -90 callsubr
          hintmask 10000100
          -256 -771 -89 callgsubr
        </CharString>
        <CharString name="Uhorngrave">
          179 callgsubr
          55 -20 113 -20 hstemhm
          138 84 311 85 hintmask 11010110
          -90 callsubr
          hintmask 00101000
          -178 67 -102 callsubr
        </CharString>
        <CharString name="Uhornhookabove">
          59 callsubr
          64 -21 54 -20 50 72 13 72 hstemhm
          138 84 72 60 callgsubr
          22 85 hintmask 1101001000100000
          -90 callsubr
          hintmask 0000110101000000
          -181 174 -95 callsubr
          hintmask 0010100011000000
          -99 callgsubr
        </CharString>
        <CharString name="Uhorntilde">
          133 callsubr
          84 311 85 hintmask 11000011
          -90 callsubr
          hintmask 00000100
          -110 103 -103 callsubr
        </CharString>
        <CharString name="Uhungarumlaut">
          179 callgsubr
          147 101 callgsubr
          hintmask 11001100
          -105 callgsubr
          hintmask 00110000
          -316 185 -83 callsubr
        </CharString>
        <CharString name="Umacron">
          59 callsubr
          52 79 71 callsubr
          hintmask 11011000
          -105 callgsubr
          hintmask 00100000
          -115 130 -87 callgsubr
        </CharString>
        <CharString name="Uogonek">
          77 callsubr
          32 77 0 79 callsubr
          hstemhm
          138 85 49 75 -31 85 -12 85 60 85 hintmask 0001110101000000
          710 572 rmoveto
          -9 callsubr
          vhcurveto
          -56 callsubr
          -319 hlineto
          -105 -89 -44 -66 -70 -86 46 103 vhcurveto
          319 43 vlineto
          -70 callsubr
          -325 hlineto
          -106 78 -82 100 -24 vhcurveto
          hintmask 0110001010000000
          -25 -26 -19 -33 -34 87 callsubr
          9 11 -5 27 -11 10 rrcurveto
          hintmask 0100000100000000
          -12 7 -27 159 callgsubr
          hintmask 1001101011000000
          -5 -7 43 callsubr
          35 16 32 26 20 hvcurveto
          127 6 103 92 122 vvcurveto
          325 44 vlineto
          81 callsubr
          hvcurveto
          endchar
        </CharString>
        <CharString name="Upsilon">
          302 0 77 477 68 hstem
          59 85 222 85 221 85 vstem
          757 487 rmoveto
          73 -75 62 -91 -98 -59 -77 -105 -26 vhcurveto
          97 -24 -55 85 -104 hhcurveto
          -91 -75 -62 -73 -39 31 0 12 38 4 20 21 36 36 29 48 112 26 -151 -91 hvcurveto
          -235 92 callgsubr
          235 hlineto
          97 28 145 109 45 39 -27 -39 -20 4 -20 38 12 31 0 39 vhcurveto
          endchar
        </CharString>
        <CharString name="Uring">
          59 callsubr
          12 48 38 48 hstemhm
          138 85 57 75 94 75 10 85 hintmask 11001001
          -105 callgsubr
          hintmask 00110110
          -261 118 rmoveto
          -14 -26 -5 -21 -24 -23 6 13 13 26 6 -1 callsubr
        </CharString>
        <CharString name="Utilde">
          133 callsubr
          85 311 85 hintmask 11000011
          -105 callgsubr
          hintmask 00000100
          -128 165 -103 callsubr
        </CharString>
        <CharString name="V">
          13 -21 542 77 hstem
          728 572 rmoveto
          -65 callgsubr
          vhcurveto
          -149 hlineto
          146 callgsubr
          30 -2 19 hvcurveto
          25 hlineto
          -177 -452 -178 452 rlineto
          25 hlineto
          19 135 callsubr
          -29 1 -20 hvcurveto
          -149 hlineto
          -18 -30 -1 -37 -38 28 -1 20 hvcurveto
          34 hlineto
          197 -501 rlineto
          -28 11 8 -13 42 hhcurveto
          19 hlineto
          27 20 2 38 14 hvcurveto
          197 502 rlineto
          34 167 callgsubr
        </CharString>
        <CharString name="W">
          535 13 -21 542 77 hstem
          -80 callgsubr
          endchar
        </CharString>
        <CharString name="Wacute">
          535 13 -21 542 120 callgsubr
          hintmask 11000000
          -80 callgsubr
          hintmask 00110000
          -381 186 -107 callgsubr
        </CharString>
        <CharString name="Wcircumflex">
          535 13 -21 542 77 53 -21 hstemhm
          hintmask 11000000
          -80 callgsubr
          hintmask 00100000
          -341 110 -107 callsubr
          endchar
        </CharString>
        <CharString name="Wdieresis">
          535 13 -21 542 77 32 105 hstemhm
          375 105 92 105 hintmask 11000000
          -80 callgsubr
          hintmask 00111000
          -539 56 callgsubr
        </CharString>
        <CharString name="Wgrave">
          535 13 -21 542 120 callgsubr
          hintmask 11000000
          -80 callgsubr
          hintmask 00110000
          -382 129 -102 callsubr
        </CharString>
        <CharString name="X">
          -26 callsubr
        </CharString>
        <CharString name="Xi">
          185 0 75 205 75 181 75 hstemhm
          44 84 -78 84 431 84 -78 84 hintmask 00101100
          649 544 rmoveto
          18 144 callsubr
          -504 hlineto
          -39 -9 -9 -40 hvcurveto
          -18 vlineto
          -23 1 -26 41 37 5 19 22 vhcurveto
          431 hlineto
          -22 5 -19 37 41 1 26 23 vhcurveto
          6 -495 rmoveto
          hintmask 11010010
          23 vlineto
          23 -1 25 -41 -37 -5 -17 -28 vhcurveto
          -443 hlineto
          28 -5 17 -37 -41 -1 -25 -23 vhcurveto
          -23 vlineto
          -40 9 -9 40 vhcurveto
          514 hlineto
          40 8 11 38 hvcurveto
          -99 234 rmoveto
          69 vlineto
          24 -1 24 -41 -37 -5 -17 -28 -1 vhcurveto
          -243 hlineto
          28 -1 -5 17 -37 hhcurveto
          -41 -1 -24 -24 hvcurveto
          -69 158 callgsubr
          41 37 5 18 28 1 vhcurveto
          243 hlineto
          -28 1 5 -18 37 hhcurveto
          41 1 25 24 hvcurveto
          endchar
        </CharString>
        <CharString name="Y">
          0 115 callsubr
          293 85 -42 85 hintmask 01100000
          -72 callgsubr
          hintmask 10010000
          67 callsubr
          hintmask 10100000
          -48 callsubr
          hintmask 11010000
          0 callsubr
          endchar
        </CharString>
        <CharString name="Yacute">
          70 callsubr
          293 85 -42 85 hintmask 01001000
          -72 callgsubr
          hintmask 10000100
          67 callsubr
          hintmask 10001000
          -48 callsubr
          hintmask 11000100
          0 callsubr
          hintmask 00110000
          -234 186 -107 callgsubr
        </CharString>
        <CharString name="Ycircumflex">
          26 callsubr
          53 -21 hstemhm
          293 85 -42 85 hintmask 01010000
          -72 callgsubr
          hintmask 10001000
          67 callsubr
          hintmask 10010000
          -48 callsubr
          hintmask 11001000
          0 callsubr
          hintmask 00100000
          -194 110 -107 callsubr
          endchar
        </CharString>
        <CharString name="Ydieresis">
          142 callgsubr
          hstemhm
          229 105 -41 85 -42 85 5 105 hintmask 01001010
          -72 callgsubr
          hintmask 10000100
          67 callsubr
          hintmask 10001000
          -48 callsubr
          hintmask 11000100
          0 callsubr
          hintmask 00110010
          -392 56 callgsubr
        </CharString>
        <CharString name="Ydotbelow">
          38 callsubr
          hstemhm
          293 85 -57 115 -100 85 hintmask 00110000
          -72 callgsubr
          hintmask 01000100
          67 callsubr
          hintmask 01010000
          -48 callsubr
          hintmask 01100100
          0 callsubr
          hintmask 10001000
          -290 -709 rmoveto
          -23 callgsubr
          -35 -23 -28 -29 vhcurveto
          hintmask 10010000
          -31 26 -26 31 vhcurveto
          hintmask 00001000
          35 23 28 29 hvcurveto
          endchar
        </CharString>
        <CharString name="Ygrave">
          70 callsubr
          293 85 -42 85 hintmask 01001000
          -72 callgsubr
          hintmask 10000100
          67 callsubr
          hintmask 10001000
          -48 callsubr
          hintmask 11000100
          0 callsubr
          hintmask 00110000
          -235 129 -102 callsubr
        </CharString>
        <CharString name="Yhookabove">
          26 callsubr
          64 45 callsubr
          271 74 -52 85 -42 72 -72 85 -5 72 hintmask 0100001000000000
          -72 callgsubr
          hintmask 1000000010000000
          67 callsubr
          hintmask 1000001000000000
          -48 callsubr
          hintmask 1100000010000000
          0 callsubr
          hintmask 0001110001000000
          -238 236 -95 callsubr
          hintmask 0010000010000000
          -45 -24 -35 -32 -47 vvcurveto
          -17 vlineto
          -20 17 -16 19 vhcurveto
          hintmask 0001000101000000
          21 15 16 20 hvcurveto
          17 vlineto
          11 10 10 18 10 vhcurveto
          34 19 17 23 1 28 rrcurveto
          endchar
        </CharString>
        <CharString name="Ytilde">
          37 callsubr
          293 85 -42 85 hintmask 01000010
          -72 callgsubr
          hintmask 10000001
          67 callsubr
          hintmask 10000010
          -48 callsubr
          hintmask 11000001
          0 callsubr
          hintmask 00000100
          -167 165 -103 callsubr
        </CharString>
        <CharString name="Z">
          112 callgsubr
          hstemhm
          71 85 350 84 hintmask 11001000
          -22 callgsubr
          hintmask 00110000
          43 callgsubr
          hintmask 01010000
          -70 -34 callsubr
          hintmask 10111000
          -19 callgsubr
          endchar
        </CharString>
        <CharString name="Zacute">
          112 callgsubr
          63 60 callsubr
          hstemhm
          71 85 350 84 hintmask 11000010
          -22 callgsubr
          hintmask 00100100
          43 callgsubr
          hintmask 01000100
          -70 -34 callsubr
          hintmask 10100110
          -19 callgsubr
          hintmask 00011000
          -157 709 -107 callgsubr
        </CharString>
        <CharString name="Zcaron">
          112 callgsubr
          149 -20 hstemhm
          71 85 350 84 hintmask 11000100
          -22 callgsubr
          hintmask 00101000
          43 callgsubr
          hintmask 01001000
          -70 -34 callsubr
          hintmask 10101100
          -19 callgsubr
          hintmask 00010000
          -117 673 -98 callgsubr
        </CharString>
        <CharString name="Zdotaccent">
          112 callgsubr
          43 114 hstemhm
          71 85 107 115 128 84 hintmask 11000010
          -22 callgsubr
          hintmask 00101000
          43 callgsubr
          hintmask 01001000
          -70 -34 callsubr
          hintmask 10101010
          -19 callgsubr
          hintmask 00010100
          -212 662 -65 callsubr
        </CharString>
        <CharString name="Zdotbelow">
          127 48 callsubr
          80 77 415 77 -35 77 hstemhm
          71 85 107 115 128 84 hintmask 01100010
          -22 callgsubr
          hintmask 00011000
          43 callgsubr
          hintmask 00101000
          -70 -34 callsubr
          hintmask 01011010
          -19 callgsubr
          hintmask 10000100
          -212 -186 -89 callgsubr
        </CharString>
        <CharString name="Zeta">
          112 callgsubr
          hstemhm
          71 85 350 84 hintmask 11001000
          -22 callgsubr
          hintmask 00110000
          43 callgsubr
          hintmask 01010000
          -70 -34 callsubr
          hintmask 10111000
          -19 callgsubr
          endchar
        </CharString>
        <CharString name="a">
          14 callsubr
          76 callsubr
          hintmask 01111000
          -105 callsubr
          hintmask 10000000
          -41 callgsubr
          hintmask 01000000
          -77 callsubr
          hintmask 10011000
          -69 callsubr
          endchar
        </CharString>
        <CharString name="aacute">
          14 callsubr
          53 -21 148 -78 callsubr
          41 371 -107 callgsubr
        </CharString>
        <CharString name="abreve">
          191 callgsubr
          47 -78 callsubr
          109 365 -96 callsubr
        </CharString>
        <CharString name="abreveacute">
          191 callgsubr
          215 -78 callsubr
          109 365 -57 callsubr
        </CharString>
        <CharString name="abrevedotbelow">
          -5 91 callgsubr
          30 callsubr
          43 158 callsubr
          46 83 68 115 15 86 hintmask 0011001010000000
          -105 callsubr
          hintmask 0100000000000000
          -41 callgsubr
          hintmask 0010000000000000
          -77 callsubr
          hintmask 0100111010000000
          -69 callsubr
          109 365 -106 callsubr
          hintmask 1000000100000000
          -124 -713 -89 callgsubr
        </CharString>
        <CharString name="abrevegrave">
          191 callgsubr
          47 -84 callsubr
          hintmask 00011010
          109 365 -56 callgsubr
        </CharString>
        <CharString name="abrevehookabove">
          191 callgsubr
          131 72 13 72 hstemhm
          46 83 -53 141 callsubr
          -38 86 hintmask 0110001000001000
          -105 callsubr
          hintmask 1000000000000000
          -41 callgsubr
          hintmask 0100000000000000
          -77 callsubr
          hintmask 1000001000001000
          -69 callsubr
          hintmask 0001010100100000
          109 365 -106 callsubr
          -71 193 rmoveto
          54 -48 33 -65 -53 -51 -32 -55 -18 13 -19 24 vhcurveto
          hintmask 0000110010010000
          80 callgsubr
          hintmask 0000100001010000
          -99 callgsubr
        </CharString>
        <CharString name="abrevetilde">
          -5 -6 77 -71 77 291 77 43 162 callsubr
          46 83 198 86 hintmask 0110000001100000
          -105 callsubr
          hintmask 1000000000000000
          -41 callgsubr
          hintmask 0100000000000000
          -77 callsubr
          hintmask 1000000001100000
          -69 callsubr
          hintmask 0001100010000000
          109 365 rmoveto
          24 -14 15 -25 -30 -5 -20 -15 -3 vhcurveto
          -12 -4 -62 0 -37 hhcurveto
          -38 -61 0 12 -4 hvcurveto
          15 -3 -5 20 -30 hhcurveto
          -24 -15 -15 -24 -84 112 -4 68 68 112 4 84 hvcurveto
          -1 173 -76 callsubr
        </CharString>
        <CharString name="acaron">
          14 callsubr
          180 88 callgsubr
          hintmask 01101100
          -105 callsubr
          hintmask 10000000
          -41 callgsubr
          hintmask 01000000
          -77 callsubr
          hintmask 10001100
          -69 callsubr
          hintmask 00010000
          82 375 -93 callgsubr
        </CharString>
        <CharString name="acircumflex">
          14 callsubr
          53 -21 76 callsubr
          hintmask 01101100
          -105 callsubr
          hintmask 10000000
          -41 callgsubr
          hintmask 01000000
          -77 callsubr
          hintmask 10001100
          -69 callsubr
          hintmask 00010000
          82 305 -98 callsubr
          endchar
        </CharString>
        <CharString name="acircumflexacute">
          14 callsubr
          54 -21 284 -78 callsubr
          81 306 -89 callsubr
        </CharString>
        <CharString name="acircumflexdotbelow">
          -5 91 callgsubr
          30 callsubr
          53 -21 hstemhm
          46 83 68 115 15 86 hintmask 00110101
          -105 callsubr
          hintmask 01000000
          -41 callgsubr
          hintmask 00100000
          -77 callsubr
          hintmask 01001101
          -69 callsubr
          82 305 -98 callsubr
          hintmask 10000010
          -97 -653 -89 callgsubr
        </CharString>
        <CharString name="acircumflexgrave">
          14 callsubr
          54 -21 76 callsubr
          hintmask 01101100
          -105 callsubr
          hintmask 10000000
          -41 callgsubr
          hintmask 01000000
          -77 callsubr
          hintmask 10001100
          -69 callsubr
          hintmask 00010100
          81 306 -88 callgsubr
        </CharString>
        <CharString name="acircumflexhookabove">
          14 callsubr
          54 179 callsubr
          46 83 127 74 -9 72 -66 86 -12 72 hintmask 0110001001000000
          -105 callsubr
          hintmask 1000000000000000
          -41 callgsubr
          hintmask 0100000000000000
          -77 callsubr
          hintmask 1000001001000000
          -69 callsubr
          hintmask 0001110100100000
          81 306 -107 callsubr
          65 231 -95 callsubr
          hintmask 0000100010100000
          -99 callgsubr
        </CharString>
        <CharString name="acircumflextilde">
          14 callsubr
          54 99 callgsubr
          46 83 198 86 hintmask 0110000001100000
          -105 callsubr
          hintmask 1000000000000000
          -41 callgsubr
          hintmask 0100000000000000
          -77 callsubr
          hintmask 1000000001100000
          -69 callsubr
          hintmask 0001100010000000
          81 306 rmoveto
          14 -8 14 -17 6 vhcurveto
          -114 42 -8 2 -9 0 -8 -2 rlinecurve
          -114 -42 rlineto
          -18 -7 -8 -14 -14 vvcurveto
          -18 15 -20 21 4 4 0 2 5 vhcurveto
          103 31 103 -31 rlineto
          -2 5 4 0 4 hhcurveto
          22 14 20 19 hvcurveto
          27 211 -76 callsubr
        </CharString>
        <CharString name="acute">
          10 484 60 callsubr
          hstem
          375 568 -107 callgsubr
        </CharString>
        <CharString name="acute.cap">
          10 493 60 callsubr
          hstem
          375 577 -107 callgsubr
        </CharString>
        <CharString name="acute.dup">
          10 484 60 callsubr
          hstem
          375 568 -107 callgsubr
        </CharString>
        <CharString name="acute.ts1">
          10 485 132 callsubr
          21 -20 hstemhm
          hintmask 00100000
          414 568 rmoveto
          22 -19 22 -25 vhcurveto
          hintmask 11000000
          -6 -1 -4 -1 -23 -9 -12 -5 rlinecurve
          -43 -19 -94 -40 -24 vvcurveto
          -26 19 -23 27 vhcurveto
          11 2 23 10 15 8 78 34 rcurveline
          23 11 30 14 25 vvcurveto
          endchar
        </CharString>
        <CharString name="adblgrave">
          14 callsubr
          54 -21 147 -78 callsubr
          99 313 -104 callsubr
        </CharString>
        <CharString name="adieresis">
          14 callsubr
          54 105 hstemhm
          46 83 -9 105 62 105 -65 86 hintmask 01101001
          -105 callsubr
          hintmask 10000000
          -41 callgsubr
          hintmask 01000000
          -77 callsubr
          hintmask 10001001
          -69 callsubr
          hintmask 00010110
          -102 340 -46 callgsubr
        </CharString>
        <CharString name="adotbelow">
          -5 91 callgsubr
          30 callsubr
          hstemhm
          46 83 68 115 15 86 hintmask 00111010
          -105 callsubr
          hintmask 01000000
          -41 callgsubr
          hintmask 00100000
          -77 callsubr
          hintmask 01001010
          -69 callsubr
          hintmask 10000100
          -15 -348 -89 callgsubr
        </CharString>
        <CharString name="ae">
          -38 callgsubr
        </CharString>
        <CharString name="ae.dup">
          -38 callgsubr
        </CharString>
        <CharString name="aeacute">
          17 callgsubr
          53 47 callgsubr
          54 80 -56 104 hintmask 11100010
          727 -25 callgsubr
          -36 -61 -10 -62 -56 hvcurveto
          71 -52 -89 1 -27 hhcurveto
          -44 -103 -3 -77 -35 25 -18 28 18 32 11 42 1 hvcurveto
          0 2 1 6 1 vhcurveto
          1 14 9 0 13 hhcurveto
          70 41 -30 -58 hvcurveto
          -21 vlineto
          hintmask 11100100
          -73 -3 -210 -15 -118 vvcurveto
          -66 62 -63 102 47 94 11 60 38 vhcurveto
          -59 56 67 -12 41 hhcurveto
          120 46 94 27 hvcurveto
          -82 146 rmoveto
          -215 hlineto
          65 17 52 42 52 hhcurveto
          61 26 -51 -56 7 hvcurveto
          -308 -129 rmoveto
          -12 0 -21 -36 -14 vhcurveto
          -13 -32 -36 -1 -11 hhcurveto
          -51 -37 22 31 25 66 18 14 3 hvcurveto
          39 9 38 2 43 2 rrcurveto
          hintmask 00011000
          158 399 -107 callgsubr
        </CharString>
        <CharString name="agrave">
          14 callsubr
          53 -21 148 -78 callsubr
          40 314 -102 callsubr
        </CharString>
        <CharString name="ahookabove">
          14 callsubr
          7 45 callsubr
          46 83 18 60 callgsubr
          -37 86 hintmask 0110001000100000
          -105 callsubr
          hintmask 1000000000000000
          -41 callgsubr
          hintmask 0100000000000000
          -77 callsubr
          hintmask 1000001000100000
          -69 callsubr
          hintmask 0000110101000000
          37 374 -95 callsubr
          hintmask 0001100011000000
          -99 callgsubr
        </CharString>
        <CharString name="amacron">
          14 callsubr
          67 79 76 callsubr
          hintmask 01101100
          -105 callsubr
          hintmask 10000000
          -41 callgsubr
          hintmask 01000000
          -77 callsubr
          hintmask 10001100
          -69 callsubr
          hintmask 00010000
          121 340 -87 callgsubr
        </CharString>
        <CharString name="ampersand">
          302 -11 77 0 77 216 77 -39 77 71 77 hstemhm
          46 79 49 69 125 75 hintmask 00100000
          762 397 rmoveto
          -9 callsubr
          vhcurveto
          -206 hlineto
          hintmask 00010000
          -20 -28 -1 -38 hvcurveto
          hintmask 00101001
          -36 30 -2 18 vhcurveto
          58 hlineto
          -60 -99 -33 -53 -56 -55 -20 18 -60 57 -39 70 rrcurveto
          96 70 48 53 60 vvcurveto
          65 -44 77 -82 vhcurveto
          hintmask 01010110
          -63 -80 -49 -99 -47 11 -53 20 -49 hvcurveto
          -99 -69 rlineto
          -30 -22 -30 -39 -52 vvcurveto
          hintmask 10100000
          -90 88 -64 105 67 62 25 40 53 vhcurveto
          -52 77 57 -13 49 hhcurveto
          98 55 66 57 40 -36 0 0 -30 -5 -27 -13 -1 hvcurveto
          -33 -5 -40 -13 -36 hhcurveto
          -34 -46 11 29 -46 hvcurveto
          10 11 18 20 21 29 16 21 17 23 15 23 78 126 rcurveline
          62 hlineto
          hintmask 01011111
          81 callsubr
          hvcurveto
          -394 83 rmoveto
          -34 -63 -48 -42 -30 vhcurveto
          -20 54 0 48 4 vvcurveto
          55 47 16 24 38 16 -39 -26 vhcurveto
          -11 -375 rmoveto
          -15 -22 -44 -24 -56 hhcurveto
          -60 -50 33 46 37 34 23 76 50 hvcurveto
          20 -35 24 -30 18 -21 21 -25 26 -26 13 -13 rrcurveto
          endchar
        </CharString>
        <CharString name="anglearc">
          302 -22 -21 698 -20 hstemhm
          489 86 -24 86 hintmask 00010000
          757 43 rmoveto
          17 -11 16 -15 6 vhcurveto
          -122 52 rlineto
          18 55 10 59 58 vvcurveto
          58 -10 59 -18 55 vhcurveto
          122 52 rlineto
          15 6 11 16 17 vvcurveto
          23 -20 20 -23 -6 -6 -1 -3 -5 vhcurveto
          hintmask 11100000
          -122 -52 -15 29 -17 27 -21 27 rlinecurve
          9 -8 -12 7 -13 hhcurveto
          -25 -18 -20 -23 -10 3 -10 6 -7 hvcurveto
          16 -19 14 -21 12 -23 -412 -177 rcurveline
          -15 -6 -11 -16 -17 vvcurveto
          -17 11 -16 15 -6 vhcurveto
          412 -177 -12 -23 -14 -21 -16 -19 rlinecurve
          -6 -7 -3 -10 -10 vvcurveto
          -23 18 -20 25 13 12 6 10 8 vhcurveto
          21 27 17 27 15 29 122 -52 rcurveline
          -3 5 6 -1 6 hhcurveto
          23 20 20 23 hvcurveto
          -206 263 rmoveto
          -47 -8 -47 -14 -44 vhcurveto
          -319 138 319 138 rlineto
          hintmask 00010000
          14 -44 8 -47 -47 vvcurveto
          endchar
        </CharString>
        <CharString name="angleleft">
          -107 114 callsubr
          354 -39 rmoveto
          6 -10 26 -11 25 vhcurveto
          -133 288 133 287 rlineto
          12 25 9 26 6 vvcurveto
          22 -19 20 -23 -26 -12 -23 -18 -8 vhcurveto
          -147 -317 rlineto
          0 -10 -17 -12 vvcurveto
          -14 12 -19 0 vhcurveto
          145 -312 rlineto
          -18 8 12 -23 26 hhcurveto
          23 19 20 22 hvcurveto
          endchar
        </CharString>
        <CharString name="angleright">
          -107 114 callsubr
          297 305 rmoveto
          12 -10 17 0 vhcurveto
          -147 317 rlineto
          18 -8 -12 23 -26 hhcurveto
          -23 -19 -20 -22 -6 9 -26 12 -25 hvcurveto
          133 -287 -133 -288 rlineto
          -11 -25 -10 -26 -6 vvcurveto
          -22 19 -20 23 26 12 23 18 8 vhcurveto
          145 312 rlineto
          0 12 19 14 vvcurveto
          endchar
        </CharString>
        <CharString name="aogonek">
          -5 -197 70 121 30 callsubr
          hstemhm
          46 83 164 74 -40 86 hintmask 00111010
          -105 callsubr
          hintmask 11000100
          31 callgsubr
          hintmask 00100000
          108 callgsubr
          hintmask 01001010
          -69 callsubr
          endchar
        </CharString>
        <CharString name="aogonekacute">
          -5 -197 70 121 30 callsubr
          53 47 callgsubr
          46 83 164 74 -40 86 hintmask 0011001010000000
          -105 callsubr
          hintmask 1100000100000000
          31 callgsubr
          hintmask 0010000000000000
          108 callgsubr
          hintmask 0100001010000000
          -69 callsubr
          hintmask 0000110000000000
          41 371 -107 callgsubr
        </CharString>
        <CharString name="aring">
          14 callsubr
          61 48 38 48 hstemhm
          46 83 4 75 94 75 -50 86 hintmask 0110010010000000
          -105 callsubr
          hintmask 1000000000000000
          -41 callgsubr
          hintmask 0100000000000000
          -77 callsubr
          hintmask 1000010010000000
          -69 callsubr
          hintmask 0001101100000000
          -25 362 -26 callgsubr
        </CharString>
        <CharString name="aringacute">
          14 callsubr
          61 48 38 48 20 48 100 -20 hstemhm
          46 83 4 75 94 75 -50 86 hintmask 0110000100100000
          -105 callsubr
          hintmask 1000000000000000
          -41 callgsubr
          hintmask 0100000000000000
          -77 callsubr
          hintmask 1000000100100000
          -69 callsubr
          hintmask 0001111011000000
          -25 362 rmoveto
          -14 -26 -5 -21 -24 -23 6 13 13 26 6 -54 callsubr
          -10 192 -107 callgsubr
        </CharString>
        <CharString name="asciicircum">
          10 489 -21 hstem
          457 505 rmoveto
          13 -5 13 -16 8 vhcurveto
          -159 77 -9 4 -11 0 -9 -4 rlinecurve
          -159 -77 rlineto
          -15 -7 -6 -13 -13 vvcurveto
          -19 15 -19 20 5 5 0 3 6 vhcurveto
          143 62 143 -62 rlineto
          -3 6 6 0 5 hhcurveto
          20 15 19 18 hvcurveto
          endchar
        </CharString>
        <CharString name="asciitilde">
          10 239 -40 callgsubr
          hintmask 00010000
          442 333 -93 callsubr
        </CharString>
        <CharString name="asciitilde.low">
          10 0 81 -28 81 hstemhm
          hintmask 01000000
          442 94 rmoveto
          20 -19 20 -20 -13 -8 -6 -7 -8 vhcurveto
          4 callgsubr
          hintmask 01000000
          13 -14 -22 22 -36 hhcurveto
          -28 -29 -16 -18 -24 hvcurveto
          -36 callsubr
          hintmask 10000000
          -20 19 -20 20 13 8 6 7 8 vhcurveto
          hintmask 01000000
          25 27 23 15 12 hhcurveto
          5 9 -8 -10 10 hvcurveto
          hintmask 10000000
          -13 14 22 -22 36 hhcurveto
          28 29 16 18 24 hvcurveto
          21 16 30 25 19 vvcurveto
          endchar
        </CharString>
        <CharString name="asterisk">
          -16 callsubr
        </CharString>
        <CharString name="asterisk.math">
          -16 callsubr
        </CharString>
        <CharString name="at">
          185 -6 77 32 77 251 77 32 77 hstemhm
          58 71 129 75 0 71 168 69 hintmask 10111010
          641 86 rmoveto
          35 -33 1 -12 -17 -2 0 -11 -18 vhcurveto
          -33 -60 -57 -7 -37 hhcurveto
          -155 -121 109 125 131 125 104 150 29 29 -4 -13 25 hvcurveto
          17 -9 12 -10 11 -13 rrcurveto
          12 -27 -26 5 -24 hhcurveto
          hintmask 01000101
          -108 -84 -92 -110 -116 88 -87 103 83 109 62 151 hvcurveto
          hintmask 11111011
          114 -23 187 -214 -191 -155 -141 -170 -170 152 -142 196 83 70 25 29 51 vhcurveto
          20 10 11 8 20 vvcurveto
          -69 220 rmoveto
          -72 -56 -54 -63 -69 -51 58 67 72 56 54 63 69 51 -58 -67 vhcurveto
          endchar
        </CharString>
        <CharString name="atilde">
          14 callsubr
          39 -40 callgsubr
          46 83 198 86 hintmask 0110000110000000
          -105 callsubr
          hintmask 1000000000000000
          -41 callgsubr
          hintmask 0100000000000000
          -77 callsubr
          hintmask 1000000110000000
          -69 callsubr
          hintmask 0000001000000000
          108 367 -88 callsubr
        </CharString>
        <CharString name="b">
          68 -6 38 callgsubr
          163 75 callsubr
          -485 hlineto
          -24 1 -25 42 32 7 13 27 2 vhcurveto
          -23 27 40 -23 31 callsubr
        </CharString>
        <CharString name="backslash">
          10 114 callsubr
          469 -38 rmoveto
          9 -4 12 -4 6 vhcurveto
          -321 672 rlineto
          11 -6 -10 20 -26 hhcurveto
          -25 -18 -21 -22 -9 4 -12 4 -6 hvcurveto
          321 -672 rlineto
          -11 6 10 -20 26 hhcurveto
          25 18 21 22 hvcurveto
          endchar
        </CharString>
        <CharString name="baht">
          214 -69 -21 90 81 callgsubr
          90 -20 hstemhm
          137 82 99 78 -39 78 126 81 -53 81 hintmask 0001001010000000
          670 171 rmoveto
          62 -52 62 -96 26 vhcurveto
          61 23 59 44 64 vvcurveto
          82 -99 77 -135 vhcurveto
          -12 51 hlineto
          hintmask 0000100100000000
          22 -18 17 -21 vhcurveto
          hintmask 0101011000000000
          -23 -16 -17 -22 hvcurveto
          -51 -224 vlineto
          -47 callgsubr
          43 -457 -43 -44 callsubr
          224 -51 hlineto
          hintmask 1000000100000000
          -22 16 -17 23 vhcurveto
          hintmask 0100001000000000
          21 18 17 22 hvcurveto
          51 vlineto
          hintmask 0100000101000000
          39 hlineto
          138 97 84 87 hvcurveto
          -109 280 rmoveto
          hintmask 0111011010000000
          -48 -65 -41 -100 -6 vhcurveto
          178 13 vlineto
          87 65 -38 -45 hvcurveto
          -243 -95 rmoveto
          -99 178 99 hlineto
          271 -361 rmoveto
          -57 -83 -39 -95 vhcurveto
          -15 202 31 hlineto
          hintmask 0110011001000000
          90 72 -49 -57 hvcurveto
          -271 -96 rmoveto
          -99 202 99 hlineto
          endchar
        </CharString>
        <CharString name="bar">
          10 114 callsubr
          219 86 vstem
          305 -26 rmoveto
          50 callgsubr
          endchar
        </CharString>
        <CharString name="bigcircle">
          96 0 45 521 45 hstem
          0 45 521 45 vstem
          -60 callsubr
          endchar
        </CharString>
        <CharString name="blanksymbol">
          68 -6 38 callgsubr
          51 vlineto
          94 82 rlineto
          9 7 5 11 11 vvcurveto
          22 -17 17 -22 -9 -9 -3 -5 -7 vhcurveto
          -44 -39 rlineto
          9 75 callsubr
          -55 hlineto
          -77 -67 rlineto
          -9 -7 -5 -11 -11 vvcurveto
          -22 17 -17 22 10 8 4 5 7 vhcurveto
          27 23 rlineto
          -327 115 callgsubr
          32 7 13 27 2 vhcurveto
          -23 27 40 -23 31 callsubr
        </CharString>
        <CharString name="braceleft">
          127 callgsubr
          -42 rmoveto
          36 -31 2 -11 vhcurveto
          -122 3 -1 29 27 vvcurveto
          157 vlineto
          24 -3 39 -46 30 vhcurveto
          35 26 13 30 1 24 rrcurveto
          129 vlineto
          23 0 37 2 7 vhcurveto
          34 16 81 0 32 hhcurveto
          8 26 7 31 37 -28 2 -22 -71 -110 -16 -90 -18 hvcurveto
          -1 -6 0 -49 -28 vvcurveto
          -87 vlineto
          -31 0 -13 -29 -13 vhcurveto
          -14 -34 -47 -1 -22 hhcurveto
          -8 -26 -7 -31 -37 29 -2 13 hvcurveto
          23 -1 99 -4 2 -43 rrcurveto
          -161 vlineto
          -31 1 -47 54 -30 vhcurveto
          -23 42 55 -8 48 hhcurveto
          22 28 73 callgsubr
        </CharString>
        <CharString name="braceright">
          127 callgsubr
          305 117 callsubr
          -13 vhcurveto
          -22 1 -99 4 -2 44 rrcurveto
          162 vlineto
          29 -1 47 -54 30 vhcurveto
          26 -48 -63 5 -35 hhcurveto
          -21 -29 -2 -37 -33 23 -5 18 hvcurveto
          124 -2 1 -29 -29 vvcurveto
          -157 vlineto
          -38 13 -31 36 -23 vhcurveto
          -47 -34 -2 -43 -4 vvcurveto
          -173 vlineto
          -26 -2 -28 -130 -2 vhcurveto
          -8 -26 -7 -31 -37 29 -2 21 88 96 23 83 16 hvcurveto
          1 6 0 49 28 vvcurveto
          87 vlineto
          31 0 13 29 13 vhcurveto
          14 34 45 1 23 hhcurveto
          8 26 7 31 hvcurveto
          endchar
        </CharString>
        <CharString name="bracketleft">
          -218 -81 77 619 77 hstem
          104 84 vstem
          279 -43 rmoveto
          -9 callsubr
          vhcurveto
          -44 619 44 hlineto
          18 -37 callgsubr
          37 -28 2 -19 hvcurveto
          -81 hlineto
          -39 -8 -11 -38 hvcurveto
          -675 vlineto
          -37 7 -12 40 vhcurveto
          81 hlineto
          81 callsubr
          hvcurveto
          endchar
        </CharString>
        <CharString name="bracketright">
          -218 -81 77 619 77 hstem
          108 84 vstem
          192 -32 rmoveto
          675 144 callsubr
          -81 6 callgsubr
          44 -619 -44 hlineto
          -18 -29 -1 -37 -37 28 -2 19 hvcurveto
          81 167 callsubr
        </CharString>
        <CharString name="breve">
          10 474 145 callgsubr
          562 -96 callsubr
        </CharString>
        <CharString name="breve.cap">
          10 472 145 callgsubr
          560 -96 callsubr
        </CharString>
        <CharString name="breve.ts1">
          127 484 79 50 -20 hstem
          557 574 rmoveto
          21 -15 18 -24 -14 -11 -6 -11 -7 vhcurveto
          -6 -9 -12 -17 -36 -3 rrcurveto
          -4 -41 -27 0 -43 hhcurveto
          -43 -27 0 4 -41 hvcurveto
          -36 3 -12 17 -6 9 rrcurveto
          11 -7 -11 6 -14 hhcurveto
          -24 -15 -18 -21 -69 59 -21 176 176 61 21 69 hvcurveto
          endchar
        </CharString>
        <CharString name="brokenbar">
          10 114 callsubr
          219 86 vstem
          305 404 rmoveto
          233 vlineto
          14 -2 41 -41 -41 -2 -41 -14 vhcurveto
          -233 vlineto
          -22 20 -17 23 23 20 17 22 vhcurveto
          -430 vmoveto
          233 vlineto
          22 -20 17 -23 -23 -20 -17 -22 vhcurveto
          -233 vlineto
          -14 2 -41 41 41 2 41 14 vhcurveto
          endchar
        </CharString>
        <CharString name="bullet">
          302 93 286 hstem
          265 286 97 callsubr
          endchar
        </CharString>
        <CharString name="c">
          -48 59 callgsubr
          hstem
          41 84 204 99 vstem
          -54 callgsubr
          -122 95 -103 127 143 34 103 18 hvcurveto
          endchar
        </CharString>
        <CharString name="cacute">
          -48 176 callsubr
          41 84 204 99 hintmask 11001100
          -54 callgsubr
          -122 95 -103 127 143 34 103 18 hvcurveto
          hintmask 00110000
          -70 467 -107 callgsubr
        </CharString>
        <CharString name="caron">
          10 611 -20 hstem
          416 572 -93 callgsubr
        </CharString>
        <CharString name="caron.cap">
          10 579 -20 hstem
          415 541 -98 callgsubr
        </CharString>
        <CharString name="caron.ts1">
          127 618 -20 hstem
          539 569 rmoveto
          22 -14 27 -23 -10 -8 -2 -4 -9 vhcurveto
          -156 -60 -156 60 rlineto
          4 -9 -8 2 -10 hhcurveto
          -23 -14 -27 -22 -23 27 -13 36 -13 hvcurveto
          137 -49 15 -6 10 0 15 6 rlinecurve
          137 49 rlineto
          36 13 27 13 23 vvcurveto
          endchar
        </CharString>
        <CharString name="ccaron">
          -48 59 callgsubr
          180 -20 hstemhm
          41 84 204 99 hintmask 11011000
          -54 callgsubr
          -122 95 -103 127 143 34 103 18 hvcurveto
          hintmask 00100000
          -29 471 -93 callgsubr
        </CharString>
        <CharString name="ccedilla">
          -48 -202 78 29 78 -77 77 385 77 hstemhm
          41 84 70 84 -37 84 0 85 -82 99 hintmask 0011101010000000
          -54 callgsubr
          -115 85 -98 116 -11 hvcurveto
          -12 vlineto
          hintmask 1010010100000000
          -21 1 -24 36 -2 vhcurveto
          27 -2 20 -11 -17 vvcurveto
          -21 -20 -9 -86 -36 -28 -3 -36 -30 26 -9 13 vhcurveto
          hintmask 0100000100000000
          86 130 4 103 50 -34 33 -45 16 hvcurveto
          86 26 22 71 14 vvcurveto
          endchar
        </CharString>
        <CharString name="ccircumflex">
          -48 59 callgsubr
          53 -21 hstemhm
          41 84 204 99 hintmask 11011000
          -54 callgsubr
          -122 95 -103 127 143 34 103 18 hvcurveto
          hintmask 00100000
          -29 401 -98 callsubr
          endchar
        </CharString>
        <CharString name="cdotaccent">
          -48 59 callgsubr
          49 114 hstemhm
          41 84 74 115 15 99 hintmask 11010100
          -54 callgsubr
          -122 95 -103 127 143 34 103 18 hvcurveto
          hintmask 00101000
          -126 436 -65 callsubr
        </CharString>
        <CharString name="cedilla">
          18 callgsubr
        </CharString>
        <CharString name="cedilla.dup">
          18 callgsubr
        </CharString>
        <CharString name="cent">
          -48 -69 -21 616 -20 hstem
          41 82 95 77 34 99 vstem
          440 115 rmoveto
          35 -35 1 -8 -19 -12 -3 -24 -9 vhcurveto
          -4 -11 -14 -31 -44 -9 rrcurveto
          296 vlineto
          15 1 15 1 -3 vvcurveto
          -41 1 22 -15 28 hhcurveto
          28 24 20 33 67 -80 12 -53 1 hvcurveto
          43 vlineto
          21 -17 17 -21 -22 -17 -17 -21 vhcurveto
          -49 vlineto
          -130 -27 -47 -115 -78 vvcurveto
          -106 72 -93 105 -21 vhcurveto
          -50 vlineto
          -22 17 -17 22 21 17 17 22 vhcurveto
          47 vlineto
          117 14 28 88 17 vvcurveto
          -224 -34 rmoveto
          -54 21 -39 52 65 vvcurveto
          35 18 78 75 27 vhcurveto
          endchar
        </CharString>
        <CharString name="cent.oldstyle">
          -48 -69 -21 31 77 -24 77 455 -20 hstemhm
          41 83 205 99 -71 83 hintmask 00100010
          440 115 rmoveto
          35 -35 1 -8 -19 -12 -3 -24 -9 vhcurveto
          -12 -5 -20 -41 -63 hhcurveto
          -5 -6 0 1 -6 hvcurveto
          60 296 rlineto
          7 1 6 -1 0 vvcurveto
          -41 1 22 -15 28 hhcurveto
          hintmask 11011100
          28 24 20 33 55 -52 17 -49 6 hvcurveto
          7 36 rlineto
          25 5 -18 22 -25 hhcurveto
          -19 -16 -13 -18 -2 hvcurveto
          -11 -52 rlineto
          -153 -13 -54 -128 -83 vvcurveto
          -87 48 -77 73 -37 vhcurveto
          -12 -62 rlineto
          -24 -5 18 -22 26 hhcurveto
          18 15 13 18 4 hvcurveto
          11 55 rlineto
          hintmask 00101010
          -1 9 8 -1 9 hhcurveto
          143 34 103 18 hvcurveto
          -210 249 rmoveto
          -52 -261 rlineto
          -33 27 -21 41 48 vvcurveto
          38 19 85 87 22 vhcurveto
          endchar
        </CharString>
        <CharString name="centigrade">
          477 -11 78 232 69 0 69 53 77 -24 69 -66 77 hstemhm
          5 69 105 69 43 86 hintmask 1010010010000000
          932 174 rmoveto
          36 -18 5 -26 -20 -10 -12 -64 -19 vhcurveto
          -68 -20 -116 -4 -51 hhcurveto
          -124 -151 78 162 147 140 92 131 75 97 -29 -80 22 hvcurveto
          -36 10 9 -11 29 hhcurveto
          41 1 25 23 hvcurveto
          140 vlineto
          29 -15 16 -24 -23 -9 -17 -18 -8 vhcurveto
          hintmask 0001000000000000
          -4 -7 -3 -7 -4 -7 rrcurveto
          hintmask 1100010010000000
          40 -58 -74 16 -70 hhcurveto
          -171 -178 -119 -205 -182 179 -128 172 98 192 40 145 hvcurveto
          -684 317 rmoveto
          hintmask 0000100000000000
          63 -52 58 -73 vhcurveto
          hintmask 0011001100000000
          163 callgsubr
          hvcurveto
          174 callgsubr
          vhcurveto
          hintmask 0000100000000000
          30 26 22 27 vhcurveto
          hintmask 0001000100000000
          30 22 -24 -29 hvcurveto
          endchar
        </CharString>
        <CharString name="circumflex">
          10 484 -21 hstem
          416 502 -98 callsubr
          endchar
        </CharString>
        <CharString name="circumflex.cap">
          10 483 -21 hstem
          415 501 -107 callsubr
          endchar
        </CharString>
        <CharString name="circumflex.dup">
          10 484 -21 hstem
          416 502 -98 callsubr
          endchar
        </CharString>
        <CharString name="colon">
          -223 0 115 207 114 hstem
          89 114 vstem
          203 379 rmoveto
          32 -25 25 -32 -32 -25 -25 -9 callgsubr
          -322 vmoveto
          32 -25 26 -32 -32 -25 -26 -9 callgsubr
          endchar
        </CharString>
        <CharString name="colonmonetary">
          -69 -21 791 -20 hstemhm
          58 81 235 81 -78 78 158 86 hintmask 01010100
          699 172 rmoveto
          40 -30 1 -13 -13 -26 -1 -35 -3 vhcurveto
          -2 -22 -3 -34 -59 -29 -26 -13 -35 -8 -34 -3 rrcurveto
          474 vlineto
          32 -4 30 -9 24 -13 58 -34 10 -38 6 -25 rrcurveto
          -29 7 23 0 11 hhcurveto
          42 1 24 24 hvcurveto
          135 vlineto
          20 -2 29 -36 -23 -7 -11 -18 -8 vhcurveto
          -5 -8 -3 -6 -5 -13 -35 24 -53 22 -67 7 rrcurveto
          43 vlineto
          22 -18 17 -21 vhcurveto
          hintmask 10101100
          -21 -18 -17 -22 hvcurveto
          -42 vlineto
          -185 -13 -134 -142 -159 vvcurveto
          -157 131 -144 188 -14 vhcurveto
          -42 192 callsubr
          42 vlineto
          153 12 91 75 94 vvcurveto
          -325 -104 rmoveto
          -139 17 -96 104 117 vvcurveto
          hintmask 00010000
          117 99 104 136 16 vhcurveto
          endchar
        </CharString>
        <CharString name="comma">
          -223 -114 -21 hstem
          89 126 vstem
          215 18 rmoveto
          70 -34 27 -35 -34 -23 -27 -31 -6 0 -41 47 -9 vhcurveto
          -2 -15 -7 -24 -25 -22 rrcurveto
          -13 -12 -9 -7 -17 vvcurveto
          -18 19 -21 21 23 72 61 92 vhcurveto
          endchar
        </CharString>
        <CharString name="copyleft">
          153 callsubr
          104 47 37 73 149 47 64 45 vstem
          -60 callsubr
          -64 hmoveto
          92 -82 82 -110 -49 -39 -15 -16 -24 vhcurveto
          -3 7 -1 3 -3 5 rrcurveto
          10 -4 -4 6 -13 hhcurveto
          -20 -1 -16 -11 hvcurveto
          -75 vlineto
          -13 1 -13 23 6 13 0 16 3 vhcurveto
          4 14 5 21 29 17 rrcurveto
          11 19 26 6 28 hhcurveto
          85 64 -61 -70 -70 -63 -62 -87 -25 -29 4 10 -20 hvcurveto
          -32 16 -2 19 -1 12 rrcurveto
          19 -2 -14 1 -7 hhcurveto
          -7 -17 -1 -22 -57 60 -44 100 112 81 83 92 hvcurveto
          endchar
        </CharString>
        <CharString name="copyright">
          153 callsubr
          64 47 149 73 37 47 104 45 vstem
          -60 callsubr
          -104 -74 rmoveto
          22 -17 1 -7 -7 -14 -1 -19 -2 vhcurveto
          -1 -12 -2 -19 -32 -16 rrcurveto
          -10 -20 -29 -4 -25 hhcurveto
          -87 -63 62 70 70 64 61 85 28 26 -6 -11 19 hvcurveto
          29 -17 5 -21 4 -14 rrcurveto
          -16 3 13 0 6 hhcurveto
          23 1 13 13 hvcurveto
          75 vlineto
          11 -1 16 -20 -13 -4 -6 -10 -4 vhcurveto
          -3 -5 -1 -3 -3 -7 rrcurveto
          16 -24 -39 15 -49 hhcurveto
          -110 -82 -82 -92 -92 81 -83 112 100 60 44 57 hvcurveto
          endchar
        </CharString>
        <CharString name="copyright.alt">
          233 -154 37 98 57 279 57 24 57 98 37 hstem
          2 37 75 63 354 63 115 37 vstem
          746 218 rmoveto
          228 -143 144 -229 -228 -144 -144 -228 -228 144 -144 228 229 143 144 228 vhcurveto
          -37 1 rmoveto
          -207 -129 -129 -206 -205 -130 129 207 206 130 128 205 206 129 -128 -206 vhcurveto
          -115 -101 rmoveto
          30 -22 1 -10 -10 -19 -1 -26 -2 vhcurveto
          -2 -17 -2 -25 -44 -22 rrcurveto
          -14 -27 -40 -6 -34 hhcurveto
          -119 -86 85 95 96 87 84 117 37 36 -9 -15 26 hvcurveto
          39 -24 8 -28 4 -19 rrcurveto
          -22 6 17 0 8 hhcurveto
          32 0 18 18 hvcurveto
          102 vlineto
          15 -1 21 -27 -17 -6 -8 -13 -6 vhcurveto
          -3 -6 -3 -5 -3 -10 rrcurveto
          23 -33 -53 19 -67 hhcurveto
          -150 -111 -111 -126 -125 109 -112 154 136 81 60 77 hvcurveto
          endchar
        </CharString>
        <CharString name="currency">
          302 71 85 300 85 hstem
          173 85 301 85 vstem
          654 60 rmoveto
          30 28 -28 30 -10 10 -44 44 rcurveline
          27 38 15 46 50 vvcurveto
          50 -15 46 -27 38 vhcurveto
          44 44 10 10 28 30 -30 28 rlinecurve
          -28 30 -30 -28 -10 -10 -44 -44 rcurveline
          27 -38 -46 14 -50 hhcurveto
          -50 -45 -15 -26 -38 hvcurveto
          -45 44 -10 10 -30 28 -28 -30 rlinecurve
          -30 -28 28 -30 10 -10 44 -45 rcurveline
          -26 -37 -15 -46 -50 vvcurveto
          -50 15 -46 26 -37 vhcurveto
          -44 -45 -10 -10 -28 -30 30 -28 rlinecurve
          28 -30 30 28 10 10 45 44 rcurveline
          -26 38 45 -15 50 hhcurveto
          50 46 14 27 38 hvcurveto
          44 -44 10 -10 30 -28 28 30 rlinecurve
          -95 246 rmoveto
          -83 -67 -67 -84 -83 -67 67 83 83 67 67 83 84 67 -67 -83 vhcurveto
          endchar
        </CharString>
        <CharString name="cwm">
          -515 endchar
        </CharString>
        <CharString name="cwmascender">
          -515 endchar
        </CharString>
        <CharString name="cwmcapital">
          -515 endchar
        </CharString>
        <CharString name="d">
          68 -6 77 -71 95 callsubr
          hstemhm
          43 83 265 84 hintmask 01111100
          -20 callgsubr
          hintmask 10000100
          70 callgsubr
          vhcurveto
          hintmask 01000000
          35 callgsubr
          hintmask 10101000
          34 callsubr
          endchar
        </CharString>
        <CharString name="dagger">
          -71 -189 -21 596 82 234 -20 hstem
          97 83 0 83 0 83 cntrmask 00011100
          391 426 165 callsubr
          -1 -11 -3 -11 -2 2 22 rcurveline
          15 113 6 43 30 vvcurveto
          9 -1 39 -40 -41 -1 -37 -11 -35 9 -57 4 -23 vhcurveto
          6 -39 3 -29 1 -25 175 callgsubr
          -34 -7 -15 7 -26 38 21 29 8 7 27 hvcurveto
          7 2 11 3 11 2 -2 -20 -3 -16 -4 -21 rrcurveto
          -14 -70 0 -8 -52 vvcurveto
          -147 11 -164 9 -92 vhcurveto
          -21 1 4 -7 16 hhcurveto
          18 1 6 19 3 hvcurveto
          6 49 3 52 2 50 rrcurveto
          4 61 5 100 94 vvcurveto
          53 0 7 -18 88 vhcurveto
          -2 12 -1 13 -2 14 37 -8 rcurveline
          -6 19 29 -8 21 hhcurveto
          43 2 34 6 hvcurveto
          endchar
        </CharString>
        <CharString name="daggerdbl">
          -71 -178 -21 188 82 39 83 238 83 188 -20 hstem
          97 83 0 83 0 83 cntrmask 00000111
          391 472 165 callsubr
          -2 -11 -2 -11 -2 3 24 rcurveline
          13 73 7 39 28 vvcurveto
          8 -1 38 -41 -12 -29 -3 -43 -20 4 -29 7 -35 vhcurveto
          6 -33 4 -26 2 -21 175 callgsubr
          -35 -6 -16 7 -26 38 21 29 8 8 27 hvcurveto
          7 2 11 3 11 1 -3 -24 rcurveline
          -13 -72 -7 -20 -28 vvcurveto
          -42 28 -4 13 36 6 30 16 20 -4 29 -7 35 vhcurveto
          -6 33 -4 6 -2 21 10 -1 14 -3 13 -4 rrcurveto
          -6 19 29 -8 21 hhcurveto
          43 2 35 6 hvcurveto
          -442 vmoveto
          21 -15 20 -26 -20 -17 -3 -18 -69 vhcurveto
          -4 hlineto
          2 22 4 3 6 35 rrcurveto
          11 55 0 23 5 vvcurveto
          42 -28 4 -13 -36 -6 -29 -17 -27 8 -24 12 -69 vhcurveto
          3 -23 -13 1 -9 2 -30 9 rlinecurve
          9 -33 -17 0 -7 hhcurveto
          -31 -11 -25 -16 -18 12 -23 30 24 24 6 4 12 hvcurveto
          28 8 10 2 11 1 -2 -22 -4 -22 -6 -35 rrcurveto
          -11 -55 0 -24 -5 vvcurveto
          -42 28 -4 13 36 6 30 16 27 -8 44 -12 69 vhcurveto
          -3 24 13 -2 9 -2 31 -9 rlinecurve
          -9 33 18 0 5 hhcurveto
          30 12 23 18 hvcurveto
          endchar
        </CharString>
        <CharString name="dblbracketleft">
          -92 -80 86 601 86 hstem
          105 85 40 87 vstem
          404 -37 rmoveto
          21 -6 22 -34 vhcurveto
          -47 601 47 hlineto
          34 6 22 21 20 -7 23 -31 hvcurveto
          -216 hlineto
          -31 -14 -15 -28 hvcurveto
          -684 vlineto
          -24 7 -22 38 vhcurveto
          216 hlineto
          31 7 23 20 hvcurveto
          -174 43 rmoveto
          -40 601 40 hlineto
          endchar
        </CharString>
        <CharString name="dblbracketright">
          -92 -80 86 601 86 hstem
          105 87 40 85 vstem
          317 -37 rmoveto
          684 vlineto
          24 -7 22 -38 vhcurveto
          -215 hlineto
          -31 -7 -23 -20 -21 6 -22 34 hvcurveto
          46 -601 -46 hlineto
          -34 -6 -22 -21 -20 7 -23 31 hvcurveto
          215 hlineto
          32 13 15 28 hvcurveto
          -85 43 rmoveto
          -40 601 40 hlineto
          endchar
        </CharString>
        <CharString name="dblgrave.ts1">
          10 486 132 callsubr
          hstem
          243 512 rmoveto
          58 callgsubr
          175 hmoveto
          58 callgsubr
          endchar
        </CharString>
        <CharString name="dblverticalbar">
          10 114 callsubr
          201 -26 rmoveto
          50 callgsubr
          210 hmoveto
          50 callgsubr
          endchar
        </CharString>
        <CharString name="dcaron">
          68 -6 77 -71 95 callsubr
          hstemhm
          43 83 265 84 45 99 hintmask 01111100
          -20 callgsubr
          hintmask 10000100
          70 callgsubr
          vhcurveto
          hintmask 01000000
          35 callgsubr
          hintmask 10111010
          34 callsubr
          230 274 -100 callsubr
        </CharString>
        <CharString name="dcroat">
          68 -6 77 -71 106 callsubr
          14 58 -29 77 -28 77 hstemhm
          43 83 264 85 hintmask 01010001
          566 24 callgsubr
          379 49 hlineto
          hintmask 00001000
          21 17 7 22 hvcurveto
          hintmask 00010001
          21 -17 8 -21 vhcurveto
          -49 hlineto
          hintmask 00001001
          48 vlineto
          hintmask 00010101
          122 callgsubr
          -80 hlineto
          -18 -30 -1 -37 -38 28 -1 20 hvcurveto
          43 -20 -155 hlineto
          hintmask 00001000
          -21 -18 -8 -21 hvcurveto
          hintmask 10110011
          -22 18 -7 21 vhcurveto
          155 -54 hlineto
          28 -38 -43 12 -40 hhcurveto
          -124 -102 -99 -125 70 callgsubr
          hvcurveto
          hintmask 01000000
          35 callgsubr
          hintmask 10100010
          34 callsubr
          endchar
        </CharString>
        <CharString name="ddotbelow">
          68 91 callgsubr
          77 -71 95 callsubr
          hstemhm
          43 83 108 115 42 84 hintmask 00111101
          -20 callgsubr
          hintmask 01000001
          70 callgsubr
          vhcurveto
          hintmask 00100000
          35 callgsubr
          hintmask 01010100
          34 callsubr
          hintmask 10000010
          -40 -401 -89 callgsubr
        </CharString>
        <CharString name="degree">
          -121 368 69 106 69 hstem
          77 69 105 69 vstem
          320 491 rmoveto
          63 -52 58 -73 163 callgsubr
          vhcurveto
          174 callgsubr
          30 26 22 27 30 22 -24 -29 vhcurveto
          endchar
        </CharString>
        <CharString name="diameter">
          302 -32 85 506 85 hstem
          70 84 508 84 vstem
          757 612 rmoveto
          23 -20 20 -23 -12 -10 -5 -7 -8 vhcurveto
          -69 -70 rlineto
          45 -58 -71 26 -78 hhcurveto
          -186 -152 -152 -186 -78 26 -71 45 -58 hvcurveto
          -70 -69 rlineto
          -7 -8 -5 -10 -12 vvcurveto
          -23 20 -20 23 12 10 5 7 8 vhcurveto
          69 70 rlineto
          -45 58 71 -26 78 hhcurveto
          186 152 152 186 78 -26 71 -45 58 hvcurveto
          70 69 rlineto
          7 8 5 10 12 vvcurveto
          -95 -306 rmoveto
          -140 -113 -113 -139 -55 -50 18 29 -41 vhcurveto
          351 352 rlineto
          30 -42 17 -49 -55 vvcurveto
          -110 206 rmoveto
          -351 -352 rlineto
          -30 42 -17 49 55 vvcurveto
          140 113 113 139 55 50 -18 -29 41 vhcurveto
          endchar
        </CharString>
        <CharString name="died">
          10 4 -21 305 79 184 -20 hstem
          219 86 vstem
          497 328 rmoveto
          33 -24 6 -22 vhcurveto
          -146 143 hlineto
          33 -21 8 -23 -35 -7 -20 -26 vhcurveto
          -138 -146 vlineto
          -22 -24 -6 -33 -22 14 -18 27 hvcurveto
          151 -256 hlineto
          -27 4 -22 41 40 1 27 23 vhcurveto
          255 151 vlineto
          26 15 16 24 hvcurveto
          endchar
        </CharString>
        <CharString name="dieresis">
          10 485 105 hstem
          127 105 62 105 vstem
          -31 callsubr
          endchar
        </CharString>
        <CharString name="dieresis.cap">
          10 462 105 hstem
          112 105 92 105 vstem
          11 callsubr
          endchar
        </CharString>
        <CharString name="dieresis.dup">
          10 485 105 hstem
          127 105 62 105 vstem
          -31 callsubr
          endchar
        </CharString>
        <CharString name="dieresis.ts1">
          10 498 114 hstem
          420 556 rmoveto
          26 -21 31 -33 vhcurveto
          -3 -3 -1 -3 hhcurveto
          -34 -5 -16 -26 -25 vvcurveto
          -23 17 -35 37 32 27 22 36 vhcurveto
          -203 hmoveto
          25 -21 32 -34 vhcurveto
          -3 -3 -1 -3 hhcurveto
          -30 -5 -19 -23 -28 vvcurveto
          -27 21 -31 33 37 22 28 30 vhcurveto
          endchar
        </CharString>
        <CharString name="discount">
          10 22 -21 45 93 416 93 45 -20 hstem
          131 94 74 94 vstem
          469 649 rmoveto
          24 -17 20 -24 -25 -14 -22 -19 -10 vhcurveto
          -305 -562 rlineto
          -8 -14 -11 -21 -11 vvcurveto
          -22 20 -21 23 22 13 17 21 11 vhcurveto
          303 559 rlineto
          6 11 16 28 12 vvcurveto
          -244 -49 173 callgsubr
          26 20 15 21 5 hvcurveto
          32 21 -20 -28 hvcurveto
          168 -509 173 callgsubr
          25 20 16 21 5 hvcurveto
          32 21 -20 -28 hvcurveto
          endchar
        </CharString>
        <CharString name="divide">
          302 80 114 69 86 69 114 hstem
          351 114 cntrmask 11100000
          757 306 46 callsubr
          -292 169 rmoveto
          32 -25 25 -32 -32 -25 -25 -9 callgsubr
          -338 vmoveto
          32 -25 25 -32 -32 -25 -25 -9 callgsubr
          endchar
        </CharString>
        <CharString name="divorced">
          10 -42 -21 151 82 273 82 -82 83 151 -20 hstemhm
          -211 80 217 83 50 86 50 84 215 80 hintmask 0110011000000000
          169 308 rmoveto
          107 -82 110 -113 -114 -71 -114 -105 -108 80 -110 113 114 73 116 104 vhcurveto
          565 -2 rmoveto
          hintmask 1101111111000000
          103 -71 117 -115 -118 -75 -114 -107 -109 84 -108 110 113 72 115 103 vhcurveto
          -429 -321 rmoveto
          647 vlineto
          31 -15 14 -27 -5 -5 -1 -1 -5 vhcurveto
          -25 -1 -4 -31 -16 vvcurveto
          -647 vlineto
          -35 19 -8 22 44 1 25 23 vhcurveto
          -219 320 rmoveto
          -63 -41 -72 -67 -70 -39 70 69 63 42 71 67 72 36 -72 -66 vhcurveto
          568 -1 rmoveto
          -68 -1 -39 -66 -68 hhcurveto
          -67 -40 75 63 61 39 74 68 69 39 -70 -69 hvcurveto
          endchar
        </CharString>
        <CharString name="dlinebelow">
          68 -189 79 104 77 -71 95 callsubr
          hstemhm
          43 83 265 84 hintmask 00111110
          -20 callgsubr
          hintmask 01000010
          70 callgsubr
          vhcurveto
          hintmask 00100000
          35 callgsubr
          hintmask 01010100
          34 callsubr
          hintmask 10000000
          95 -414 -87 callgsubr
        </CharString>
        <CharString name="dollar">
          10 -60 -21 773 -20 hstemhm
          55 77 92 77 0 77 14 77 hintmask 01001100
          469 175 rmoveto
          49 -27 99 -141 29 vhcurveto
          185 vlineto
          27 -5 36 -13 14 -37 rrcurveto
          -9 -9 -4 -12 -13 vvcurveto
          -27 20 -25 31 25 28 14 43 77 -53 72 -115 13 vhcurveto
          28 vlineto
          19 -2 30 -36 vhcurveto
          hintmask 10110100
          -38 -1 -30 -19 hvcurveto
          -29 vlineto
          -107 -16 -62 -76 -74 vvcurveto
          -24 5 -108 164 -34 vhcurveto
          -208 vlineto
          -35 7 -31 19 -13 38 rrcurveto
          7 5 7 11 21 vvcurveto
          33 -28 19 -23 -11 -42 -4 -53 -83 56 -77 113 -14 vhcurveto
          -28 vlineto
          -19 1 -30 38 36 2 30 19 vhcurveto
          29 vlineto
          119 22 49 86 70 vvcurveto
          -245 193 rmoveto
          -49 11 -43 30 43 vvcurveto
          40 39 33 53 11 vhcurveto
          168 -365 rmoveto
          -43 -37 -39 -54 -13 vhcurveto
          190 vlineto
          56 -14 35 -38 -43 vvcurveto
          endchar
        </CharString>
        <CharString name="dollar.oldstyle">
          126 -59 -21 76 78 18 78 -1 80 -78 78 122 78 0 80 10 78 -78 80 74 -20 hstemhm
          57 76 -76 91 64 78 61 78 -78 82 47 14 15 75 hintmask 000000110100010110000000
          584 171 rmoveto
          90 -81 60 -74 17 vhcurveto
          191 vlineto
          26 -7 33 -16 6 -24 rrcurveto
          0 -14 -20 -13 vvcurveto
          -30 22 -22 34 36 12 33 25 79 -54 57 -101 19 vhcurveto
          37 vlineto
          26 -10 20 -29 -29 -10 -23 -25 vhcurveto
          -28 vlineto
          hintmask 000000001000000000000000
          1 -9 -8 1 -14 hhcurveto
          hintmask 110100010101101000000000
          -7 -16 -1 -1 -7 hvcurveto
          27 vlineto
          25 -14 24 -26 -24 -14 -21 -29 vhcurveto
          -38 vlineto
          -72 -21 -83 -55 -75 vvcurveto
          -89 80 -48 75 -19 vhcurveto
          -211 vlineto
          -27 9 -36 22 -1 24 rrcurveto
          1 9 12 10 14 vvcurveto
          29 -22 23 -32 -37 -13 -30 -28 -95 76 -54 79 -15 vhcurveto
          -43 vlineto
          -25 15 -17 24 30 9 22 26 vhcurveto
          28 61 -27 vlineto
          -34 18 -15 22 vhcurveto
          hintmask 000011001000110010000000
          25 13 19 29 hvcurveto
          37 vlineto
          91 31 64 63 72 vvcurveto
          -233 185 rmoveto
          -61 15 rlineto
          168 61 vlineto
          158 -369 rmoveto
          hintmask 011010000010101010000000
          -41 -42 -22 -34 -15 vhcurveto
          157 vlineto
          34 -12 42 -28 -39 vvcurveto
          -297 217 rmoveto
          -37 12 -42 19 36 vvcurveto
          34 41 24 38 11 vhcurveto
          139 -449 rmoveto
          -61 207 hlineto
          61 -12 rlineto
          endchar
        </CharString>
        <CharString name="dong">
          68 -70 77 17 74 -68 74 273 74 13 54 19 74 hstemhm
          40 80 251 80 hintmask 00111111
          539 66 rmoveto
          37 -28 1 -18 vhcurveto
          -42 360 46 hlineto
          21 17 6 21 20 -17 7 -21 hvcurveto
          -46 46 hlineto
          36 -6 11 -39 vhcurveto
          -76 hlineto
          -19 -27 -1 -35 -37 26 -1 20 hvcurveto
          41 -19 -148 hlineto
          -20 -17 -7 -20 -21 17 -6 20 hvcurveto
          148 -51 hlineto
          26 -37 -40 12 -38 hhcurveto
          -118 -98 -94 -120 hvcurveto
          hintmask 01000001
          -119 94 -94 111 57 42 24 24 27 vhcurveto
          hintmask 10100010
          -32 9 -10 36 vhcurveto
          77 hlineto
          17 29 2 34 hvcurveto
          -97 vmoveto
          21 -18 17 -21 vhcurveto
          -421 188 callgsubr
          421 hlineto
          21 18 17 22 hvcurveto
          -170 252 rmoveto
          hintmask 01010010
          -52 -47 -71 -73 -72 -57 63 76 79 65 61 74 60 50 -46 -50 vhcurveto
          endchar
        </CharString>
        <CharString name="dotaccent">
          -223 480 111 callsubr
          537 -65 callsubr
        </CharString>
        <CharString name="dotaccent.alt">
          -223 458 111 callsubr
          515 rmoveto
          -23 callgsubr
          -35 -23 -29 -28 -59 callgsubr
          28 29 vhcurveto
          endchar
        </CharString>
        <CharString name="dotaccent.cap">
          -223 462 111 callsubr
          519 -65 callsubr
        </CharString>
        <CharString name="dotlessi">
          53 callsubr
          hstem
          103 85 vstem
          -91 callsubr
          endchar
        </CharString>
</ttFont>
